fira-sans_italic.sfdir
StartChar: exclam
Encoding: 33 33 2126
Width: 235
Flags: MW
HStem: -12 21G<66.5 106> -12 139<76.5 106> 669 20G<126 227 227 227>
VStem: 23 137<43 72>
LayerCount: 2
Back
Fore
SplineSet
71 230 m 1xb0
 126 689 l 1
 227 689 l 1
 152 230 l 1
 71 230 l 1xb0
97 127 m 0x70
 135 127 160 99 160 64 c 0
 160 22 127 -12 85 -12 c 0
 48 -12 23 16 23 51 c 0
 23 93 56 127 97 127 c 0x70
EndSplineSet
EndChar
StartChar: quotedbl
Encoding: 34 34 2132
Width: 393
Flags: MW
HStem: 427 262<95 216 118 164 298 344 118 275>
VStem: 95 301<427 689>
LayerCount: 2
Back
Fore
SplineSet
95 427 m 1
 118 689 l 1
 216 689 l 1
 164 427 l 1
 95 427 l 1
275 427 m 1
 298 689 l 1
 396 689 l 1
 344 427 l 1
 275 427 l 1
EndSplineSet
EndChar
StartChar: numbersign
Encoding: 35 35 2128
Width: 512
Flags: MW
HStem: 0 21G<20 97 20 20 249 327 249 249> 163 69<10 64 0 83 160 293 10 141 390 447> 447 70<87 141 77 160 87 219 238 371 467 524>
VStem: 0 534<163 517>
LayerCount: 2
Back
Fore
SplineSet
524 447 m 1
 448 447 l 1
 390 232 l 1
 457 232 l 1
 447 163 l 1
 371 163 l 1
 327 0 l 1
 249 0 l 1
 293 163 l 1
 141 163 l 1
 97 0 l 1
 20 0 l 1
 64 163 l 1
 0 163 l 1
 10 232 l 1
 83 232 l 1
 141 447 l 1
 77 447 l 1
 87 517 l 1
 160 517 l 1
 201 669 l 1
 279 669 l 1
 238 517 l 1
 390 517 l 1
 431 669 l 1
 508 669 l 1
 467 517 l 1
 534 517 l 1
 524 447 l 1
312 232 m 1
 371 447 l 1
 219 447 l 1
 160 232 l 1
 312 232 l 1
EndSplineSet
Substitution2: "'onum' Oldstyle Figures lookup 26 subtable" numbersign.osf
Substitution2: "'tnum' Tabular Numbers lookup 25 subtable" numbersign.tf
AlternateSubs2: "'aalt' Access All Alternates lookup 1 subtable" numbersign.tf numbersign.osf
EndChar
StartChar: ampersand
Encoding: 38 38 2379
Width: 757
GlyphClass: 2
Flags: MW
HStem: -12 73<245.5 313.5 245.5 314.5> 633 68<314.5 372>
VStem: 76 93<139.5 194 139.5 205> 157 89<513 563 513 582.5> 433 89<528 581.5>
LayerCount: 2
Back
Fore
SplineSet
347 701 m 0xe8
 448 701 522 638 522 560 c 0
 522 462 441 414 353 367 c 1
 505 200 l 1
 535 247 565 304 584 355 c 1
 666 325 l 1
 634 258 596 195 557 144 c 1
 652 40 l 1
 582 -12 l 1
 499 82 l 1
 435 20 361 -12 268 -12 c 0
 147 -12 76 67 76 165 c 0xe8
 76 245 106 306 232 380 c 1
 187 431 157 477 157 534 c 0xd8
 157 631 224 701 347 701 c 0xe8
347 633 m 0xd8
 282 633 246 592 246 534 c 0
 246 492 266 456 303 417 c 1
 379 459 433 496 433 560 c 0
 433 603 397 633 347 633 c 0xd8
278 326 m 1xe8
 180 268 169 219 169 169 c 0
 169 110 210 61 281 61 c 0
 346 61 399 89 450 136 c 1
 278 326 l 1xe8
EndSplineSet
Substitution2: "'ss03' Style Set 3 lookup 36 subtable" ampersand.ss03
Substitution2: "'aalt' Access All Alternates lookup 0 subtable" ampersand.ss03
EndChar
StartChar: quotesingle
Encoding: 39 39 2133
Width: 213
Flags: MW
HStem: 427 262<95 216 118 164>
VStem: 95 121
LayerCount: 2
Back
Fore
SplineSet
95 427 m 1
 118 689 l 1
 216 689 l 1
 164 427 l 1
 95 427 l 1
EndSplineSet
EndChar
StartChar: parenleft
Encoding: 40 40 2150
Width: 318
Flags: MW
HStem: -143 990<167 303>
VStem: 42.38 92.5
LayerCount: 2
Back
Fore
SplineSet
303 847 m 1
 357 803 l 1
 249 670 175 562 144 345 c 0
 115 133 157 24 227 -109 c 1
 167 -143 l 1
 89 -4 17 116 51 355 c 0
 84 590 186 708 303 847 c 1
EndSplineSet
Substitution2: "'case' Case-Sensitive Forms lookup 29 subtable" parenleft.case
Substitution2: "'dnom' Denominators lookup 17 subtable" parenleft.dnom
Substitution2: "'numr' Numerators lookup 16 subtable" parenleft.numr
Substitution2: "'sups' Superscript lookup 15 subtable" uni207D
Substitution2: "'subs' Subscript lookup 14 subtable" uni208D
AlternateSubs2: "'aalt' Access All Alternates lookup 1 subtable" uni208D uni207D parenleft.numr parenleft.dnom parenleft.case
EndChar

StartChar: parenright
Encoding: 41 41 1010
Width: 318
Flags: MW
HStem: -147 990<39 175>
VStem: 207.67 91.92
LayerCount: 2
Fore
SplineSet
175 843 m 1
 253 704 325 584 291 345 c 0
 258 110 156 -8 39 -147 c 1
 -15 -103 l 1
 93 30 168 139 198 355 c 0
 228 568 186 676 115 809 c 1
 175 843 l 1
EndSplineSet
Substitution2: "'case' Case-Sensitive Forms lookup 25 subtable" parenright.case
Substitution2: "'dnom' Denominators lookup 14 subtable" parenright.dnom
Substitution2: "'numr' Numerators lookup 13 subtable" parenright.numr
Substitution2: "'sups' Superscript lookup 12 subtable" parenrightsuperior
Substitution2: "'subs' Subscript lookup 11 subtable" uni208E
AlternateSubs2: "'aalt' Access All Alternates lookup 1 subtable" uni208E parenrightsuperior parenright.numr parenright.dnom parenright.case
EndChar
StartChar: asterisk
Encoding: 42 42 2118
Width: 433
Flags: MW
HStem: 507 20G<299 299> 508 20G<207 207> 719 20G<237 330 330 330>
VStem: 60 396<561 561>
LayerCount: 2
Back
Fore
SplineSet
456 561 m 1x70
 299 527 l 1xb0
 386 412 l 1
 309 359 l 1
 249 492 l 1
 153 359 l 1
 88 411 l 1
 207 528 l 1
 60 561 l 1
 96 641 l 1
 231 581 l 1
 237 739 l 1
 330 739 l 1
 292 582 l 1
 438 644 l 1
 456 561 l 1x70
EndSplineSet
EndChar
StartChar: plus
Encoding: 43 43 2273
Width: 493
GlyphClass: 2
Flags: MW
HStem: 293 76<76 208 65 219 303 436 76 292>
VStem: 65 382<293 369>
LayerCount: 2
Back
Fore
SplineSet
324 519 m 1
 303 369 l 1
 447 369 l 1
 436 293 l 1
 292 293 l 1
 271 144 l 1
 187 144 l 1
 208 293 l 1
 65 293 l 1
 76 369 l 1
 219 369 l 1
 240 519 l 1
 324 519 l 1
EndSplineSet
Substitution2: "'onum' Oldstyle Figures lookup 26 subtable" plus.osf
Substitution2: "'tnum' Tabular Numbers lookup 25 subtable" plus.tf
Substitution2: "'dnom' Denominators lookup 17 subtable" plus.dnom
Substitution2: "'numr' Numerators lookup 16 subtable" plus.numr
Substitution2: "'sups' Superscript lookup 15 subtable" uni207A
Substitution2: "'subs' Subscript lookup 14 subtable" uni208A
AlternateSubs2: "'aalt' Access All Alternates lookup 1 subtable" uni208A uni207A plus.numr plus.dnom plus.tf plus.osf
EndChar
StartChar: comma
Encoding: 44 44 2123
Width: 241
Flags: MW
HStem: -166 293<-20 116.5 -20 116.5>
VStem: 24 137<52 71.5>
LayerCount: 2
Back
Fore
SplineSet
98 127 m 0
 135 127 161 99 161 64 c 0
 161 40 154 19 135 -15 c 2
 47 -166 l 1
 -20 -166 l 1
 45 2 l 1
 32 13 24 30 24 51 c 0
 24 92 57 127 98 127 c 0
EndSplineSet
EndChar
StartChar: hyphen
Encoding: 45 45 2168
Width: 397
Flags: MW
HStem: 274 78<59 351 70 340>
VStem: 59 292<274 352>
LayerCount: 2
Back
Fore
SplineSet
59 274 m 1
 70 352 l 1
 351 352 l 1
 340 274 l 1
 59 274 l 1
EndSplineSet
Substitution2: "'case' Case-Sensitive Forms lookup 29 subtable" hyphen.case
Substitution2: "'aalt' Access All Alternates lookup 0 subtable" hyphen.case
EndChar

StartChar: period
Encoding: 46 46 990
Width: 240
Flags: MW
HStem: -12 139<76.5 106>
VStem: 23 137<43 72>
LayerCount: 2
Fore
SplineSet
97 127 m 0
 135 127 160 99 160 64 c 0
 160 22 127 -12 85 -12 c 0
 48 -12 23 16 23 51 c 0
 23 93 56 127 97 127 c 0
EndSplineSet
EndChar

StartChar: slash
Encoding: 47 47 996
Width: 514
Flags: MW
HStem: -104 913<130 408>
VStem: 53 432
LayerCount: 2
Fore
SplineSet
485 789 m 1
 130 -104 l 1
 53 -83 l 1
 408 809 l 1
 485 789 l 1
EndSplineSet
Substitution2: "'frac' Diagonal Fractions lookup 15 subtable" fraction
Substitution2: "'aalt' Access All Alternates lookup 0 subtable" fraction
EndChar

StartChar: zero
Encoding: 48 48 879
Width: 552
Flags: MW
HStem: -12 73<213 286 213 348> 606 73<285.5 359>
VStem: 56 93<158 228.5 158 320> 423 92<438.5 509>
LayerCount: 2
Fore
SplineSet
328 679 m 0
 452 679 515 593 515 438 c 0
 515 256 454 -12 242 -12 c 0
 119 -12 56 74 56 229 c 0
 56 411 116 679 328 679 c 0
328 606 m 0
 243 606 186 527 158 329 c 0
 152 283 149 245 149 212 c 0
 149 104 182 61 244 61 c 0
 328 61 386 140 414 339 c 0
 420 384 423 422 423 455 c 0
 423 563 390 606 328 606 c 0
EndSplineSet
Substitution2: "'zero' Slashed Zero lookup 28 subtable" zero.zero
Substitution2: "'onum' Oldstyle Figures lookup 22 subtable" zero.osf
Substitution2: "'tnum' Tabular Numbers lookup 21 subtable" zero.tf
Substitution2: "'frac' Diagonal Fractions lookup 16 subtable" zero.numr
Substitution2: "'dnom' Denominators lookup 14 subtable" zero.dnom
Substitution2: "'numr' Numerators lookup 13 subtable" zero.numr
Substitution2: "'sups' Superscript lookup 12 subtable" zerosuperior
Substitution2: "'subs' Subscript lookup 11 subtable" zeroinferior
AlternateSubs2: "'aalt' Access All Alternates lookup 1 subtable" zeroinferior zerosuperior zero.numr zero.dnom zero.tf zero.osf zero.zero
EndChar

StartChar: one
Encoding: 49 49 880
Width: 427
Flags: MW
HStem: 0 21G<190 282 190 190>
VStem: 72 304<541 669>
LayerCount: 2
Fore
SplineSet
282 0 m 1
 190 0 l 1
 270 562 l 1
 103 467 l 1
 72 541 l 1
 295 669 l 1
 376 669 l 1
 282 0 l 1
EndSplineSet
Substitution2: "'onum' Oldstyle Figures lookup 22 subtable" one.osf
Substitution2: "'tnum' Tabular Numbers lookup 21 subtable" one.tf
Substitution2: "'frac' Diagonal Fractions lookup 16 subtable" one.numr
Substitution2: "'dnom' Denominators lookup 14 subtable" one.dnom
Substitution2: "'numr' Numerators lookup 13 subtable" one.numr
Substitution2: "'sups' Superscript lookup 12 subtable" onesuperior
Substitution2: "'subs' Subscript lookup 11 subtable" oneinferior
AlternateSubs2: "'aalt' Access All Alternates lookup 1 subtable" oneinferior onesuperior one.numr one.dnom one.tf one.osf
EndChar

StartChar: two
Encoding: 50 50 881
Width: 489
Flags: MW
HStem: 0 76 603 76<243.5 300.5>
VStem: 367 95<462 539.5>
LayerCount: 2
Fore
SplineSet
279 679 m 0
 392 679 462 610 462 511 c 0
 462 406 399 319 117 75 c 1
 414 77 l 1
 392 0 l 1
 1 0 l 1
 11 75 l 1
 318 358 367 416 367 508 c 0
 367 571 329 603 272 603 c 0
 215 603 173 579 124 528 c 1
 66 581 l 1
 130 647 198 679 279 679 c 0
EndSplineSet
Substitution2: "'onum' Oldstyle Figures lookup 22 subtable" two.osf
Substitution2: "'tnum' Tabular Numbers lookup 21 subtable" two.tf
Substitution2: "'frac' Diagonal Fractions lookup 16 subtable" two.numr
Substitution2: "'dnom' Denominators lookup 14 subtable" two.dnom
Substitution2: "'numr' Numerators lookup 13 subtable" two.numr
Substitution2: "'sups' Superscript lookup 12 subtable" twosuperior
Substitution2: "'subs' Subscript lookup 11 subtable" twoinferior
AlternateSubs2: "'aalt' Access All Alternates lookup 1 subtable" twoinferior twosuperior two.numr two.dnom two.tf two.osf
EndChar

StartChar: three
Encoding: 51 51 882
Width: 493
Flags: MW
HStem: -12 75<152.5 225.5 152.5 269> 314 71<190 221 169 222> 605 74<242 298>
VStem: 337 93<179 258 170 260.5> 362 92<492.5 547>
LayerCount: 2
Fore
SplineSet
276 679 m 0xe8
 393 679 454 608 454 522 c 0xe8
 454 455 413 379 302 354 c 1
 374 348 430 300 430 216 c 0
 430 124 360 -12 178 -12 c 0
 97 -12 31 19 -11 80 c 1
 49 130 l 1
 84 81 127 63 178 63 c 0
 273 63 337 131 337 227 c 0xf0
 337 294 292 314 221 314 c 2
 169 314 l 1
 190 385 l 1
 222 385 l 2
 319 385 362 465 362 520 c 0
 362 574 327 605 269 605 c 0
 215 605 172 585 122 543 c 1
 77 601 l 1
 142 655 206 679 276 679 c 0xe8
EndSplineSet
Substitution2: "'onum' Oldstyle Figures lookup 22 subtable" three.osf
Substitution2: "'tnum' Tabular Numbers lookup 21 subtable" three.tf
Substitution2: "'frac' Diagonal Fractions lookup 16 subtable" three.numr
Substitution2: "'dnom' Denominators lookup 14 subtable" three.dnom
Substitution2: "'numr' Numerators lookup 13 subtable" three.numr
Substitution2: "'sups' Superscript lookup 12 subtable" threesuperior
Substitution2: "'subs' Subscript lookup 11 subtable" threeinferior
AlternateSubs2: "'aalt' Access All Alternates lookup 1 subtable" threeinferior threesuperior three.numr three.dnom three.tf three.osf
EndChar

StartChar: four
Encoding: 52 52 883
Width: 526
Flags: MW
HStem: 0 21G<285 374 285 285> 165 73<135 308 408 483>
VStem: 25 468<165 238>
LayerCount: 2
Fore
SplineSet
483 165 m 1
 397 165 l 1
 374 0 l 1
 285 0 l 1
 308 165 l 1
 25 165 l 1
 34 231 l 1
 292 679 l 1
 369 647 l 1
 135 238 l 1
 319 238 l 1
 353 418 l 1
 433 418 l 1
 408 238 l 1
 493 238 l 1
 483 165 l 1
EndSplineSet
Substitution2: "'onum' Oldstyle Figures lookup 22 subtable" four.osf
Substitution2: "'tnum' Tabular Numbers lookup 21 subtable" four.tf
Substitution2: "'frac' Diagonal Fractions lookup 16 subtable" four.numr
Substitution2: "'dnom' Denominators lookup 14 subtable" four.dnom
Substitution2: "'numr' Numerators lookup 13 subtable" four.numr
Substitution2: "'sups' Superscript lookup 12 subtable" foursuperior
Substitution2: "'subs' Subscript lookup 11 subtable" fourinferior
AlternateSubs2: "'aalt' Access All Alternates lookup 1 subtable" fourinferior foursuperior four.numr four.dnom four.tf four.osf
EndChar
StartChar: five
Encoding: 53 53 2022
Width: 495
Flags: MW
HStem: -12 75<162 251.5 162 281.5> 355 71<265 281> 597 72<204 463 204 204>
VStem: 353 93<212.5 288>
LayerCount: 2
Back
Fore
SplineSet
485 669 m 1
 463 597 l 1
 204 597 l 1
 174 401 l 1
 212 419 248 426 282 426 c 0
 383 426 446 361 446 245 c 0
 446 140 375 -12 188 -12 c 0
 100 -12 44 22 0 75 c 1
 60 126 l 1
 94 82 134 63 190 63 c 0
 313 63 353 178 353 247 c 0
 353 329 310 355 252 355 c 0
 214 355 187 347 152 331 c 1
 80 332 l 1
 127 669 l 1
 485 669 l 1
EndSplineSet
Substitution2: "'onum' Oldstyle Figures lookup 26 subtable" five.osf
Substitution2: "'tnum' Tabular Numbers lookup 25 subtable" five.tf
Substitution2: "'frac' Diagonal Fractions lookup 19 subtable" five.numr
Substitution2: "'dnom' Denominators lookup 17 subtable" five.dnom
Substitution2: "'numr' Numerators lookup 16 subtable" five.numr
Substitution2: "'sups' Superscript lookup 15 subtable" uni2075
Substitution2: "'subs' Subscript lookup 14 subtable" uni2085
AlternateSubs2: "'aalt' Access All Alternates lookup 1 subtable" uni2085 uni2075 five.numr five.dnom five.tf five.osf
EndChar

StartChar: six
Encoding: 54 54 885
Width: 525
Flags: MW
HStem: -12 73<208.5 301.5 208.5 326> 367 73<294 331.5> 606 73<305.5 371>
VStem: 53 88<152.5 210.5 152.5 236> 392 91<230.5 304.5>
LayerCount: 2
Fore
SplineSet
324 440 m 0
 412 440 483 382 483 264 c 0
 483 155 411 -12 241 -12 c 0
 106 -12 53 80 53 221 c 0
 53 251 55 284 60 319 c 0
 90 536 202 679 357 679 c 0
 412 679 455 663 490 637 c 1
 449 577 l 1
 422 596 388 606 354 606 c 0
 257 606 184 506 157 356 c 1
 209 416 264 440 324 440 c 0
244 61 m 0
 359 61 392 194 392 267 c 0
 392 342 357 367 306 367 c 0
 245 367 187 327 146 271 c 1
 143 245 141 221 141 200 c 0
 141 105 173 61 244 61 c 0
EndSplineSet
Substitution2: "'onum' Oldstyle Figures lookup 22 subtable" six.osf
Substitution2: "'tnum' Tabular Numbers lookup 21 subtable" six.tf
Substitution2: "'frac' Diagonal Fractions lookup 16 subtable" six.numr
Substitution2: "'dnom' Denominators lookup 14 subtable" six.dnom
Substitution2: "'numr' Numerators lookup 13 subtable" six.numr
Substitution2: "'sups' Superscript lookup 12 subtable" sixsuperior
Substitution2: "'subs' Subscript lookup 11 subtable" sixinferior
AlternateSubs2: "'aalt' Access All Alternates lookup 1 subtable" sixinferior sixsuperior six.numr six.dnom six.tf six.osf
EndChar

StartChar: seven
Encoding: 55 55 886
Width: 438
Flags: MW
HStem: -10 21G<126 126> 594 75<81 362 70 466>
VStem: 43 423
LayerCount: 2
Fore
SplineSet
457 600 m 1
 126 -10 l 1
 43 18 l 1
 362 594 l 1
 70 594 l 1
 81 669 l 1
 466 669 l 1
 457 600 l 1
EndSplineSet
Substitution2: "'onum' Oldstyle Figures lookup 22 subtable" seven.osf
Substitution2: "'tnum' Tabular Numbers lookup 21 subtable" seven.tf
Substitution2: "'frac' Diagonal Fractions lookup 16 subtable" seven.numr
Substitution2: "'dnom' Denominators lookup 14 subtable" seven.dnom
Substitution2: "'numr' Numerators lookup 13 subtable" seven.numr
Substitution2: "'sups' Superscript lookup 12 subtable" sevensuperior
Substitution2: "'subs' Subscript lookup 11 subtable" seveninferior
AlternateSubs2: "'aalt' Access All Alternates lookup 1 subtable" seveninferior sevensuperior seven.numr seven.dnom seven.tf seven.osf
EndChar

StartChar: eight
Encoding: 56 56 887
Width: 545
Flags: MW
HStem: -12 73<204 287 204 308> 610 69<275 357.5>
VStem: 31 94<131 191 131 199.5> 105 88<464 518.5 463 556.5> 397 93<164 233> 421 89<500.5 550.5>
LayerCount: 2
Fore
SplineSet
375 357 m 1xd8
 449 323 490 272 490 202 c 0
 490 77 380 -12 236 -12 c 0
 109 -12 31 60 31 162 c 0xe8
 31 237 65 304 187 354 c 1
 131 386 105 435 105 493 c 0
 105 620 218 679 325 679 c 0
 419 679 510 627 510 525 c 0xd4
 510 447 468 399 375 357 c 1xd8
326 610 m 0xd4
 224 610 193 543 193 494 c 0
 193 432 233 409 299 386 c 1
 313 382 l 1
 405 430 421 477 421 524 c 0
 421 577 389 610 326 610 c 0xd4
240 61 m 0xe8
 334 61 397 122 397 206 c 0
 397 260 361 287 271 320 c 1
 249 327 l 1
 148 283 125 219 125 163 c 0
 125 99 168 61 240 61 c 0xe8
EndSplineSet
Substitution2: "'onum' Oldstyle Figures lookup 22 subtable" eight.osf
Substitution2: "'tnum' Tabular Numbers lookup 21 subtable" eight.tf
Substitution2: "'frac' Diagonal Fractions lookup 16 subtable" eight.numr
Substitution2: "'dnom' Denominators lookup 14 subtable" eight.dnom
Substitution2: "'numr' Numerators lookup 13 subtable" eight.numr
Substitution2: "'sups' Superscript lookup 12 subtable" eightsuperior
Substitution2: "'subs' Subscript lookup 11 subtable" eightinferior
AlternateSubs2: "'aalt' Access All Alternates lookup 1 subtable" eightinferior eightsuperior eight.numr eight.dnom eight.tf eight.osf
EndChar
StartChar: nine
Encoding: 57 57 2026
Width: 519
Flags: MW
HStem: 243 72<222 263.5> 606 73<248 338>
VStem: 69 90<385.5 457.5 385.5 483.5> 405 91<465 522.5>
LayerCount: 2
Back
Fore
SplineSet
305 679 m 0
 431 679 496 595 496 466 c 0
 496 277 438 64 80 -23 c 1
 65 48 l 1
 235 95 353 173 383 318 c 1
 349 276 296 243 231 243 c 0
 138 243 69 314 69 424 c 0
 69 543 138 679 305 679 c 0
249 315 m 0
 308 315 358 350 398 403 c 1
 403 432 405 453 405 477 c 0
 405 568 369 606 307 606 c 0
 189 606 159 495 159 420 c 0
 159 351 195 315 249 315 c 0
EndSplineSet
Substitution2: "'onum' Oldstyle Figures lookup 26 subtable" nine.osf
Substitution2: "'tnum' Tabular Numbers lookup 25 subtable" nine.tf
Substitution2: "'frac' Diagonal Fractions lookup 19 subtable" nine.numr
Substitution2: "'dnom' Denominators lookup 17 subtable" nine.dnom
Substitution2: "'numr' Numerators lookup 16 subtable" nine.numr
Substitution2: "'sups' Superscript lookup 15 subtable" uni2079
Substitution2: "'subs' Subscript lookup 14 subtable" uni2089
AlternateSubs2: "'aalt' Access All Alternates lookup 1 subtable" uni2089 uni2079 nine.numr nine.dnom nine.tf nine.osf
EndChar

StartChar: colon
Encoding: 58 58 984
Width: 240
Flags: MW
HStem: -12 21G<66.5 106> -12 139<76.5 106> 356 139<128.5 158>
VStem: 23 137<43 72> 75 137<411 440>
LayerCount: 2
Fore
SplineSet
149 495 m 0xa8
 187 495 212 467 212 432 c 0
 212 390 179 356 137 356 c 0
 100 356 75 384 75 419 c 0
 75 461 108 495 149 495 c 0xa8
97 127 m 0x70
 135 127 160 99 160 64 c 0
 160 22 127 -12 85 -12 c 0
 48 -12 23 16 23 51 c 0
 23 93 56 127 97 127 c 0x70
EndSplineSet
EndChar

StartChar: semicolon
Encoding: 59 59 995
Width: 244
Flags: MW
HStem: 356 139<132.5 162>
VStem: 24 137<52 71.5> 79 137<411 440>
LayerCount: 2
Fore
SplineSet
153 495 m 0xa0
 191 495 216 467 216 432 c 0
 216 390 183 356 141 356 c 0
 104 356 79 384 79 419 c 0
 79 461 112 495 153 495 c 0xa0
98 127 m 0xc0
 135 127 161 99 161 64 c 0
 161 40 154 19 135 -15 c 2
 47 -166 l 1
 -20 -166 l 1
 45 2 l 1
 32 13 24 30 24 51 c 0
 24 92 57 127 98 127 c 0xc0
EndSplineSet
EndChar

StartChar: less
Encoding: 60 60 1103
Width: 496
Flags: MW
HStem: 115 436<393 452>
VStem: 53 427<286 472>
LayerCount: 2
Fore
SplineSet
480 472 m 1
 132 331 l 1
 436 189 l 1
 393 115 l 1
 53 286 l 1
 66 380 l 1
 452 551 l 1
 480 472 l 1
EndSplineSet
Substitution2: "'onum' Oldstyle Figures lookup 22 subtable" less.osf
Substitution2: "'tnum' Tabular Numbers lookup 21 subtable" less.tf
AlternateSubs2: "'aalt' Access All Alternates lookup 1 subtable" less.tf less.osf
EndChar
StartChar: equal
Encoding: 61 61 2253
Width: 495
GlyphClass: 2
Flags: MW
HStem: 196 77<52 435 63 424> 389 77<79 462 90 451>
VStem: 52 410<196 466>
LayerCount: 2
Back
Fore
SplineSet
79 389 m 1
 90 466 l 1
 462 466 l 1
 451 389 l 1
 79 389 l 1
52 196 m 1
 63 273 l 1
 435 273 l 1
 424 196 l 1
 52 196 l 1
EndSplineSet
Substitution2: "'onum' Oldstyle Figures lookup 26 subtable" equal.osf
Substitution2: "'tnum' Tabular Numbers lookup 25 subtable" equal.tf
Substitution2: "'dnom' Denominators lookup 17 subtable" equal.dnom
Substitution2: "'numr' Numerators lookup 16 subtable" equal.numr
Substitution2: "'sups' Superscript lookup 15 subtable" uni207C
AlternateSubs2: "'aalt' Access All Alternates lookup 1 subtable" uni207C equal.numr equal.dnom equal.tf equal.osf
EndChar
StartChar: greater
Encoding: 62 62 2256
Width: 494
GlyphClass: 2
Flags: MW
HStem: 115 436<62 121>
VStem: 36 425<191 380>
LayerCount: 2
Back
Fore
SplineSet
121 551 m 1
 461 380 l 1
 448 286 l 1
 62 115 l 1
 36 191 l 1
 383 338 l 1
 79 475 l 1
 121 551 l 1
EndSplineSet
Substitution2: "'onum' Oldstyle Figures lookup 26 subtable" greater.osf
Substitution2: "'tnum' Tabular Numbers lookup 25 subtable" greater.tf
AlternateSubs2: "'aalt' Access All Alternates lookup 1 subtable" greater.tf greater.osf
EndChar
StartChar: question
Encoding: 63 63 2130
Width: 453
Flags: MW
HStem: -12 21G<156.5 196> -12 139<166.5 196> 625 76<258.5 310.5>
VStem: 113 137<43 72> 130 89<263 333 258 359> 369 95<487 580>
LayerCount: 2
Back
Fore
SplineSet
292 701 m 0xac
 408 701 464 635 464 560 c 0
 464 363 219 404 219 262 c 0
 219 254 219 245 222 233 c 1
 140 219 l 1
 134 234 130 257 130 269 c 0
 130 449 369 416 369 558 c 0
 369 602 337 625 284 625 c 0
 233 625 180 601 133 551 c 1
 76 604 l 1
 141 671 212 701 292 701 c 0xac
187 127 m 0x74
 225 127 250 99 250 64 c 0
 250 22 217 -12 175 -12 c 0
 138 -12 113 16 113 51 c 0
 113 93 146 127 187 127 c 0x74
EndSplineSet
EndChar
StartChar: at
Encoding: 64 64 2378
Width: 1014
GlyphClass: 2
Flags: MW
HStem: -213 76<371.5 511 371.5 513> 9 71<689 771 689 806> 426 66<486.5 567> 625 76<411.5 663>
VStem: 62 92<93 274 93 291.5> 299 88<143 230 143 253> 600 65 862 90<304 442>
LayerCount: 2
Back
Fore
SplineSet
570 701 m 0
 820 701 952 548 952 351 c 0
 952 223 896 9 716 9 c 0
 635 9 605 64 600 110 c 1
 572 60 524 11 447 11 c 0
 353 11 299 80 299 186 c 0
 299 320 365 492 551 492 c 0
 605 492 652 481 702 451 c 1
 665 168 l 2
 660 120 663 80 715 80 c 0
 827 80 862 251 862 357 c 0
 862 527 758 625 568 625 c 0
 255 625 154 365 154 183 c 0
 154 3 270 -137 473 -137 c 0
 549 -137 614 -121 669 -102 c 1
 688 -175 l 1
 619 -198 557 -213 469 -213 c 0
 228 -213 62 -48 62 185 c 0
 62 398 197 701 570 701 c 0
459 78 m 0
 535 78 573 147 584 173 c 1
 619 412 l 1
 600 421 581 426 553 426 c 0
 420 426 387 285 387 175 c 0
 387 111 411 78 459 78 c 0
EndSplineSet
EndChar
StartChar: A
Encoding: 65 65 2
Width: 567
GlyphClass: 2
Flags: MW
HStem: 0 21G<-32 65 -32 -32 427 524 427 427> 173 77<174 388 174 400 141 388> 610 79<332 332> 669 20G<284 403 403 403>
VStem: -32 556<0 0>
AnchorPoint: "Anchor-14" 0 0 basechar 0
AnchorPoint: "Anchor-13" 0 0 basechar 0
AnchorPoint: "Anchor-12" 344 689 basechar 0
AnchorPoint: "Anchor-11" 495 0 basechar 0
AnchorPoint: "Anchor-10" 246 0 basechar 0
LayerCount: 2
Back
Fore
SplineSet
427 0 m 1xd8
 400 173 l 1
 141 173 l 1
 65 0 l 1
 -32 0 l 1
 284 689 l 1
 403 689 l 1
 524 0 l 1
 427 0 l 1xd8
174 250 m 1
 388 250 l 1
 332 610 l 1xe8
 174 250 l 1
EndSplineSet
Substitution2: "Single Substitution lookup 41 subtable" ordfeminine
Substitution2: "'c2sc' Capitals to Small Capitals lookup 27 subtable" a.sc
AlternateSubs2: "'aalt' Access All Alternates lookup 1 subtable" ordfeminine a.sc
Position2: "'cpsp' Capital Spacing lookup 0 subtable" dx=5 dy=0 dh=10 dv=0
EndChar

StartChar: B
Encoding: 66 66 13
Width: 602
GlyphClass: 2
Flags: MW
HStem: 0 76<167 252> 324 73<212 313 313 316 202 313> 614 75<242 242 242 349 349 352>
VStem: 452 98<180.5 261.5> 469 96<489.5 566.5>
LayerCount: 2
Fore
SplineSet
411 364 m 1xf0
 482 351 550 317 550 220 c 0xf0
 550 99 478 0 252 0 c 2
 62 0 l 1
 159 689 l 1
 349 689 l 2
 474 689 565 641 565 537 c 0xe8
 565 438 493 379 411 364 c 1xf0
242 614 m 1
 212 397 l 1
 313 397 l 2
 396 397 469 445 469 534 c 0xe8
 469 599 414 614 352 614 c 2
 242 614 l 1
256 76 m 2xf0
 411 76 452 139 452 222 c 0
 452 301 391 324 316 324 c 2
 202 324 l 1
 167 76 l 1
 256 76 l 2xf0
EndSplineSet
Substitution2: "'c2sc' Capitals to Small Capitals lookup 23 subtable" b.sc
Substitution2: "'aalt' Access All Alternates lookup 0 subtable" b.sc
Position2: "'cpsp' Capital Spacing lookup 0 subtable" dx=5 dy=0 dh=10 dv=0
EndChar
StartChar: C
Encoding: 67 67 42
Width: 555
GlyphClass: 2
Flags: MW
HStem: -12 80<268 345.5 268 351> 623 78<308.5 421.5>
VStem: 61 99<191 337.5 191 360>
AnchorPoint: "Anchor-14" 0 0 basechar 0
AnchorPoint: "Anchor-13" 0 0 basechar 0
AnchorPoint: "Anchor-12" 405 689 basechar 0
AnchorPoint: "Anchor-11" 0 0 basechar 0
AnchorPoint: "Anchor-10" 307 0 basechar 0
LayerCount: 2
Back
Fore
SplineSet
394 701 m 0
 474 701 531 675 579 630 c 1
 523 575 l 1
 484 609 445 623 398 623 c 0
 219 623 160 415 160 260 c 0
 160 122 224 68 312 68 c 0
 379 68 425 99 467 128 c 1
 509 63 l 1
 464 25 396 -12 306 -12 c 0
 159 -12 61 86 61 268 c 0
 61 452 155 701 394 701 c 0
EndSplineSet
Substitution2: "'c2sc' Capitals to Small Capitals lookup 27 subtable" c.sc
Substitution2: "'aalt' Access All Alternates lookup 0 subtable" c.sc
Position2: "'cpsp' Capital Spacing lookup 0 subtable" dx=5 dy=0 dh=10 dv=0
EndChar

StartChar: F
Encoding: 70 70 34
Width: 485
GlyphClass: 2
Flags: MW
HStem: 0 21G<62 156 62 62> 303 75<209 422 199 432> 613 76<242 500 242 242>
VStem: 62 459
LayerCount: 2
Fore
SplineSet
500 613 m 1
 242 613 l 1
 209 378 l 1
 432 378 l 1
 422 303 l 1
 199 303 l 1
 156 0 l 1
 62 0 l 1
 159 689 l 1
 521 689 l 1
 500 613 l 1
EndSplineSet
Substitution2: "'c2sc' Capitals to Small Capitals lookup 23 subtable" f.sc
Substitution2: "'aalt' Access All Alternates lookup 0 subtable" f.sc
Position2: "'cpsp' Capital Spacing lookup 0 subtable" dx=5 dy=0 dh=10 dv=0
EndChar

StartChar: I
Encoding: 73 73 43
Width: 294
GlyphClass: 2
Flags: MW
HStem: 0 21G<62 158 62 62> 669 20G<159 255 255 255>
VStem: 62 193
AnchorPoint: "Anchor-11" 0 0 basechar 0
AnchorPoint: "Anchor-10" 50 534 basechar 0
AnchorPoint: "Anchor-9" 207 689 basechar 0
AnchorPoint: "Anchor-8" 167 0 basechar 0
LayerCount: 2
Fore
SplineSet
158 0 m 1
 62 0 l 1
 159 689 l 1
 255 689 l 1
 158 0 l 1
EndSplineSet
Substitution2: "'c2sc' Capitals to Small Capitals lookup 23 subtable" i.sc
Substitution2: "'aalt' Access All Alternates lookup 0 subtable" i.sc
Position2: "'cpsp' Capital Spacing lookup 0 subtable" dx=5 dy=0 dh=10 dv=0
EndChar
StartChar: J
Encoding: 74 74 134
Width: 300
GlyphClass: 2
Flags: MW
HStem: 669 20G<172 266 266 266>
VStem: -45 311
AnchorPoint: "Anchor-14" 0 0 basechar 0
AnchorPoint: "Anchor-13" 0 0 basechar 0
AnchorPoint: "Anchor-12" 219 689 basechar 0
AnchorPoint: "Anchor-11" 0 0 basechar 0
AnchorPoint: "Anchor-10" 0 0 basechar 0
LayerCount: 2
Back
Fore
SplineSet
266 689 m 1
 182 93 l 2
 162 -51 88 -103 -26 -138 c 1
 -45 -67 l 1
 50 -31 77 11 89 103 c 2
 172 689 l 1
 266 689 l 1
EndSplineSet
Substitution2: "'c2sc' Capitals to Small Capitals lookup 27 subtable" j.sc
Substitution2: "'aalt' Access All Alternates lookup 0 subtable" j.sc
Position2: "'cpsp' Capital Spacing lookup 0 subtable" dx=5 dy=0 dh=10 dv=0
EndChar
StartChar: K
Encoding: 75 75 137
Width: 583
GlyphClass: 2
Flags: MW
HStem: 0 21G<62 157 62 62 434 434 434 546> 669 20G<159 254 254 254 515 626 626 626>
VStem: 62 564
AnchorPoint: "Anchor-14" 0 0 basechar 0
AnchorPoint: "Anchor-13" 0 0 basechar 0
AnchorPoint: "Anchor-12" 385 689 basechar 0
AnchorPoint: "Anchor-11" 0 0 basechar 0
AnchorPoint: "Anchor-10" 275 0 basechar 0
LayerCount: 2
Back
Fore
SplineSet
254 689 m 1
 157 0 l 1
 62 0 l 1
 159 689 l 1
 254 689 l 1
626 689 m 1
 319 365 l 1
 546 0 l 1
 434 0 l 1
 213 368 l 1
 515 689 l 1
 626 689 l 1
EndSplineSet
Substitution2: "'c2sc' Capitals to Small Capitals lookup 27 subtable" k.sc
Substitution2: "'aalt' Access All Alternates lookup 0 subtable" k.sc
Position2: "'cpsp' Capital Spacing lookup 0 subtable" dx=5 dy=0 dh=10 dv=0
EndChar
StartChar: L
Encoding: 76 76 141
Width: 492
GlyphClass: 2
Flags: MW
HStem: 0 83<168 426> 669 20G<159 253 253 253>
VStem: 62 386<0 83>
AnchorPoint: "Anchor-14" 404 390 basechar 0
AnchorPoint: "Anchor-13" 278 689 basechar 0
AnchorPoint: "Anchor-12" 206 689 basechar 0
AnchorPoint: "Anchor-11" 0 0 basechar 0
AnchorPoint: "Anchor-10" 244 0 basechar 0
LayerCount: 2
Back
Fore
SplineSet
253 689 m 1
 168 83 l 1
 448 83 l 1
 426 0 l 1
 62 0 l 1
 159 689 l 1
 253 689 l 1
EndSplineSet
Substitution2: "'c2sc' Capitals to Small Capitals lookup 27 subtable" l.sc
Substitution2: "'aalt' Access All Alternates lookup 0 subtable" l.sc
Position2: "'cpsp' Capital Spacing lookup 0 subtable" dx=5 dy=0 dh=10 dv=0
EndChar

StartChar: M
Encoding: 77 77 64
Width: 790
GlyphClass: 2
Flags: MW
HStem: 0 21G<25 115 25 25 582 673 582 582> 591 98<623 623> 669 20G<179 298 298 298 580 713 713 713>
VStem: 25 688
LayerCount: 2
Fore
SplineSet
673 0 m 1xb0
 582 0 l 1
 602 314 l 2
 608 422 616 528 623 591 c 1
 405 78 l 1
 315 78 l 1
 232 590 l 1xd0
 223 514 201 402 179 301 c 2
 115 0 l 1
 25 0 l 1
 179 689 l 1
 298 689 l 1
 376 190 l 1
 580 689 l 1
 713 689 l 1
 673 0 l 1xb0
EndSplineSet
Substitution2: "'c2sc' Capitals to Small Capitals lookup 23 subtable" m.sc
Substitution2: "'aalt' Access All Alternates lookup 0 subtable" m.sc
Position2: "'cpsp' Capital Spacing lookup 0 subtable" dx=5 dy=0 dh=10 dv=0
EndChar
StartChar: N
Encoding: 78 78 156
Width: 677
GlyphClass: 2
Flags: MW
HStem: 0 21G<62 151 62 62 418 541 418 418> 0 81<481 481 481 541 418 481> 607 82<221 221> 669 20G<159 283 283 283 549 638 638 638>
VStem: 62 576
AnchorPoint: "Anchor-14" 0 0 basechar 0
AnchorPoint: "Anchor-13" 0 0 basechar 0
AnchorPoint: "Anchor-12" 410 689 basechar 0
AnchorPoint: "Anchor-11" 0 0 basechar 0
AnchorPoint: "Anchor-10" 303 0 basechar 0
LayerCount: 2
Back
Fore
SplineSet
638 689 m 1x98
 541 0 l 1
 418 0 l 1
 221 607 l 1xa8
 220 523 213 441 195 313 c 2
 151 0 l 1
 62 0 l 1
 159 689 l 1
 283 689 l 1
 481 81 l 1x58
 481 172 485 232 496 316 c 2
 549 689 l 1
 638 689 l 1x98
EndSplineSet
Substitution2: "'c2sc' Capitals to Small Capitals lookup 27 subtable" n.sc
Substitution2: "'aalt' Access All Alternates lookup 0 subtable" n.sc
Position2: "'cpsp' Capital Spacing lookup 0 subtable" dx=5 dy=0 dh=10 dv=0
EndChar
StartChar: O
Encoding: 79 79 170
Width: 686
GlyphClass: 2
Flags: MW
HStem: -12 78<265 405.5 265 435> 623 78<304.5 446>
VStem: 61 98<191 332.5 191 353> 550 98<358 497>
AnchorPoint: "Anchor-14" 0 0 basechar 0
AnchorPoint: "Anchor-13" 603 689 basechar 0
AnchorPoint: "Anchor-12" 407 689 basechar 0
AnchorPoint: "Anchor-11" 0 0 basechar 0
AnchorPoint: "Anchor-10" 303 0 basechar 0
LayerCount: 2
Back
Fore
SplineSet
402 701 m 0
 552 701 648 603 648 421 c 0
 648 239 562 -12 308 -12 c 0
 158 -12 61 85 61 265 c 0
 61 441 147 701 402 701 c 0
398 623 m 0
 211 623 159 403 159 262 c 0
 159 120 219 66 311 66 c 0
 500 66 550 288 550 428 c 0
 550 566 494 623 398 623 c 0
EndSplineSet
Substitution2: "Single Substitution lookup 41 subtable" ordmasculine
Substitution2: "'c2sc' Capitals to Small Capitals lookup 27 subtable" o.sc
AlternateSubs2: "'aalt' Access All Alternates lookup 1 subtable" ordmasculine o.sc
Position2: "'cpsp' Capital Spacing lookup 0 subtable" dx=5 dy=0 dh=10 dv=0
EndChar

StartChar: Q
Encoding: 81 81 85
Width: 683
GlyphClass: 2
Flags: MW
HStem: -12 49 -12 78<265 370> 623 78<304.5 446>
VStem: 61 98<187.5 329 187.5 353> 550 98<363 502>
LayerCount: 2
Fore
SplineSet
648 421 m 0x78
 648 281 597 100 452 37 c 1
 526 35 578 7 622 -26 c 1xb8
 552 -103 l 1
 485 -33 432 -12 308 -12 c 0
 158 -12 61 85 61 265 c 0
 61 441 147 701 402 701 c 0
 552 701 648 603 648 421 c 0x78
159 255 m 0
 159 120 219 66 311 66 c 0
 500 66 550 288 550 438 c 0
 550 566 494 623 398 623 c 0
 211 623 159 403 159 255 c 0
EndSplineSet
Substitution2: "'c2sc' Capitals to Small Capitals lookup 23 subtable" q.sc
Substitution2: "'aalt' Access All Alternates lookup 0 subtable" q.sc
Position2: "'cpsp' Capital Spacing lookup 0 subtable" dx=5 dy=0 dh=10 dv=0
EndChar
StartChar: R
Encoding: 82 82 218
Width: 599
GlyphClass: 2
Flags: MW
HStem: 0 21G<62 156 62 62 433 537 433 433> 292 73<207 306 197 308> 615 74<242 242 242 331>
VStem: 473 99<483.5 553>
AnchorPoint: "Anchor-14" 0 0 basechar 0
AnchorPoint: "Anchor-13" 0 0 basechar 0
AnchorPoint: "Anchor-12" 356 689 basechar 0
AnchorPoint: "Anchor-11" 0 0 basechar 0
AnchorPoint: "Anchor-10" 269 0 basechar 0
LayerCount: 2
Back
Fore
SplineSet
572 518 m 0
 572 434 528 343 398 306 c 1
 537 0 l 1
 433 0 l 1
 306 292 l 1
 197 292 l 1
 156 0 l 1
 62 0 l 1
 159 689 l 1
 336 689 l 2
 494 689 572 632 572 518 c 0
242 615 m 1
 207 365 l 1
 308 365 l 2
 438 365 473 449 473 518 c 0
 473 588 429 615 331 615 c 2
 242 615 l 1
EndSplineSet
Substitution2: "'c2sc' Capitals to Small Capitals lookup 27 subtable" r.sc
Substitution2: "'aalt' Access All Alternates lookup 0 subtable" r.sc
Position2: "'cpsp' Capital Spacing lookup 0 subtable" dx=5 dy=0 dh=10 dv=0
EndChar
StartChar: T
Encoding: 84 84 238
Width: 511
GlyphClass: 2
Flags: MW
HStem: 0 21G<171 265 171 171> 608 81<74 256 62 562 350 540 350 350>
VStem: 62 500<608 689>
AnchorPoint: "Anchor-14" 267 345 basechar 0
AnchorPoint: "Anchor-13" 0 0 basechar 0
AnchorPoint: "Anchor-12" 314 689 basechar 0
AnchorPoint: "Anchor-11" 0 0 basechar 0
AnchorPoint: "Anchor-10" 219 0 basechar 0
LayerCount: 2
Back
Fore
SplineSet
562 689 m 1
 540 608 l 1
 350 608 l 1
 265 0 l 1
 171 0 l 1
 256 608 l 1
 62 608 l 1
 74 689 l 1
 562 689 l 1
EndSplineSet
Substitution2: "'c2sc' Capitals to Small Capitals lookup 27 subtable" t.sc
Substitution2: "'aalt' Access All Alternates lookup 0 subtable" t.sc
Position2: "'cpsp' Capital Spacing lookup 0 subtable" dx=5 dy=0 dh=10 dv=0
EndChar

StartChar: V
Encoding: 86 86 112
Width: 550
GlyphClass: 2
Flags: MW
HStem: 0 21G<188 289 188 188> 0 103<251 251 251 289 188 251> 669 20G<65 163 163 163 506 604 604 604>
VStem: 65 539<689 689>
LayerCount: 2
Fore
SplineSet
289 0 m 1xb0
 188 0 l 1
 65 689 l 1
 163 689 l 1
 251 103 l 1x70
 506 689 l 1
 604 689 l 1
 289 0 l 1xb0
EndSplineSet
Substitution2: "'c2sc' Capitals to Small Capitals lookup 23 subtable" v.sc
Substitution2: "'aalt' Access All Alternates lookup 0 subtable" v.sc
Position2: "'cpsp' Capital Spacing lookup 0 subtable" dx=5 dy=0 dh=10 dv=0
EndChar
StartChar: W
Encoding: 87 87 285
Width: 820
GlyphClass: 2
Flags: MW
HStem: 0 83<200 200 200 246 128 200> 577 112<454 454> 669 20G<86 176 176 176 417 519 519 519 768 855 855 855>
VStem: 86 769<689 689>
AnchorPoint: "Anchor-14" 0 0 basechar 0
AnchorPoint: "Anchor-13" 0 0 basechar 0
AnchorPoint: "Anchor-12" 470 689 basechar 0
AnchorPoint: "Anchor-11" 0 0 basechar 0
AnchorPoint: "Anchor-10" 0 0 basechar 0
LayerCount: 2
Back
Fore
SplineSet
855 689 m 1xb0
 619 0 l 1
 498 0 l 1
 454 577 l 1xd0
 246 0 l 1
 128 0 l 1
 86 689 l 1
 176 689 l 1
 200 83 l 1
 417 689 l 1
 519 689 l 1
 568 83 l 1
 768 689 l 1
 855 689 l 1xb0
EndSplineSet
Substitution2: "'c2sc' Capitals to Small Capitals lookup 27 subtable" w.sc
Substitution2: "'aalt' Access All Alternates lookup 0 subtable" w.sc
Position2: "'cpsp' Capital Spacing lookup 0 subtable" dx=5 dy=0 dh=10 dv=0
EndChar

StartChar: X
Encoding: 88 88 118
Width: 534
GlyphClass: 2
Flags: MW
HStem: 0 21G<-33 72 -33 -33 389 492 389 389> 669 20G<83 186 186 186 463 567 567 567>
VStem: -33 600
LayerCount: 2
Fore
SplineSet
336 370 m 1
 492 0 l 1
 389 0 l 1
 276 305 l 1
 72 0 l 1
 -33 0 l 1
 223 367 l 1
 225 369 l 1
 83 689 l 1
 186 689 l 1
 285 430 l 1
 463 689 l 1
 567 689 l 1
 338 372 l 1
 336 370 l 1
EndSplineSet
Substitution2: "'c2sc' Capitals to Small Capitals lookup 23 subtable" x.sc
Substitution2: "'aalt' Access All Alternates lookup 0 subtable" x.sc
Position2: "'cpsp' Capital Spacing lookup 0 subtable" dx=5 dy=0 dh=10 dv=0
EndChar

StartChar: Z
Encoding: 90 90 124
Width: 516
GlyphClass: 2
Flags: MW
HStem: 0 80.5 609 80<125 416 114 532>
VStem: -8 540
AnchorPoint: "Anchor-11" 0 0 basechar 0
AnchorPoint: "Anchor-10" 0 0 basechar 0
AnchorPoint: "Anchor-9" 329 689 basechar 0
AnchorPoint: "Anchor-8" 0 0 basechar 0
LayerCount: 2
Fore
SplineSet
522 612 m 1
 111 80 l 1
 446 81 l 1
 424 0 l 1
 -8 0 l 1
 2 76 l 1
 416 609 l 1
 114 609 l 1
 125 689 l 1
 532 689 l 1
 522 612 l 1
EndSplineSet
Substitution2: "'c2sc' Capitals to Small Capitals lookup 23 subtable" z.sc
Substitution2: "'aalt' Access All Alternates lookup 0 subtable" z.sc
Position2: "'cpsp' Capital Spacing lookup 0 subtable" dx=5 dy=0 dh=10 dv=0
EndChar
StartChar: bracketleft
Encoding: 91 91 2148
Width: 316
Flags: MW
HStem: -116 76<106 215> 739 77<216 335 216 216>
VStem: 10 336
LayerCount: 2
Back
Fore
SplineSet
346 816 m 1
 335 739 l 1
 216 739 l 1
 106 -40 l 1
 225 -40 l 1
 215 -116 l 1
 10 -116 l 1
 141 816 l 1
 346 816 l 1
EndSplineSet
Substitution2: "'case' Case-Sensitive Forms lookup 29 subtable" bracketleft.case
Substitution2: "'aalt' Access All Alternates lookup 0 subtable" bracketleft.case
EndChar

StartChar: backslash
Encoding: 92 92 981
Width: 514
Flags: MW
HStem: -104 909<255 282>
VStem: 179 181
LayerCount: 2
Fore
SplineSet
360 -87 m 1
 282 -104 l 1
 179 789 l 1
 255 805 l 1
 360 -87 l 1
EndSplineSet
EndChar

StartChar: bracketright
Encoding: 93 93 1008
Width: 317
Flags: MW
HStem: -116 76<5 124 5 200 -5 124> 739 77<126 234 115 331>
VStem: -5 336
LayerCount: 2
Fore
SplineSet
200 -116 m 1
 -5 -116 l 1
 5 -40 l 1
 124 -40 l 1
 234 739 l 1
 115 739 l 1
 126 816 l 1
 331 816 l 1
 200 -116 l 1
EndSplineSet
Substitution2: "'case' Case-Sensitive Forms lookup 25 subtable" bracketright.case
Substitution2: "'aalt' Access All Alternates lookup 0 subtable" bracketright.case
EndChar

StartChar: asciicircum
Encoding: 94 94 1230
Width: 534
Flags: MW
HStem: 527 313<75 388 75 388 307 531 307 435>
VStem: 75 456<527 527>
LayerCount: 2
Fore
SplineSet
531 527 m 1
 435 527 l 1
 338 760 l 1
 173 527 l 1
 75 527 l 1
 307 840 l 1
 388 840 l 1
 531 527 l 1
EndSplineSet
EndChar
StartChar: underscore
Encoding: 95 95 2137
Width: 514
Flags: MW
HStem: -142 79<-41 452 -30 441>
VStem: -41 493<-142 -63>
LayerCount: 2
Back
Fore
SplineSet
-41 -142 m 1
 -30 -63 l 1
 452 -63 l 1
 441 -142 l 1
 -41 -142 l 1
EndSplineSet
EndChar
StartChar: grave
Encoding: 96 96 2524
Width: 294
Flags: MW
HStem: 638 163<144 292>
VStem: 93 232<687 724>
LayerCount: 2
Back
Fore
SplineSet
144 801 m 1
 325 687 l 1
 292 638 l 1
 93 724 l 1
 144 801 l 1
EndSplineSet
Substitution2: "'case' Case-Sensitive Forms lookup 29 subtable" grave.case
Substitution2: "'smcp' Lowercase to Small Capitals lookup 28 subtable" grave.sc
Substitution2: "'c2sc' Capitals to Small Capitals lookup 27 subtable" grave.sc
AlternateSubs2: "'aalt' Access All Alternates lookup 1 subtable" grave.sc grave.case
EndChar

StartChar: b
Encoding: 98 98 146
Width: 579
GlyphClass: 2
Flags: MW
HStem: -12 73<234.5 318.5 234.5 350> 466 73<339 366.5> 730 20G<253 253>
VStem: 433 95<280 386>
LayerCount: 2
Fore
SplineSet
215 475 m 1
 262 516 310 539 368 539 c 0
 468 539 528 465 528 332 c 0
 528 184 454 -12 246 -12 c 0
 186 -12 136 -2 60 23 c 1
 161 739 l 1
 253 750 l 1
 215 475 l 1
339 466 m 0
 284 466 241 430 203 390 c 1
 160 77 l 1
 193 65 216 61 253 61 c 0
 384 61 433 221 433 339 c 0
 433 433 394 466 339 466 c 0
EndSplineSet
Substitution2: "'smcp' Lowercase to Small Capitals lookup 24 subtable" b.sc
Substitution2: "'aalt' Access All Alternates lookup 0 subtable" b.sc
EndChar

StartChar: d
Encoding: 100 100 153
Width: 593
GlyphClass: 2
Flags: MW
HStem: -12 73<214.5 258> 0 21G<382 462 382 382> 466 73<255 333 212 343.5> 719 20G<566 566> 730 20G<476 476>
VStem: 57 97<145.5 242.5 145.5 265>
LayerCount: 2
Fore
SplineSet
566 739 m 1xb4
 462 0 l 1
 382 0 l 1x6c
 383 87 l 1
 346 26 292 -12 224 -12 c 0
 115 -12 57 70 57 197 c 0
 57 333 122 539 302 539 c 0
 364 539 408 510 437 473 c 1
 476 750 l 1xac
 566 739 l 1xb4
319 466 m 0
 191 466 154 295 154 190 c 0
 154 101 187 61 242 61 c 0xac
 307 61 350 109 396 183 c 1
 427 402 l 1
 401 443 368 466 319 466 c 0
EndSplineSet
Substitution2: "'smcp' Lowercase to Small Capitals lookup 24 subtable" d.sc
Substitution2: "'aalt' Access All Alternates lookup 0 subtable" d.sc
EndChar
StartChar: e
Encoding: 101 101 409
Width: 522
GlyphClass: 2
Flags: MW
HStem: -12 77<228.5 286.5 228.5 288> 466 73<267 350.5>
VStem: 52 96 394 96<357 414.5>
AnchorPoint: "Anchor-14" 0 0 basechar 0
AnchorPoint: "Anchor-13" 0 0 basechar 0
AnchorPoint: "Anchor-12" 314 527 basechar 0
AnchorPoint: "Anchor-11" 360 6 basechar 0
AnchorPoint: "Anchor-10" 254 0 basechar 0
LayerCount: 2
Back
Fore
SplineSet
490 405 m 0
 490 257 332 216 148 196 c 1
 150 100 195 65 262 65 c 0
 311 65 355 80 403 114 c 1
 442 52 l 1
 385 11 323 -12 253 -12 c 0
 124 -12 52 69 52 202 c 0
 52 346 123 539 323 539 c 0
 435 539 490 475 490 405 c 0
153 266 m 1
 304 283 394 312 394 402 c 0
 394 427 379 466 322 466 c 0
 212 466 166 362 153 266 c 1
EndSplineSet
Substitution2: "'smcp' Lowercase to Small Capitals lookup 28 subtable" e.sc
Substitution2: "'aalt' Access All Alternates lookup 0 subtable" e.sc
EndChar

StartChar: g
Encoding: 103 103 168
Width: 576
GlyphClass: 2
Flags: MW
HStem: -216 79<174.5 236 173.5 268> 0 73<209 247> 466 73<267 352.5>
VStem: 48 98<153.5 261 153.5 276.5>
AnchorPoint: "Anchor-11" 0 0 basechar 0
AnchorPoint: "Anchor-10" 0 0 basechar 0
AnchorPoint: "Anchor-9" 327 527 basechar 0
AnchorPoint: "Anchor-8" 0 0 basechar 0
LayerCount: 2
Fore
SplineSet
332 539 m 0
 395 539 450 528 520 494 c 1
 447 12 l 2
 422 -158 330 -216 206 -216 c 0
 143 -216 74 -196 24 -165 c 1
 59 -95 l 1
 91 -114 146 -137 201 -137 c 0
 271 -137 340 -116 358 13 c 2
 367 80 l 1
 328 33 275 0 219 0 c 0
 109 0 48 78 48 198 c 0
 48 355 127 539 332 539 c 0
334 466 m 0
 200 466 146 325 146 197 c 0
 146 110 182 73 236 73 c 0
 294 73 339 117 380 172 c 1
 423 449 l 1
 393 462 371 466 334 466 c 0
EndSplineSet
Substitution2: "'smcp' Lowercase to Small Capitals lookup 24 subtable" g.sc
Substitution2: "'aalt' Access All Alternates lookup 0 subtable" g.sc
EndChar

StartChar: h
Encoding: 104 104 173
Width: 580
GlyphClass: 2
Flags: MW
HStem: 0 21G<57 148 57 57 363 454 363 363> 462 77<349 373.5> 728 20G<253 253>
VStem: 417.28 92.1
AnchorPoint: "Anchor-11" 253 0 basechar 0
AnchorPoint: "Anchor-10" 0 0 basechar 0
AnchorPoint: "Anchor-9" 356 739 basechar 0
AnchorPoint: "Anchor-8" 0 0 basechar 0
LayerCount: 2
Fore
SplineSet
384 539 m 0
 473 539 521 475 507 375 c 2
 454 0 l 1
 363 0 l 1
 415 368 l 2
 426 447 397 462 350 462 c 0
 292 462 233 391 191 316 c 1
 148 0 l 1
 57 0 l 1
 161 738 l 1
 253 748 l 1
 207 428 l 1
 251 494 314 539 384 539 c 0
EndSplineSet
Substitution2: "'smcp' Lowercase to Small Capitals lookup 24 subtable" h.sc
Substitution2: "'aalt' Access All Alternates lookup 0 subtable" h.sc
EndChar

StartChar: j
Encoding: 106 106 188
Width: 275
GlyphClass: 2
Flags: MW
HStem: -213 21G<-49 -49> 507 20G<127 218 218 218> 655 125<186 212.5>
VStem: 136 126
AnchorPoint: "Anchor-11" 0 0 basechar 0
AnchorPoint: "Anchor-10" 0 0 basechar 0
AnchorPoint: "Anchor-9" 173 527 basechar 0
AnchorPoint: "Anchor-8" 0 0 basechar 0
LayerCount: 2
Fore
SplineSet
204 780 m 0
 245 780 267 750 262 712 c 0
 257 679 231 655 194 655 c 0
 154 655 131 685 136 722 c 0
 141 756 168 780 204 780 c 0
148 29 m 2
 127 -120 68 -163 -49 -213 c 1
 -75 -144 l 1
 -3 -112 41 -84 57 29 c 2
 127 527 l 1
 218 527 l 1
 148 29 l 2
EndSplineSet
Substitution2: "'smcp' Lowercase to Small Capitals lookup 24 subtable" j.sc
Substitution2: "'aalt' Access All Alternates lookup 0 subtable" j.sc
EndChar

StartChar: k
Encoding: 107 107 191
Width: 545
GlyphClass: 2
Flags: MW
HStem: 0 21G<57 148 57 57 371 473 371 371> 466 73<356.5 380> 730 20G<253 253>
VStem: 420 97<379.5 427.5>
AnchorPoint: "Anchor-11" 252 0 basechar 0
AnchorPoint: "Anchor-10" 0 0 basechar 0
AnchorPoint: "Anchor-9" 0 0 basechar 0
AnchorPoint: "Anchor-8" 0 0 basechar 0
LayerCount: 2
Fore
SplineSet
209 435 m 1
 259 506 324 539 389 539 c 0
 462 539 517 489 517 423 c 0
 517 336 464 268 354 233 c 1
 473 0 l 1
 371 0 l 1
 245 257 l 1
 369 292 420 336 420 409 c 0
 420 446 398 466 362 466 c 0
 307 466 237 419 192 316 c 1
 148 0 l 1
 57 0 l 1
 161 739 l 1
 253 750 l 1
 209 435 l 1
EndSplineSet
Substitution2: "'smcp' Lowercase to Small Capitals lookup 24 subtable" k.sc
Substitution2: "'aalt' Access All Alternates lookup 0 subtable" k.sc
EndChar
StartChar: l
Encoding: 108 108 511
Width: 288
GlyphClass: 2
Flags: MW
HStem: -12 76<171 175.5> 730 20G<249 249>
VStem: 66.76 91.24
AnchorPoint: "Anchor-14" 311 380 basechar 0
AnchorPoint: "Anchor-13" 257 739 basechar 0
AnchorPoint: "Anchor-12" 202 739 basechar 0
AnchorPoint: "Anchor-11" 0 0 basechar 0
AnchorPoint: "Anchor-10" 159 0 basechar 0
LayerCount: 2
Back
Fore
SplineSet
249 750 m 1
 158 103 l 2
 155 75 160 64 182 64 c 0
 194 64 206 67 218 72 c 1
 237 5 l 1
 210 -7 187 -12 164 -12 c 0
 94 -12 57 31 69 118 c 2
 157 739 l 1
 249 750 l 1
EndSplineSet
Substitution2: "'smcp' Lowercase to Small Capitals lookup 28 subtable" l.sc
Substitution2: "'sups' Superscript lookup 15 subtable" uni02E1
AlternateSubs2: "'aalt' Access All Alternates lookup 1 subtable" uni02E1 l.sc
EndChar
StartChar: o
Encoding: 111 111 551
Width: 578
GlyphClass: 2
Flags: MW
HStem: -12 74<221.5 325.5 221.5 357.5> 465 74<253.5 357>
VStem: 52 96<150 246.5 150 271> 430 96<280.5 377>
AnchorPoint: "Anchor-14" 0 0 basechar 0
AnchorPoint: "Anchor-13" 512 527 basechar 0
AnchorPoint: "Anchor-12" 326 527 basechar 0
AnchorPoint: "Anchor-11" 0 0 basechar 0
AnchorPoint: "Anchor-10" 254 0 basechar 0
LayerCount: 2
Back
Fore
SplineSet
325 539 m 0
 456 539 526 455 526 321 c 0
 526 194 461 -12 254 -12 c 0
 123 -12 52 72 52 206 c 0
 52 336 119 539 325 539 c 0
322 465 m 0
 185 465 148 297 148 196 c 0
 148 104 186 62 257 62 c 0
 394 62 430 230 430 331 c 0
 430 423 392 465 322 465 c 0
EndSplineSet
Substitution2: "Single Substitution lookup 41 subtable" ordmasculine
Substitution2: "'smcp' Lowercase to Small Capitals lookup 28 subtable" o.sc
AlternateSubs2: "'aalt' Access All Alternates lookup 1 subtable" ordmasculine o.sc
EndChar

StartChar: p
Encoding: 112 112 220
Width: 588
GlyphClass: 2
Flags: MW
HStem: -216 21G<27 27> -12 73<234.5 318.5 234.5 351> 466 73<340.5 366.5> 507 20G<131 209 209 209>
VStem: 433 95<280 386>
LayerCount: 2
Fore
SplineSet
368 539 m 0xe8
 468 539 528 465 528 332 c 0
 528 184 454 -12 248 -12 c 0
 212 -12 181 -6 148 5 c 1
 120 -204 l 1
 27 -216 l 1
 131 527 l 1
 209 527 l 1xd8
 207 460 l 1
 263 522 313 539 368 539 c 0xe8
339 466 m 0
 284 466 241 430 203 390 c 1
 160 77 l 1
 193 65 216 61 253 61 c 0
 384 61 433 221 433 339 c 0
 433 433 394 466 339 466 c 0
EndSplineSet
Substitution2: "'smcp' Lowercase to Small Capitals lookup 24 subtable" p.sc
Substitution2: "'aalt' Access All Alternates lookup 0 subtable" p.sc
EndChar

StartChar: q
Encoding: 113 113 222
Width: 575
GlyphClass: 2
Flags: MW
HStem: -216 21G<326 326> -12 73<210.5 249> 466 73<266 351.5>
VStem: 50 98<145 248 145 262>
LayerCount: 2
Fore
SplineSet
331 539 m 0
 394 539 449 528 519 494 c 1
 420 -205 l 1
 326 -216 l 1
 367 65 l 1
 334 23 280 -12 218 -12 c 0
 108 -12 50 69 50 190 c 0
 50 334 126 539 331 539 c 0
333 466 m 0
 199 466 148 307 148 189 c 0
 148 101 181 61 240 61 c 0
 296 61 337 103 378 158 c 1
 422 449 l 1
 392 462 370 466 333 466 c 0
EndSplineSet
Substitution2: "'smcp' Lowercase to Small Capitals lookup 24 subtable" q.sc
Substitution2: "'aalt' Access All Alternates lookup 0 subtable" q.sc
EndChar

StartChar: r
Encoding: 114 114 223
Width: 381
GlyphClass: 2
Flags: MW
HStem: 0 21G<57 148 57 57> 448 91<327 347.5> 507 20G<131 209 209 209> 532 7
VStem: 57 352
AnchorPoint: "Anchor-11" 103 0 basechar 0
AnchorPoint: "Anchor-10" 0 0 basechar 0
AnchorPoint: "Anchor-9" 273 527 basechar 0
AnchorPoint: "Anchor-8" 0 0 basechar 0
LayerCount: 2
Fore
SplineSet
356 539 m 0xc8
 375 539 393 536 409 532 c 1x98
 382 443 l 1
 367 447 356 448 339 448 c 0xc8
 271 448 225 386 188 279 c 1
 148 0 l 1
 57 0 l 1
 131 527 l 1
 209 527 l 1xa8
 203 419 l 1
 243 501 298 539 356 539 c 0xc8
EndSplineSet
Substitution2: "'smcp' Lowercase to Small Capitals lookup 24 subtable" r.sc
Substitution2: "'aalt' Access All Alternates lookup 0 subtable" r.sc
EndChar
StartChar: v
Encoding: 118 118 686
Width: 486
GlyphClass: 2
Flags: MW
HStem: 0 21G<153 262 153 153> 0 83<218 218 218 262 153 218> 507 20G<47 146 146 146 414 514 514 514>
VStem: 47 467<527 527>
AnchorPoint: "Anchor-14" 0 0 basechar 0
AnchorPoint: "Anchor-13" 0 0 basechar 0
AnchorPoint: "Anchor-12" 280 527 basechar 0
AnchorPoint: "Anchor-11" 0 0 basechar 0
AnchorPoint: "Anchor-10" 208 0 basechar 0
LayerCount: 2
Back
Fore
SplineSet
514 527 m 1xb0
 262 0 l 1
 153 0 l 1
 47 527 l 1
 146 527 l 1
 218 83 l 1x70
 414 527 l 1
 514 527 l 1xb0
EndSplineSet
Substitution2: "'smcp' Lowercase to Small Capitals lookup 28 subtable" v.sc
Substitution2: "'aalt' Access All Alternates lookup 0 subtable" v.sc
EndChar
StartChar: x
Encoding: 120 120 698
Width: 480
GlyphClass: 2
Flags: MW
HStem: 0 21G<-32 72 -32 -32 335 438 335 335> 507 20G<64 166 166 166 388 493 493 493>
VStem: -32 525
AnchorPoint: "Anchor-14" 0 0 basechar 0
AnchorPoint: "Anchor-13" 0 0 basechar 0
AnchorPoint: "Anchor-12" 277 527 basechar 0
AnchorPoint: "Anchor-11" 0 0 basechar 0
AnchorPoint: "Anchor-10" 204 0 basechar 0
LayerCount: 2
Back
Fore
SplineSet
493 527 m 1
 297 275 l 1
 438 0 l 1
 335 0 l 1
 235 222 l 1
 72 0 l 1
 -32 0 l 1
 189 283 l 1
 64 527 l 1
 166 527 l 1
 250 334 l 1
 388 527 l 1
 493 527 l 1
EndSplineSet
Substitution2: "'smcp' Lowercase to Small Capitals lookup 28 subtable" x.sc
Substitution2: "'sups' Superscript lookup 15 subtable" uni02E3
AlternateSubs2: "'aalt' Access All Alternates lookup 1 subtable" uni02E3 x.sc
EndChar
StartChar: z
Encoding: 122 122 712
Width: 431
GlyphClass: 2
Flags: MW
HStem: 0 77<109 355> 449 78<84 313 73 436>
VStem: -13 449
AnchorPoint: "Anchor-14" 0 0 basechar 0
AnchorPoint: "Anchor-13" 0 0 basechar 0
AnchorPoint: "Anchor-12" 260 527 basechar 0
AnchorPoint: "Anchor-11" 0 0 basechar 0
AnchorPoint: "Anchor-10" 171 0 basechar 0
LayerCount: 2
Back
Fore
SplineSet
436 527 m 1
 427 457 l 1
 109 77 l 1
 376 77 l 1
 355 0 l 1
 -13 0 l 1
 -4 69 l 1
 313 449 l 1
 73 449 l 1
 84 527 l 1
 436 527 l 1
EndSplineSet
Substitution2: "'smcp' Lowercase to Small Capitals lookup 28 subtable" z.sc
Substitution2: "'aalt' Access All Alternates lookup 0 subtable" z.sc
EndChar
StartChar: braceleft
Encoding: 123 123 2146
Width: 316
Flags: MW
HStem: -136 71<191.5 219> 311 76<38 56> 765 71<311.5 345>
VStem: 55.72 86.28 89 89.05
LayerCount: 2
Back
Fore
SplineSet
351 836 m 1xe8
 345 765 l 1
 278 765 247 744 240 694 c 2
 206 455 l 2
 196 382 167 364 116 347 c 1
 159 332 186 312 176 239 c 2xe8
 142 0 l 2
 135 -50 158 -65 225 -65 c 1
 219 -136 l 1xf0
 100 -136 43 -89 58 16 c 2
 89 238 l 2
 97 293 85 311 27 311 c 1
 38 387 l 1
 91 387 114 413 122 468 c 2
 153 690 l 2
 168 795 217 836 351 836 c 1xe8
EndSplineSet
Substitution2: "'case' Case-Sensitive Forms lookup 29 subtable" braceleft.case
Substitution2: "'aalt' Access All Alternates lookup 0 subtable" braceleft.case
EndChar

StartChar: bar
Encoding: 124 124 1218
Width: 397
Flags: MW
HStem: -102 909<106 316 106 316>
VStem: 106 210
LayerCount: 2
Fore
SplineSet
189 -102 m 1
 106 -102 l 1
 233 807 l 1
 316 807 l 1
 189 -102 l 1
EndSplineSet
EndChar
StartChar: braceright
Encoding: 125 125 2147
Width: 315
Flags: MW
HStem: -136 71<-5 28.5 -5 56> 313 76<284 302> 765 71<121 148.5>
VStem: 161.93 87.05 198 86.26
LayerCount: 2
Back
Fore
SplineSet
-11 -136 m 1xf0
 -5 -65 l 1
 62 -65 93 -44 100 6 c 2
 134 245 l 2
 144 318 173 336 224 353 c 1
 181 368 154 388 164 461 c 2xf0
 198 700 l 2
 205 750 182 765 115 765 c 1
 121 836 l 1xe8
 240 836 297 789 282 684 c 2
 251 462 l 2
 243 407 255 389 313 389 c 1
 302 313 l 1
 249 313 226 287 218 232 c 2
 187 10 l 2
 172 -95 123 -136 -11 -136 c 1xf0
EndSplineSet
Substitution2: "'case' Case-Sensitive Forms lookup 29 subtable" braceright.case
Substitution2: "'aalt' Access All Alternates lookup 0 subtable" braceright.case
EndChar

StartChar: asciitilde
Encoding: 126 126 1089
Width: 482
Flags: MW
HStem: 250 73<305.5 342.5 305.5 352.5> 312 72<156 193>
VStem: 37 423<289 339>
LayerCount: 2
Fore
SplineSet
183 384 m 0x60
 261 384 286 323 325 323 c 0
 360 323 383 347 402 375 c 1
 460 339 l 1
 433 298 388 250 317 250 c 0xa0
 236 250 211 312 175 312 c 0
 137 312 114 282 95 254 c 1
 37 289 l 1
 63 330 110 384 183 384 c 0x60
EndSplineSet
Substitution2: "'onum' Oldstyle Figures lookup 22 subtable" asciitilde.osf
Substitution2: "'tnum' Tabular Numbers lookup 21 subtable" asciitilde.tf
AlternateSubs2: "'aalt' Access All Alternates lookup 1 subtable" asciitilde.tf asciitilde.osf
EndChar
StartChar: exclamdown
Encoding: 161 161 2127
Width: 235
Flags: MW
HStem: -202 21G<6 107 6 6> 356 139<128.5 158>
VStem: 75 137<411 440>
LayerCount: 2
Back
Fore
SplineSet
149 495 m 0
 187 495 212 467 212 432 c 0
 212 390 179 356 137 356 c 0
 100 356 75 384 75 419 c 0
 75 461 108 495 149 495 c 0
160 247 m 1
 107 -202 l 1
 6 -202 l 1
 79 247 l 1
 160 247 l 1
EndSplineSet
Substitution2: "'case' Case-Sensitive Forms lookup 29 subtable" exclamdown.case
Substitution2: "'aalt' Access All Alternates lookup 0 subtable" exclamdown.case
EndChar
StartChar: currency
Encoding: 164 164 2205
Width: 560
GlyphClass: 2
Flags: MW
HStem: 132 73<256 301.5> 479 70<256 301.5 256 321> 520 20G<29 29 531 531>
VStem: 71 87<318.5 363> 403 89<318 364 318 384.5>
LayerCount: 2
Back
Fore
SplineSet
492 341 m 0xb8
 492 295 479 253 455 218 c 1
 531 143 l 1
 476 88 l 1
 398 164 l 1
 365 144 325 132 278 132 c 0
 234 132 194 145 161 166 c 1
 84 88 l 1
 29 143 l 1
 107 221 l 1
 84 255 71 296 71 341 c 0
 71 385 84 426 106 460 c 1
 29 540 l 1
 84 595 l 1xb8
 162 515 l 1
 194 537 234 549 278 549 c 0
 325 549 365 537 398 517 c 1
 476 595 l 1xd8
 531 540 l 1
 455 463 l 1
 479 429 492 387 492 341 c 0xb8
281 205 m 0
 361 205 403 256 403 342 c 0
 403 427 361 479 281 479 c 0xd8
 201 479 158 427 158 342 c 0
 158 256 201 205 281 205 c 0
EndSplineSet
Substitution2: "'onum' Oldstyle Figures lookup 26 subtable" currency.osf
Substitution2: "'tnum' Tabular Numbers lookup 25 subtable" currency.tf
AlternateSubs2: "'aalt' Access All Alternates lookup 1 subtable" currency.tf currency.osf
EndChar

StartChar: yen
Encoding: 165 165 1068
Width: 530
Flags: MW
HStem: 0 194<181 209 71 275 181 181> 133 61<71 200 63 209 302 430> 284 62<93 206 93 222 84 206 348 451>
VStem: 62 521<669 669>
LayerCount: 2
Fore
SplineSet
348 346 m 1x70
 460 346 l 1
 451 284 l 1
 315 284 l 1
 302 194 l 1
 438 194 l 1
 430 133 l 1
 294 133 l 1x70
 275 0 l 1
 181 0 l 1xb0
 200 133 l 1
 63 133 l 1
 71 194 l 1
 209 194 l 1
 222 284 l 1
 84 284 l 1
 93 346 l 1
 206 346 l 1
 62 669 l 1
 162 669 l 1
 282 374 l 1
 486 669 l 1
 583 669 l 1
 348 346 l 1x70
EndSplineSet
Substitution2: "'onum' Oldstyle Figures lookup 22 subtable" yen.osf
Substitution2: "'tnum' Tabular Numbers lookup 21 subtable" yen.tf
AlternateSubs2: "'aalt' Access All Alternates lookup 1 subtable" yen.tf yen.osf
EndChar

StartChar: brokenbar
Encoding: 166 166 1219
Width: 397
Flags: MW
HStem: -102 909<106 316 106 316>
VStem: 106 210
LayerCount: 2
Fore
SplineSet
265 443 m 1
 182 443 l 1
 233 807 l 1
 316 807 l 1
 265 443 l 1
189 -102 m 1
 106 -102 l 1
 157 262 l 1
 240 262 l 1
 189 -102 l 1
EndSplineSet
EndChar
StartChar: section
Encoding: 167 167 2383
Width: 527
GlyphClass: 2
Flags: MW
HStem: -71 72<185.5 251 185.5 278> 606 71<287 353>
VStem: 74 90<293 325.5 293 332.5> 130 90<511.5 549.5 511.5 576.5> 319 91<55.5 95 39.5 96> 375 88<278 308>
LayerCount: 2
Back
Fore
SplineSet
325 443 m 0xd4
 417 410 463 363 463 299 c 0xd4
 463 246 431 207 367 169 c 1
 395 145 410 115 410 75 c 0
 410 4 352 -71 204 -71 c 0
 136 -71 79 -49 38 -20 c 1
 78 40 l 1
 118 12 162 1 209 1 c 0
 293 1 319 36 319 75 c 0
 319 117 296 132 212 162 c 0
 121 192 74 236 74 306 c 0xe8
 74 359 108 404 170 439 c 1
 144 462 130 490 130 525 c 0
 130 628 224 677 332 677 c 0
 401 677 455 653 497 621 c 1
 457 566 l 1
 415 593 377 606 329 606 c 0
 245 606 220 568 220 531 c 0
 220 492 243 473 325 443 c 0xd4
314 202 m 1
 359 235 375 265 375 291 c 0
 375 325 354 350 284 378 c 0
 261 386 241 395 223 404 c 1
 177 370 164 339 164 312 c 0
 164 274 184 252 242 230 c 0xe4
 269 221 293 212 314 202 c 1
EndSplineSet
Substitution2: "'onum' Oldstyle Figures lookup 26 subtable" section.osf
Substitution2: "'tnum' Tabular Numbers lookup 25 subtable" section.tf
AlternateSubs2: "'aalt' Access All Alternates lookup 1 subtable" section.tf section.osf
EndChar
StartChar: dieresis
Encoding: 168 168 2522
Width: 379
Flags: MW
HStem: 654 114<137.5 160 345 367.5>
VStem: 93 111 301 111
LayerCount: 2
Back
Fore
SplineSet
153 768 m 0
 187 768 209 740 204 706 c 0
 200 676 175 654 145 654 c 0
 110 654 88 682 93 716 c 0
 97 746 122 768 153 768 c 0
360 768 m 0
 395 768 417 740 412 706 c 0
 408 676 383 654 352 654 c 0
 318 654 296 682 301 716 c 0
 305 746 330 768 360 768 c 0
EndSplineSet
Substitution2: "'case' Case-Sensitive Forms lookup 29 subtable" dieresis.case
Substitution2: "'smcp' Lowercase to Small Capitals lookup 28 subtable" dieresis.sc
Substitution2: "'c2sc' Capitals to Small Capitals lookup 27 subtable" dieresis.sc
AlternateSubs2: "'aalt' Access All Alternates lookup 1 subtable" dieresis.sc dieresis.case
EndChar
StartChar: copyright
Encoding: 169 169 2381
Width: 810
GlyphClass: 2
Flags: MW
HStem: 121 53<333.5 478 333.5 492.5> 245 63<385 429.5 385 436.5> 565 60<386.5 426> 696 52<333.5 478>
VStem: 92 61<362 506.5 362 521> 245 76<391.5 481.5 391.5 497> 658 60<362 506.5>
LayerCount: 2
Back
Fore
SplineSet
406 748 m 0
 579 748 718 608 718 434 c 0
 718 261 579 121 406 121 c 0
 232 121 92 261 92 434 c 0
 92 608 232 748 406 748 c 0
406 696 m 0
 261 696 153 579 153 434 c 0
 153 290 261 174 406 174 c 0
 550 174 658 290 658 434 c 0
 658 579 550 696 406 696 c 0
408 625 m 0
 459 625 492 610 525 585 c 1
 488 536 l 1
 465 556 440 565 412 565 c 0
 361 565 321 528 321 435 c 0
 321 348 358 308 412 308 c 0
 447 308 471 320 496 339 c 1
 528 291 l 1
 500 266 464 245 409 245 c 0
 313 245 245 312 245 435 c 0
 245 559 320 625 408 625 c 0
EndSplineSet
EndChar
StartChar: ordfeminine
Encoding: 170 170 1056
Width: 494
GlyphClass: 2
Flags: MW
HStem: 0 77<28 411 39 400> 271 66<209.5 228.5> 470 55<287 293 293 339> 620 69<276 305>
VStem: 82 92<373 407 373 418> 351 89<573.5 588.5>
LayerCount: 2
Back
Fore
SplineSet
298 689 m 0
 396 689 440 648 440 578 c 0
 440 569 439 560 438 551 c 2
 415 381 l 2
 411 356 413 341 439 332 c 1
 414 272 l 1
 372 276 345 293 335 330 c 1
 300 288 253 271 204 271 c 0
 125 271 82 320 82 385 c 0
 82 451 124 525 287 525 c 2
 346 525 l 1
 349 545 l 2
 351 558 351 564 351 569 c 0
 351 608 329 620 281 620 c 0
 250 620 209 612 165 598 c 1
 148 662 l 1
 203 681 254 689 298 689 c 0
339 470 m 1
 293 470 l 2
 199 470 174 425 174 389 c 0
 174 357 192 337 227 337 c 0
 269 337 302 358 328 394 c 1
 339 470 l 1
28 0 m 1
 39 77 l 1
 411 77 l 1
 400 0 l 1
 28 0 l 1
EndSplineSet
EndChar
StartChar: guillemotleft
Encoding: 171 171 2177
Width: 569
Flags: MW
HStem: 515 20G<259 259 494 494>
VStem: 53 496<255 497>
LayerCount: 2
Back
Fore
SplineSet
259 535 m 1
 314 497 l 1
 150 287 l 1
 255 77 l 1
 198 39 l 1
 53 255 l 1
 60 318 l 1
 259 535 l 1
494 535 m 1
 549 497 l 1
 385 287 l 1
 490 77 l 1
 433 39 l 1
 288 255 l 1
 295 318 l 1
 494 535 l 1
EndSplineSet
Substitution2: "'case' Case-Sensitive Forms lookup 29 subtable" guillemotleft.case
Substitution2: "'aalt' Access All Alternates lookup 0 subtable" guillemotleft.case
EndChar

StartChar: logicalnot
Encoding: 172 172 1105
Width: 494
Flags: MW
HStem: 284 77<75 354 64 447>
VStem: 64 383<284 361>
LayerCount: 2
Fore
SplineSet
416 141 m 1
 334 141 l 1
 354 284 l 1
 64 284 l 1
 75 361 l 1
 447 361 l 1
 416 141 l 1
EndSplineSet
Substitution2: "'onum' Oldstyle Figures lookup 22 subtable" logicalnot.osf
Substitution2: "'tnum' Tabular Numbers lookup 21 subtable" logicalnot.tf
AlternateSubs2: "'aalt' Access All Alternates lookup 1 subtable" logicalnot.tf logicalnot.osf
EndChar

StartChar: softhyphen
Encoding: 173 173 1028
Width: 397
Flags: MW
HStem: 274 78<70 340 59 351>
VStem: 59 292<274 352>
LayerCount: 2
Fore
SplineSet
70 352 m 1
 351 352 l 1
 340 274 l 1
 59 274 l 1
 70 352 l 1
EndSplineSet
Substitution2: "'case' Case-Sensitive Forms lookup 25 subtable" softhyphen.case
Substitution2: "'aalt' Access All Alternates lookup 0 subtable" softhyphen.case
EndChar
StartChar: uni00AD
Encoding: 173 173 2169
Width: 397
Flags: MW
HStem: 274 78<59 351 70 340>
VStem: 59 292<274 352>
LayerCount: 2
Back
Fore
SplineSet
59 274 m 1
 70 352 l 1
 351 352 l 1
 340 274 l 1
 59 274 l 1
EndSplineSet
Substitution2: "'case' Case-Sensitive Forms lookup 29 subtable" uni00AD.case
Substitution2: "'aalt' Access All Alternates lookup 0 subtable" uni00AD.case
EndChar

StartChar: registered
Encoding: 174 174 1224
Width: 641
Flags: MW
HStem: 238 49<262 378 262 391.5> 465 44<285 309 285 315> 591 44<285 306 306 313 285 285> 701 49<262 378>
VStem: 67 55<435.5 550.5 435.5 564> 228 57<359 465 509 591> 369 59<536 565> 519 55<435.5 550.5>
LayerCount: 2
Fore
SplineSet
319 750 m 0
 464 750 574 635 574 493 c 0
 574 351 464 238 319 238 c 0
 178 238 67 351 67 493 c 0
 67 635 178 750 319 750 c 0
319 287 m 0
 437 287 519 378 519 493 c 0
 519 608 437 701 319 701 c 0
 205 701 122 608 122 493 c 0
 122 378 205 287 319 287 c 0
428 551 m 0
 428 511 400 485 363 474 c 1
 437 359 l 1
 370 359 l 1
 309 465 l 1
 285 465 l 1
 285 359 l 1
 228 359 l 1
 228 635 l 1
 306 635 l 2
 388 635 428 607 428 551 c 0
285 509 m 1
 315 509 l 2
 348 509 369 521 369 551 c 0
 369 579 351 591 313 591 c 2
 285 591 l 1
 285 509 l 1
EndSplineSet
EndChar
StartChar: macron
Encoding: 175 175 2526
Width: 327
Flags: MW
HStem: 667 69<94 356 85 365>
VStem: 85 280<667 736>
LayerCount: 2
Back
Fore
SplineSet
356 667 m 1
 85 667 l 1
 94 736 l 1
 365 736 l 1
 356 667 l 1
EndSplineSet
Substitution2: "'case' Case-Sensitive Forms lookup 29 subtable" macron.case
Substitution2: "'smcp' Lowercase to Small Capitals lookup 28 subtable" macron.sc
Substitution2: "'c2sc' Capitals to Small Capitals lookup 27 subtable" macron.sc
AlternateSubs2: "'aalt' Access All Alternates lookup 1 subtable" macron.sc macron.case
EndChar
StartChar: degree
Encoding: 176 176 2385
Width: 517
GlyphClass: 2
Flags: MW
HStem: 381 62<215.5 260.5 215.5 277.5> 638 63<250 295>
VStem: 92.19 325.6
LayerCount: 2
Back
Fore
SplineSet
237 381 m 0
 153 381 79 441 94 546 c 0
 108 647 193 701 273 701 c 0
 358 701 431 640 416 535 c 0
 402 434 318 381 237 381 c 0
237 443 m 0
 284 443 332 477 342 545 c 0
 351 609 317 638 273 638 c 0
 227 638 178 605 168 536 c 0
 159 471 194 443 237 443 c 0
EndSplineSet
Substitution2: "'onum' Oldstyle Figures lookup 26 subtable" degree.osf
Substitution2: "'tnum' Tabular Numbers lookup 25 subtable" degree.tf
AlternateSubs2: "'aalt' Access All Alternates lookup 1 subtable" degree.tf degree.osf
EndChar
StartChar: plusminus
Encoding: 177 177 2275
Width: 494
GlyphClass: 2
Flags: MW
HStem: 0 77<24 407 35 396> 316 76<80 212 69 223 307 440 80 296>
VStem: 24 427<0 392>
LayerCount: 2
Back
Fore
SplineSet
328 542 m 1
 307 392 l 1
 451 392 l 1
 440 316 l 1
 296 316 l 1
 275 167 l 1
 191 167 l 1
 212 316 l 1
 69 316 l 1
 80 392 l 1
 223 392 l 1
 244 542 l 1
 328 542 l 1
24 0 m 1
 35 77 l 1
 407 77 l 1
 396 0 l 1
 24 0 l 1
EndSplineSet
Substitution2: "'onum' Oldstyle Figures lookup 26 subtable" plusminus.osf
Substitution2: "'tnum' Tabular Numbers lookup 25 subtable" plusminus.tf
AlternateSubs2: "'aalt' Access All Alternates lookup 1 subtable" plusminus.tf plusminus.osf
EndChar

StartChar: twosuperior
Encoding: 178 178 972
Width: 394
Flags: MW
HStem: 322 61 684 62<194 230>
VStem: 264 79
LayerCount: 2
Fore
SplineSet
219 746 m 0
 308 746 353 691 343 621 c 0
 334 556 287 505 135 382 c 1
 320 384 l 1
 303 322 l 1
 36 322 l 1
 43 382 l 1
 212 527 255 567 264 625 c 1
 269 664 248 684 212 684 c 0
 176 684 150 668 119 637 c 1
 73 680 l 1
 114 723 163 746 219 746 c 0
EndSplineSet
EndChar

StartChar: threesuperior
Encoding: 179 179 973
Width: 394
Flags: MW
HStem: 313 61<145.5 186.5 145.5 212.5> 512 30 512 56<165 184 148 186> 687 59<196.5 233>
VStem: 253 78 268 77<636 636>
LayerCount: 2
Fore
SplineSet
221 746 m 0xb4
 311 746 353 695 345 636 c 0xd4
 338 586 301 555 246 542 c 1xd8
 298 538 340 503 331 436 c 0
 321 367 260 313 165 313 c 0
 106 313 58 336 29 375 c 1
 80 414 l 1
 103 385 130 374 161 374 c 0
 212 374 246 404 253 450 c 0
 260 498 234 512 184 512 c 2xb8
 148 512 l 1
 165 568 l 1
 186 568 l 2
 227 568 262 593 268 636 c 0
 273 669 252 687 214 687 c 0
 178 687 150 673 120 648 c 1
 84 695 l 1
 126 730 172 746 221 746 c 0xb4
EndSplineSet
EndChar
StartChar: acute
Encoding: 180 180 2517
Width: 294
Flags: MW
HStem: 638 163
VStem: 89 241<687 724>
LayerCount: 2
Back
Fore
SplineSet
300 801 m 1
 330 724 l 1
 110 638 l 1
 89 687 l 1
 300 801 l 1
EndSplineSet
Substitution2: "'case' Case-Sensitive Forms lookup 29 subtable" acute.case
Substitution2: "'smcp' Lowercase to Small Capitals lookup 28 subtable" acute.sc
Substitution2: "'c2sc' Capitals to Small Capitals lookup 27 subtable" acute.sc
Substitution2: "'locl' Localized Forms in Latin lookup 7 subtable" acute.loclPLK
AlternateSubs2: "'aalt' Access All Alternates lookup 1 subtable" acute.loclPLK acute.sc acute.case
EndChar
StartChar: uni00B5
Encoding: 181 181 2264
Width: 582
GlyphClass: 2
Flags: MW
HStem: -213 21G<27 27> -12 79<212 254.5> -2 21G<470 470> 507 20G<131 222 222 222 428 519 519 519>
VStem: 375 87.87
LayerCount: 2
Back
Fore
SplineSet
470 177 m 2xd8
 459 98 462 41 470 -2 c 1xb8
 386 -10 l 1
 374 27 374 52 375 85 c 1
 341 37 288 -12 221 -12 c 0
 187 -12 156 -1 138 22 c 1
 144 -1 142 -36 133 -99 c 2
 119 -202 l 1
 27 -213 l 1
 131 527 l 1
 222 527 l 1
 169 153 l 2
 160 86 191 67 233 67 c 0
 283 67 332 90 378 163 c 1
 428 527 l 1
 519 527 l 1
 470 177 l 2xd8
EndSplineSet
EndChar

StartChar: paragraph
Encoding: 182 182 1222
Width: 728
Flags: MW
HStem: -215 21G<244 244 439 439> 615 74
VStem: 118.42 530.58
LayerCount: 2
Fore
SplineSet
649 689 m 1
 524 -202 l 1
 439 -215 l 1
 555 615 l 1
 442 615 l 1
 329 -202 l 1
 244 -215 l 1
 314 283 l 1
 161 291 105 378 121 490 c 0
 139 618 241 688 391 688 c 1
 391 686 l 1
 392 688 l 1
 649 689 l 1
EndSplineSet
EndChar
StartChar: cedilla
Encoding: 184 184 2520
Width: 269
Flags: MW
HStem: -241 60<38 68.5 38 96> -214 21G<-38 -38> -99 115<55 59>
VStem: 109 75
LayerCount: 2
Back
Fore
SplineSet
114 16 m 1x70
 102 -56 l 1
 161 -61 184 -95 184 -136 c 0
 184 -187 141 -241 51 -241 c 0xb0
 12 -241 -18 -229 -38 -214 c 1x70
 -7 -165 l 1
 8 -175 25 -181 51 -181 c 0xb0
 86 -181 108 -166 109 -138 c 0
 110 -109 91 -99 27 -99 c 1
 55 16 l 1
 114 16 l 1x70
EndSplineSet
Substitution2: "'case' Case-Sensitive Forms lookup 29 subtable" cedilla.case
Substitution2: "'smcp' Lowercase to Small Capitals lookup 28 subtable" cedilla.sc
Substitution2: "'c2sc' Capitals to Small Capitals lookup 27 subtable" cedilla.sc
AlternateSubs2: "'aalt' Access All Alternates lookup 1 subtable" cedilla.sc cedilla.case
EndChar

StartChar: onesuperior
Encoding: 185 185 971
Width: 394
Flags: MW
HStem: 719 20G<231 300 300 300>
VStem: 81 219<656 739>
LayerCount: 2
Fore
SplineSet
241 322 m 1
 165 322 l 1
 212 660 l 1
 108 603 l 1
 81 656 l 1
 231 739 l 1
 300 739 l 1
 241 322 l 1
EndSplineSet
EndChar
StartChar: uni00B9
Encoding: 185 185 2109
Width: 394
Flags: MW
HStem: 719 20G<231 300 300 300>
VStem: 81 219<656 739>
LayerCount: 2
Back
Fore
SplineSet
300 739 m 1
 241 322 l 1
 165 322 l 1
 212 660 l 1
 108 603 l 1
 81 656 l 1
 231 739 l 1
 300 739 l 1
EndSplineSet
EndChar
StartChar: ordmasculine
Encoding: 186 186 1057
Width: 494
GlyphClass: 2
Flags: MW
HStem: 0 77<25 408 36 397> 271 69<228.5 304 228.5 338> 620 69<252 327.5>
VStem: 83 93<401 472.5 401 493> 379 93<492 560>
LayerCount: 2
Back
Fore
SplineSet
302 689 m 0
 411 689 472 624 472 519 c 0
 472 415 421 271 255 271 c 0
 145 271 83 336 83 441 c 0
 83 545 136 689 302 689 c 0
302 620 m 0
 202 620 176 512 176 433 c 0
 176 369 203 340 254 340 c 0
 354 340 379 456 379 528 c 0
 379 592 353 620 302 620 c 0
25 0 m 1
 36 77 l 1
 408 77 l 1
 397 0 l 1
 25 0 l 1
EndSplineSet
EndChar

StartChar: guillemotright
Encoding: 187 187 1037
Width: 560
Flags: MW
HStem: 515 20G<141 141 367 367>
VStem: 26 487<77 318>
LayerCount: 2
Fore
SplineSet
287 318 m 1
 280 255 l 1
 79 39 l 1
 26 77 l 1
 189 287 l 1
 85 497 l 1
 141 535 l 1
 287 318 l 1
513 318 m 1
 506 255 l 1
 305 39 l 1
 252 77 l 1
 415 287 l 1
 311 497 l 1
 367 535 l 1
 513 318 l 1
EndSplineSet
Substitution2: "'case' Case-Sensitive Forms lookup 25 subtable" guillemotright.case
Substitution2: "'aalt' Access All Alternates lookup 0 subtable" guillemotright.case
EndChar

StartChar: onequarter
Encoding: 188 188 928
Width: 914
Flags: MW
HStem: 0 156<708 730 626 783 708 708> 96 60<626 721 805 848> 669 20G<224 293 293 293> 730 20G<696 696>
VStem: 74 783<156 606>
LayerCount: 2
Fore
SplineSet
752 721 m 1xb8
 239 -78 l 1
 182 -49 l 1
 696 750 l 1
 752 721 l 1xb8
158 272 m 1
 205 610 l 1
 101 553 l 1
 74 606 l 1
 224 689 l 1
 293 689 l 1
 234 272 l 1
 158 272 l 1
848 96 m 1x78
 797 96 l 1x78
 783 0 l 1
 708 0 l 1xb8
 721 96 l 1
 537 96 l 1
 544 150 l 1x78
 709 424 l 1
 772 399 l 1
 626 156 l 1
 730 156 l 1
 752 261 l 1
 820 261 l 1
 805 156 l 1
 857 156 l 1xb8
 848 96 l 1x78
EndSplineSet
EndChar
StartChar: onehalf
Encoding: 189 189 2063
Width: 914
Flags: MW
HStem: 0 61 362 62<706 742> 669 20G<224 293 293 293> 730 20G<696 696>
VStem: 776 79
LayerCount: 2
Back
Fore
SplineSet
696 750 m 1
 752 721 l 1
 239 -78 l 1
 182 -49 l 1
 696 750 l 1
293 689 m 1
 234 272 l 1
 158 272 l 1
 205 610 l 1
 101 553 l 1
 74 606 l 1
 224 689 l 1
 293 689 l 1
731 424 m 0
 820 424 865 369 855 299 c 0
 846 234 799 183 647 60 c 1
 832 62 l 1
 815 0 l 1
 548 0 l 1
 555 60 l 1
 724 205 767 245 776 303 c 0
 781 342 760 362 724 362 c 0
 688 362 662 346 631 315 c 1
 585 358 l 1
 626 401 675 424 731 424 c 0
EndSplineSet
EndChar

StartChar: threequarters
Encoding: 190 190 929
Width: 914
Flags: MW
HStem: 0 156<708 730 626 783 708 708> 96 60<626 721 805 848> 263 61<138.5 179.5 138.5 205.5> 462 56<158 177 141 179> 637 59<189.5 226> 730 20G<696 696>
VStem: 246 78 261 77<586 586>
LayerCount: 2
Fore
SplineSet
752 721 m 1xbe
 239 -78 l 1
 182 -49 l 1
 696 750 l 1
 752 721 l 1xbe
324 386 m 0
 314 317 253 263 158 263 c 0
 99 263 51 286 22 325 c 1
 73 364 l 1
 96 335 123 324 154 324 c 0
 205 324 239 354 246 400 c 0
 253 448 227 462 177 462 c 2xbe
 141 462 l 1
 158 518 l 1
 179 518 l 2
 220 518 255 543 261 586 c 0
 266 619 245 637 207 637 c 0
 171 637 143 623 113 598 c 1
 77 645 l 1
 119 680 165 696 214 696 c 0
 304 696 346 645 338 586 c 0xbd
 331 536 294 505 239 492 c 1
 291 488 333 453 324 386 c 0
848 96 m 1x7e
 797 96 l 1x7e
 783 0 l 1
 708 0 l 1xbe
 721 96 l 1
 537 96 l 1
 544 150 l 1x7e
 709 424 l 1
 772 399 l 1
 626 156 l 1
 730 156 l 1
 752 261 l 1
 820 261 l 1
 805 156 l 1
 857 156 l 1xbe
 848 96 l 1x7e
EndSplineSet
EndChar
StartChar: questiondown
Encoding: 191 191 2131
Width: 454
Flags: MW
HStem: -216 76<136.5 188.5 136.5 195> 368 139<251 280.5>
VStem: -17 95<-95 -2 -95 23.5> 197 137<423 452> 228 89<152 222 126 227>
LayerCount: 2
Back
Fore
SplineSet
260 368 m 0xf0
 222 368 197 396 197 431 c 0
 197 473 230 507 272 507 c 0
 309 507 334 479 334 444 c 0
 334 402 301 368 260 368 c 0xf0
155 -216 m 0
 39 -216 -17 -150 -17 -75 c 0
 -17 122 228 81 228 223 c 0
 228 231 228 240 225 252 c 1
 307 266 l 1
 313 251 317 228 317 216 c 0xa8
 317 36 78 69 78 -73 c 0
 78 -117 110 -140 163 -140 c 0
 214 -140 267 -116 314 -66 c 1
 371 -119 l 1
 306 -186 235 -216 155 -216 c 0
EndSplineSet
Substitution2: "'case' Case-Sensitive Forms lookup 29 subtable" questiondown.case
Substitution2: "'aalt' Access All Alternates lookup 0 subtable" questiondown.case
EndChar

StartChar: Acircumflex
Encoding: 194 194 4
Width: 567
GlyphClass: 2
Flags: MW
HStem: 0 21G<-32 65 -32 -32 427 524 427 427> 173 77<174 388 174 400 141 388> 610 79<332 332> 669 20G<284 403 403 403> 840 74<373 373>
VStem: -32 561
AnchorPoint: "Anchor-11" 0 0 basechar 0
AnchorPoint: "Anchor-10" 144 527 basechar 0
AnchorPoint: "Anchor-9" 344 689 basechar 0
AnchorPoint: "Anchor-8" 495 0 basechar 0
LayerCount: 2
Fore
SplineSet
238 759 m 1xdc
 201 804 l 1
 350 914 l 1
 410 914 l 1
 529 804 l 1
 488 759 l 1
 373 840 l 1
 238 759 l 1xdc
403 689 m 1
 524 0 l 1
 427 0 l 1
 400 173 l 1
 141 173 l 1
 65 0 l 1
 -32 0 l 1
 284 689 l 1
 403 689 l 1
388 250 m 1
 332 610 l 1xec
 174 250 l 1
 388 250 l 1
EndSplineSet
Substitution2: "'c2sc' Capitals to Small Capitals lookup 23 subtable" acircumflex.sc
Substitution2: "'aalt' Access All Alternates lookup 0 subtable" acircumflex.sc
Position2: "'cpsp' Capital Spacing lookup 0 subtable" dx=5 dy=0 dh=10 dv=0
EndChar

StartChar: Atilde
Encoding: 195 195 10
Width: 567
GlyphClass: 2
Flags: MW
HStem: 0 21G<-32 65 -32 -32 427 524 427 427> 173 77<174 388 174 400 141 388> 610 79<332 332> 669 20G<284 403 403 403> 782 70<404 431 404 441.5> 830 70<298.5 326.5>
VStem: -32 567
AnchorPoint: "Anchor-11" 0 0 basechar 0
AnchorPoint: "Anchor-10" 144 527 basechar 0
AnchorPoint: "Anchor-9" 344 689 basechar 0
AnchorPoint: "Anchor-8" 495 0 basechar 0
LayerCount: 2
Fore
SplineSet
311 830 m 0xd6
 286 830 268 812 248 782 c 1
 196 814 l 1
 226 863 265 900 313 900 c 0xd6
 370 900 388 852 420 852 c 0
 442 852 460 868 481 898 c 1
 535 866 l 1
 501 809 461 782 422 782 c 0xda
 363 782 342 830 311 830 c 0xd6
403 689 m 1
 524 0 l 1
 427 0 l 1
 400 173 l 1
 141 173 l 1
 65 0 l 1
 -32 0 l 1
 284 689 l 1
 403 689 l 1
388 250 m 1
 332 610 l 1xe6
 174 250 l 1
 388 250 l 1
EndSplineSet
Substitution2: "'c2sc' Capitals to Small Capitals lookup 23 subtable" atilde.sc
Substitution2: "'aalt' Access All Alternates lookup 0 subtable" atilde.sc
Position2: "'cpsp' Capital Spacing lookup 0 subtable" dx=5 dy=0 dh=10 dv=0
EndChar
StartChar: Aring
Encoding: 197 197 29
Width: 567
GlyphClass: 2
Flags: MW
HStem: 0 21G<-32 65 -32 -32 427 524 427 427> 173 77<174 388 174 400 141 388> 610 79<332 332> 669 20G<284 403 403 403> 750 50<344.5 379.5 344.5 391.5> 912 50<356 390>
VStem: 254 61<832.5 864 832.5 878> 421 60<850 881>
AnchorPoint: "Anchor-14" 0 0 basechar 0
AnchorPoint: "Anchor-13" 0 0 basechar 0
AnchorPoint: "Anchor-12" 378 962 basechar 0
AnchorPoint: "Anchor-11" 495 0 basechar 0
AnchorPoint: "Anchor-10" 246 0 basechar 0
LayerCount: 2
Back
Fore
SplineSet
357 750 m 0xdf
 295 750 254 792 254 846 c 0
 254 910 309 962 378 962 c 0
 440 962 481 920 481 866 c 0
 481 802 426 750 357 750 c 0xdf
376 912 m 0
 336 912 315 881 315 847 c 0
 315 818 330 800 359 800 c 0
 400 800 421 834 421 866 c 0
 421 896 404 912 376 912 c 0
427 0 m 1
 400 173 l 1
 141 173 l 1
 65 0 l 1
 -32 0 l 1
 284 689 l 1
 403 689 l 1
 524 0 l 1
 427 0 l 1
174 250 m 1
 388 250 l 1
 332 610 l 1xef
 174 250 l 1
EndSplineSet
Substitution2: "'c2sc' Capitals to Small Capitals lookup 27 subtable" aring.sc
Substitution2: "'aalt' Access All Alternates lookup 0 subtable" aring.sc
Position2: "'cpsp' Capital Spacing lookup 0 subtable" dx=5 dy=0 dh=10 dv=0
EndChar

StartChar: AE
Encoding: 198 198 11
Width: 808
GlyphClass: 2
Flags: MW
HStem: 0 76<504 718> 173 77<179 398 179 405 139 398> 311 76<479 713 479 479> 613 76<364 364 446 446 446 753>
VStem: -49 824<0 689>
AnchorPoint: "Anchor-11" 0 0 basechar 0
AnchorPoint: "Anchor-10" 0 0 basechar 0
AnchorPoint: "Anchor-9" 530 689 basechar 0
AnchorPoint: "Anchor-8" 0 0 basechar 0
LayerCount: 2
Fore
SplineSet
446 613 m 1
 470 387 l 1
 723 387 l 1
 713 311 l 1
 479 311 l 1
 504 76 l 1
 729 76 l 1
 718 0 l 1
 421 0 l 1
 405 173 l 1
 139 173 l 1
 51 0 l 1
 -49 0 l 1
 317 689 l 1
 775 689 l 1
 753 613 l 1
 446 613 l 1
398 250 m 1
 364 613 l 1
 179 250 l 1
 398 250 l 1
EndSplineSet
Substitution2: "'c2sc' Capitals to Small Capitals lookup 23 subtable" ae.sc
Substitution2: "'aalt' Access All Alternates lookup 0 subtable" ae.sc
Position2: "'cpsp' Capital Spacing lookup 0 subtable" dx=5 dy=0 dh=10 dv=0
EndChar
StartChar: Ccedilla
Encoding: 199 199 45
Width: 555
GlyphClass: 2
Flags: MW
HStem: -241 60<263 293.5 263 321> -214 21G<187 187> -99 43 -11 79<335 335> 623 78<308.5 421.5>
VStem: 61 99<191 337.5 191 360> 334 75
AnchorPoint: "Anchor-14" 0 0 basechar 0
AnchorPoint: "Anchor-13" 0 0 basechar 0
AnchorPoint: "Anchor-12" 405 689 basechar 0
AnchorPoint: "Anchor-11" 0 0 basechar 0
AnchorPoint: "Anchor-10" 300 -241 basechar 0
LayerCount: 2
Back
Fore
SplineSet
398 623 m 0x7e
 219 623 160 415 160 260 c 0
 160 122 224 68 312 68 c 0
 379 68 425 99 467 128 c 1
 509 63 l 1
 469 29 410 -4 335 -11 c 1
 327 -56 l 1
 386 -61 409 -95 409 -136 c 0
 409 -187 366 -241 276 -241 c 0xbe
 237 -241 207 -229 187 -214 c 1x7e
 218 -165 l 1
 233 -175 250 -181 276 -181 c 0xbe
 311 -181 333 -166 334 -138 c 0
 335 -109 316 -99 252 -99 c 1
 274 -10 l 1
 145 3 61 100 61 268 c 0
 61 452 155 701 394 701 c 0
 474 701 531 675 579 630 c 1
 523 575 l 1
 484 609 445 623 398 623 c 0x7e
EndSplineSet
Substitution2: "'c2sc' Capitals to Small Capitals lookup 27 subtable" ccedilla.sc
Substitution2: "'aalt' Access All Alternates lookup 0 subtable" ccedilla.sc
Position2: "'cpsp' Capital Spacing lookup 0 subtable" dx=5 dy=0 dh=10 dv=0
EndChar

StartChar: Egrave
Encoding: 200 200 31
Width: 529
GlyphClass: 2
Flags: MW
HStem: 0 76<167 439> 312 76<210 430 200 440> 613 76<242 507 242 242>
VStem: 62 466
AnchorPoint: "Anchor-11" 251 0 basechar 0
AnchorPoint: "Anchor-10" 48 534 basechar 0
AnchorPoint: "Anchor-9" 347 689 basechar 0
AnchorPoint: "Anchor-8" 409 0 basechar 0
LayerCount: 2
Fore
SplineSet
484 804 m 1
 454 755 l 1
 250 834 l 1
 299 911 l 1
 484 804 l 1
507 613 m 1
 242 613 l 1
 210 388 l 1
 440 388 l 1
 430 312 l 1
 200 312 l 1
 167 76 l 1
 450 76 l 1
 439 0 l 1
 62 0 l 1
 159 689 l 1
 528 689 l 1
 507 613 l 1
EndSplineSet
Substitution2: "'c2sc' Capitals to Small Capitals lookup 23 subtable" egrave.sc
Substitution2: "'aalt' Access All Alternates lookup 0 subtable" egrave.sc
Position2: "'cpsp' Capital Spacing lookup 0 subtable" dx=5 dy=0 dh=10 dv=0
EndChar
StartChar: Eacute
Encoding: 201 201 66
Width: 529
GlyphClass: 2
Flags: MW
HStem: 0 76<167 439> 312 76<210 430 200 440> 613 76<242 507 242 242>
VStem: 62 466
AnchorPoint: "Anchor-14" 0 0 basechar 0
AnchorPoint: "Anchor-13" 0 0 basechar 0
AnchorPoint: "Anchor-12" 369 911 basechar 0
AnchorPoint: "Anchor-11" 409 0 basechar 0
AnchorPoint: "Anchor-10" 251 0 basechar 0
LayerCount: 2
Back
Fore
SplineSet
458 911 m 1
 487 834 l 1
 264 755 l 1
 247 804 l 1
 458 911 l 1
528 689 m 1
 507 613 l 1
 242 613 l 1
 210 388 l 1
 440 388 l 1
 430 312 l 1
 200 312 l 1
 167 76 l 1
 450 76 l 1
 439 0 l 1
 62 0 l 1
 159 689 l 1
 528 689 l 1
EndSplineSet
Substitution2: "'c2sc' Capitals to Small Capitals lookup 27 subtable" eacute.sc
Substitution2: "'aalt' Access All Alternates lookup 0 subtable" eacute.sc
Position2: "'cpsp' Capital Spacing lookup 0 subtable" dx=5 dy=0 dh=10 dv=0
EndChar

StartChar: Ecircumflex
Encoding: 202 202 28
Width: 529
GlyphClass: 2
Flags: MW
HStem: 0 76<167 439> 312 76<210 430 200 440> 613 76<242 507 242 242> 840 74<376 376>
VStem: 62 470
AnchorPoint: "Anchor-11" 251 0 basechar 0
AnchorPoint: "Anchor-10" 48 534 basechar 0
AnchorPoint: "Anchor-9" 347 689 basechar 0
AnchorPoint: "Anchor-8" 409 0 basechar 0
LayerCount: 2
Fore
SplineSet
376 840 m 1
 241 759 l 1
 204 804 l 1
 353 914 l 1
 413 914 l 1
 532 804 l 1
 491 759 l 1
 376 840 l 1
507 613 m 1
 242 613 l 1
 210 388 l 1
 440 388 l 1
 430 312 l 1
 200 312 l 1
 167 76 l 1
 450 76 l 1
 439 0 l 1
 62 0 l 1
 159 689 l 1
 528 689 l 1
 507 613 l 1
EndSplineSet
Substitution2: "'c2sc' Capitals to Small Capitals lookup 23 subtable" ecircumflex.sc
Substitution2: "'aalt' Access All Alternates lookup 0 subtable" ecircumflex.sc
Position2: "'cpsp' Capital Spacing lookup 0 subtable" dx=5 dy=0 dh=10 dv=0
EndChar

StartChar: Edieresis
Encoding: 203 203 29
Width: 529
GlyphClass: 2
Flags: MW
HStem: 0 76<167 439> 312 76<210 430 200 440> 613 76<242 507 242 242> 780 114<252.5 275 460 482.5>
VStem: 208 111 416 111
AnchorPoint: "Anchor-11" 251 0 basechar 0
AnchorPoint: "Anchor-10" 48 534 basechar 0
AnchorPoint: "Anchor-9" 365 813 basechar 0
AnchorPoint: "Anchor-8" 409 0 basechar 0
LayerCount: 2
Fore
SplineSet
268 894 m 0
 302 894 324 866 319 832 c 0
 315 802 290 780 260 780 c 0
 225 780 203 808 208 842 c 0
 212 872 237 894 268 894 c 0
475 894 m 0
 510 894 532 866 527 832 c 0
 523 802 498 780 467 780 c 0
 433 780 411 808 416 842 c 0
 420 872 445 894 475 894 c 0
507 613 m 1
 242 613 l 1
 210 388 l 1
 440 388 l 1
 430 312 l 1
 200 312 l 1
 167 76 l 1
 450 76 l 1
 439 0 l 1
 62 0 l 1
 159 689 l 1
 528 689 l 1
 507 613 l 1
EndSplineSet
Substitution2: "'c2sc' Capitals to Small Capitals lookup 23 subtable" edieresis.sc
Substitution2: "'aalt' Access All Alternates lookup 0 subtable" edieresis.sc
Position2: "'cpsp' Capital Spacing lookup 0 subtable" dx=5 dy=0 dh=10 dv=0
EndChar
StartChar: Igrave
Encoding: 204 204 126
Width: 292
GlyphClass: 2
Flags: MW
HStem: 0 21G<62 156 62 62> 669 20G<159 253 253 253>
VStem: 62 281
AnchorPoint: "Anchor-14" 0 0 basechar 0
AnchorPoint: "Anchor-13" 0 0 basechar 0
AnchorPoint: "Anchor-12" 228 911 basechar 0
AnchorPoint: "Anchor-11" 144 0 basechar 0
AnchorPoint: "Anchor-10" 108 0 basechar 0
LayerCount: 2
Back
Fore
SplineSet
158 911 m 1
 343 804 l 1
 313 755 l 1
 109 834 l 1
 158 911 l 1
253 689 m 1
 156 0 l 1
 62 0 l 1
 159 689 l 1
 253 689 l 1
EndSplineSet
Substitution2: "'c2sc' Capitals to Small Capitals lookup 27 subtable" igrave.sc
Substitution2: "'aalt' Access All Alternates lookup 0 subtable" igrave.sc
Position2: "'cpsp' Capital Spacing lookup 0 subtable" dx=5 dy=0 dh=10 dv=0
EndChar

StartChar: Iacute
Encoding: 205 205 45
Width: 294
GlyphClass: 2
Flags: MW
HStem: 0 21G<62 158 62 62> 669 20G<159 255 255 255>
VStem: 62 285
AnchorPoint: "Anchor-11" 0 0 basechar 0
AnchorPoint: "Anchor-10" 50 534 basechar 0
AnchorPoint: "Anchor-9" 207 689 basechar 0
AnchorPoint: "Anchor-8" 167 0 basechar 0
LayerCount: 2
Fore
SplineSet
347 834 m 1
 124 755 l 1
 107 804 l 1
 318 911 l 1
 347 834 l 1
158 0 m 1
 62 0 l 1
 159 689 l 1
 255 689 l 1
 158 0 l 1
EndSplineSet
Substitution2: "'c2sc' Capitals to Small Capitals lookup 23 subtable" iacute.sc
Substitution2: "'aalt' Access All Alternates lookup 0 subtable" iacute.sc
Position2: "'cpsp' Capital Spacing lookup 0 subtable" dx=5 dy=0 dh=10 dv=0
EndChar

StartChar: Icircumflex
Encoding: 206 206 47
Width: 294
GlyphClass: 2
Flags: MW
HStem: 0 21G<62 158 62 62> 669 20G<159 255 255 255> 840 74<236 236>
VStem: 62 330
AnchorPoint: "Anchor-11" 0 0 basechar 0
AnchorPoint: "Anchor-10" 50 534 basechar 0
AnchorPoint: "Anchor-9" 207 689 basechar 0
AnchorPoint: "Anchor-8" 167 0 basechar 0
LayerCount: 2
Fore
SplineSet
236 840 m 1
 101 759 l 1
 64 804 l 1
 213 914 l 1
 273 914 l 1
 392 804 l 1
 351 759 l 1
 236 840 l 1
158 0 m 1
 62 0 l 1
 159 689 l 1
 255 689 l 1
 158 0 l 1
EndSplineSet
Substitution2: "'c2sc' Capitals to Small Capitals lookup 23 subtable" icircumflex.sc
Substitution2: "'aalt' Access All Alternates lookup 0 subtable" icircumflex.sc
Position2: "'cpsp' Capital Spacing lookup 0 subtable" dx=5 dy=0 dh=10 dv=0
EndChar
StartChar: Eth
Encoding: 208 208 54
Width: 649
GlyphClass: 2
Flags: MW
HStem: 0 75<177 238> 318 70<38 117 29 127 221 369> 613 76<252 310 310 324 252 252>
VStem: 515 96<347.5 510.5>
AnchorPoint: "Anchor-14" 341 345 basechar 0
AnchorPoint: "Anchor-13" 0 0 basechar 0
AnchorPoint: "Anchor-12" 370 689 basechar 0
AnchorPoint: "Anchor-11" 0 0 basechar 0
AnchorPoint: "Anchor-10" 261 0 basechar 0
LayerCount: 2
Back
Fore
SplineSet
310 689 m 2
 466 689 611 643 611 428 c 0
 611 207 510 0 238 0 c 2
 72 0 l 1
 117 318 l 1
 29 318 l 1
 38 388 l 1
 127 388 l 1
 169 689 l 1
 310 689 l 2
252 75 m 2
 452 75 515 265 515 430 c 0
 515 591 420 613 324 613 c 2
 252 613 l 1
 221 388 l 1
 378 388 l 1
 369 318 l 1
 211 318 l 1
 177 75 l 1
 252 75 l 2
EndSplineSet
Substitution2: "'c2sc' Capitals to Small Capitals lookup 27 subtable" eth.sc
Substitution2: "'aalt' Access All Alternates lookup 0 subtable" eth.sc
Position2: "'cpsp' Capital Spacing lookup 0 subtable" dx=5 dy=0 dh=10 dv=0
EndChar

StartChar: Ntilde
Encoding: 209 209 70
Width: 677
GlyphClass: 2
Flags: MW
HStem: 0 21G<62 151 62 62 418 541 418 418> 0 81<481 481 481 541 418 481> 607 82<221 221> 669 20G<159 283 283 283 549 638 638 638> 782 70<470 497 470 507.5> 830 70<364.5 392.5>
VStem: 62 576
AnchorPoint: "Anchor-11" 303 0 basechar 0
AnchorPoint: "Anchor-10" 0 0 basechar 0
AnchorPoint: "Anchor-9" 410 689 basechar 0
AnchorPoint: "Anchor-8" 0 0 basechar 0
LayerCount: 2
Fore
SplineSet
488 782 m 0x9a
 429 782 408 830 377 830 c 0
 352 830 334 812 314 782 c 1
 262 814 l 1
 292 863 331 900 379 900 c 0x96
 436 900 454 852 486 852 c 0
 508 852 526 868 547 898 c 1
 601 866 l 1
 567 809 527 782 488 782 c 0x9a
541 0 m 1x96
 418 0 l 1
 221 607 l 1xa6
 220 523 213 441 195 313 c 2
 151 0 l 1
 62 0 l 1
 159 689 l 1
 283 689 l 1
 481 81 l 1x56
 481 172 485 232 496 316 c 2
 549 689 l 1
 638 689 l 1
 541 0 l 1x96
EndSplineSet
Substitution2: "'c2sc' Capitals to Small Capitals lookup 23 subtable" ntilde.sc
Substitution2: "'aalt' Access All Alternates lookup 0 subtable" ntilde.sc
Position2: "'cpsp' Capital Spacing lookup 0 subtable" dx=5 dy=0 dh=10 dv=0
EndChar

StartChar: Ocircumflex
Encoding: 212 212 74
Width: 686
GlyphClass: 2
Flags: MW
HStem: -12 78<265 405.5 265 435> 623 78<304.5 446> 840 74<436 436>
VStem: 61 98<187.5 329 187.5 353> 550 98<363 502>
AnchorPoint: "Anchor-11" 0 0 basechar 0
AnchorPoint: "Anchor-10" 68 534 basechar 0
AnchorPoint: "Anchor-9" 407 689 basechar 0
AnchorPoint: "Anchor-8" 0 0 basechar 0
LayerCount: 2
Fore
SplineSet
436 840 m 1
 301 759 l 1
 264 804 l 1
 413 914 l 1
 473 914 l 1
 592 804 l 1
 551 759 l 1
 436 840 l 1
402 701 m 0
 552 701 648 603 648 421 c 0
 648 239 562 -12 308 -12 c 0
 158 -12 61 85 61 265 c 0
 61 441 147 701 402 701 c 0
398 623 m 0
 211 623 159 403 159 255 c 0
 159 120 219 66 311 66 c 0
 500 66 550 288 550 438 c 0
 550 566 494 623 398 623 c 0
EndSplineSet
Substitution2: "'c2sc' Capitals to Small Capitals lookup 23 subtable" ocircumflex.sc
Substitution2: "'aalt' Access All Alternates lookup 0 subtable" ocircumflex.sc
Position2: "'cpsp' Capital Spacing lookup 0 subtable" dx=5 dy=0 dh=10 dv=0
EndChar
StartChar: Otilde
Encoding: 213 213 207
Width: 686
GlyphClass: 2
Flags: MW
HStem: -12 78<265 405.5 265 435> 623 78<304.5 446> 782 70<467 494 467 504.5> 830 70<361.5 389.5>
VStem: 61 98<191 332.5 191 353> 550 98<358 497>
AnchorPoint: "Anchor-14" 0 0 basechar 0
AnchorPoint: "Anchor-13" 603 689 basechar 0
AnchorPoint: "Anchor-12" 431 900 basechar 0
AnchorPoint: "Anchor-11" 0 0 basechar 0
AnchorPoint: "Anchor-10" 303 0 basechar 0
LayerCount: 2
Back
Fore
SplineSet
485 782 m 0xec
 426 782 405 830 374 830 c 0
 349 830 331 812 311 782 c 1
 259 814 l 1
 289 863 328 900 376 900 c 0xdc
 433 900 451 852 483 852 c 0
 505 852 523 868 544 898 c 1
 598 866 l 1
 564 809 524 782 485 782 c 0xec
402 701 m 0
 552 701 648 603 648 421 c 0
 648 239 562 -12 308 -12 c 0
 158 -12 61 85 61 265 c 0
 61 441 147 701 402 701 c 0
398 623 m 0
 211 623 159 403 159 262 c 0
 159 120 219 66 311 66 c 0
 500 66 550 288 550 428 c 0
 550 566 494 623 398 623 c 0
EndSplineSet
Substitution2: "'c2sc' Capitals to Small Capitals lookup 27 subtable" otilde.sc
Substitution2: "'aalt' Access All Alternates lookup 0 subtable" otilde.sc
Position2: "'cpsp' Capital Spacing lookup 0 subtable" dx=5 dy=0 dh=10 dv=0
EndChar
StartChar: multiply
Encoding: 215 215 2268
Width: 494
GlyphClass: 2
Flags: MW
HStem: 129 357<109 156 156 350>
VStem: 60 386<185 429>
LayerCount: 2
Back
Fore
SplineSet
397 486 m 1
 446 429 l 1
 308 307 l 1
 412 185 l 1
 350 129 l 1
 246 251 l 1
 109 129 l 1
 60 185 l 1
 198 307 l 1
 94 429 l 1
 156 486 l 1
 260 363 l 1
 397 486 l 1
EndSplineSet
Substitution2: "'onum' Oldstyle Figures lookup 26 subtable" multiply.osf
Substitution2: "'tnum' Tabular Numbers lookup 25 subtable" multiply.tf
AlternateSubs2: "'aalt' Access All Alternates lookup 1 subtable" multiply.tf multiply.osf
EndChar

StartChar: Oslash
Encoding: 216 216 79
Width: 686
GlyphClass: 2
Flags: MW
HStem: -12 78<303 405.5 303 435> -5 21G<241 241> 623 78<304.5 406> 674 20G<467 467>
VStem: 61 98<214 329 214 353> 550 98<363 478>
AnchorPoint: "Anchor-11" 0 0 basechar 0
AnchorPoint: "Anchor-10" 172 689 basechar 0
AnchorPoint: "Anchor-9" 400 704 basechar 0
AnchorPoint: "Anchor-8" 0 0 basechar 0
LayerCount: 2
Fore
SplineSet
539 665 m 1xac
 608 621 648 539 648 421 c 0
 648 239 562 -12 308 -12 c 0xac
 284 -12 262 -10 241 -5 c 1
 188 -127 l 1
 111 -106 l 1
 169 25 l 1
 101 68 61 150 61 265 c 0
 61 441 147 701 402 701 c 0x6c
 425 701 447 699 467 694 c 1x9c
 522 819 l 1
 599 798 l 1
 539 665 l 1xac
398 623 m 0
 211 623 159 403 159 255 c 0
 159 173 178 124 211 96 c 1
 442 619 l 1
 428 622 414 623 398 623 c 0
311 66 m 0
 500 66 550 288 550 438 c 0
 550 518 531 568 496 595 c 1
 266 70 l 1
 280 67 295 66 311 66 c 0
EndSplineSet
Substitution2: "'c2sc' Capitals to Small Capitals lookup 23 subtable" oslash.sc
Substitution2: "'aalt' Access All Alternates lookup 0 subtable" oslash.sc
Position2: "'cpsp' Capital Spacing lookup 0 subtable" dx=5 dy=0 dh=10 dv=0
EndChar
StartChar: Ugrave
Encoding: 217 217 266
Width: 656
GlyphClass: 2
Flags: MW
HStem: -12 80<248.5 346 248.5 368> 669 20G<149 243 243 243 532 627 627 627>
VStem: 80.08 94.78
AnchorPoint: "Anchor-14" 0 0 basechar 0
AnchorPoint: "Anchor-13" 637 689 basechar 0
AnchorPoint: "Anchor-12" 410 911 basechar 0
AnchorPoint: "Anchor-11" 387 0 basechar 0
AnchorPoint: "Anchor-10" 291 0 basechar 0
LayerCount: 2
Back
Fore
SplineSet
340 911 m 1
 525 804 l 1
 495 755 l 1
 291 834 l 1
 340 911 l 1
627 689 m 1
 561 218 l 2
 541 81 444 -12 292 -12 c 0
 135 -12 64 87 83 224 c 2
 149 689 l 1
 243 689 l 1
 178 225 l 2
 163 118 201 68 296 68 c 0
 396 68 452 124 467 231 c 2
 532 689 l 1
 627 689 l 1
EndSplineSet
Substitution2: "'c2sc' Capitals to Small Capitals lookup 27 subtable" ugrave.sc
Substitution2: "'aalt' Access All Alternates lookup 0 subtable" ugrave.sc
Position2: "'cpsp' Capital Spacing lookup 0 subtable" dx=5 dy=0 dh=10 dv=0
EndChar

StartChar: Ucircumflex
Encoding: 219 219 104
Width: 656
GlyphClass: 2
Flags: MW
HStem: -12 80<248.5 346 248.5 368> 669 20G<149 243 243 243 532 627 627 627> 840 74<417 417>
VStem: 80.08 94.78
AnchorPoint: "Anchor-11" 0 0 basechar 0
AnchorPoint: "Anchor-10" 0 0 basechar 0
AnchorPoint: "Anchor-9" 388 689 basechar 0
AnchorPoint: "Anchor-8" 387 0 basechar 0
LayerCount: 2
Fore
SplineSet
417 840 m 1
 282 759 l 1
 245 804 l 1
 394 914 l 1
 454 914 l 1
 573 804 l 1
 532 759 l 1
 417 840 l 1
561 218 m 2
 541 81 444 -12 292 -12 c 0
 135 -12 64 87 83 224 c 2
 149 689 l 1
 243 689 l 1
 178 225 l 2
 163 118 201 68 296 68 c 0
 396 68 452 124 467 231 c 2
 532 689 l 1
 627 689 l 1
 561 218 l 2
EndSplineSet
Substitution2: "'c2sc' Capitals to Small Capitals lookup 23 subtable" ucircumflex.sc
Substitution2: "'aalt' Access All Alternates lookup 0 subtable" ucircumflex.sc
Position2: "'cpsp' Capital Spacing lookup 0 subtable" dx=5 dy=0 dh=10 dv=0
EndChar
StartChar: Udieresis
Encoding: 220 220 260
Width: 656
GlyphClass: 2
Flags: MW
HStem: -12 80<248.5 346 248.5 368> 669 20G<149 243 243 243 532 627 627 627> 780 114<293.5 316 501 523.5>
VStem: 80.08 94.78 249 111 457 111
AnchorPoint: "Anchor-14" 0 0 basechar 0
AnchorPoint: "Anchor-13" 637 689 basechar 0
AnchorPoint: "Anchor-12" 411 894 basechar 0
AnchorPoint: "Anchor-11" 387 0 basechar 0
AnchorPoint: "Anchor-10" 291 0 basechar 0
LayerCount: 2
Back
Fore
SplineSet
309 894 m 0
 343 894 365 866 360 832 c 0
 356 802 331 780 301 780 c 0
 266 780 244 808 249 842 c 0
 253 872 278 894 309 894 c 0
516 894 m 0
 551 894 573 866 568 832 c 0
 564 802 539 780 508 780 c 0
 474 780 452 808 457 842 c 0
 461 872 486 894 516 894 c 0
627 689 m 1
 561 218 l 2
 541 81 444 -12 292 -12 c 0
 135 -12 64 87 83 224 c 2
 149 689 l 1
 243 689 l 1
 178 225 l 2
 163 118 201 68 296 68 c 0
 396 68 452 124 467 231 c 2
 532 689 l 1
 627 689 l 1
EndSplineSet
Substitution2: "'c2sc' Capitals to Small Capitals lookup 27 subtable" udieresis.sc
Substitution2: "'aalt' Access All Alternates lookup 0 subtable" udieresis.sc
Position2: "'cpsp' Capital Spacing lookup 0 subtable" dx=5 dy=0 dh=10 dv=0
EndChar
StartChar: Yacute
Encoding: 221 221 294
Width: 544
GlyphClass: 2
Flags: MW
HStem: 0 21G<187 283 187 187> 669 20G<65 164 164 164 497 600 600 600>
VStem: 65 535<689 689>
AnchorPoint: "Anchor-14" 0 0 basechar 0
AnchorPoint: "Anchor-13" 0 0 basechar 0
AnchorPoint: "Anchor-12" 357 911 basechar 0
AnchorPoint: "Anchor-11" 0 0 basechar 0
AnchorPoint: "Anchor-10" 235 0 basechar 0
LayerCount: 2
Back
Fore
SplineSet
446 911 m 1
 475 834 l 1
 252 755 l 1
 235 804 l 1
 446 911 l 1
600 689 m 1
 320 265 l 1
 283 0 l 1
 187 0 l 1
 225 264 l 1
 65 689 l 1
 164 689 l 1
 282 348 l 1
 497 689 l 1
 600 689 l 1
EndSplineSet
Substitution2: "'c2sc' Capitals to Small Capitals lookup 27 subtable" yacute.sc
Substitution2: "'aalt' Access All Alternates lookup 0 subtable" yacute.sc
Position2: "'cpsp' Capital Spacing lookup 0 subtable" dx=5 dy=0 dh=10 dv=0
EndChar

StartChar: Thorn
Encoding: 222 222 84
Width: 575
GlyphClass: 2
Flags: MW
HStem: 0 21G<62 156 62 62> 127 75<184 262 174 264> 497 74<236 313 226 319> 669 20G<159 253 253 253>
VStem: 459 100<339.5 427.5>
LayerCount: 2
Fore
SplineSet
319 571 m 2
 469 571 559 513 559 385 c 0
 559 265 490 127 262 127 c 2
 174 127 l 1
 156 0 l 1
 62 0 l 1
 159 689 l 1
 253 689 l 1
 236 571 l 1
 319 571 l 2
264 202 m 2
 417 202 459 294 459 385 c 0
 459 470 403 497 313 497 c 2
 226 497 l 1
 184 202 l 1
 264 202 l 2
EndSplineSet
Substitution2: "'c2sc' Capitals to Small Capitals lookup 23 subtable" thorn.sc
Substitution2: "'aalt' Access All Alternates lookup 0 subtable" thorn.sc
Position2: "'cpsp' Capital Spacing lookup 0 subtable" dx=5 dy=0 dh=10 dv=0
EndChar
StartChar: germandbls
Encoding: 223 223 629
Width: 583
GlyphClass: 2
Flags: MW
HStem: -213 21G<-49 -49> -12 74<309.5 367 309.5 398.5> 678 72<316 373.5>
VStem: 293 87<383 457 383 466.5> 429 87<569.5 639> 439 92<149 231>
LayerCount: 2
Back
Fore
SplineSet
380 422 m 0xf4
 380 344 531 331 531 175 c 0
 531 90 466 -12 331 -12 c 0
 280 -12 237 3 210 19 c 1
 243 81 l 1
 264 70 295 62 324 62 c 0
 410 62 439 126 439 172 c 0xf4
 439 290 293 305 293 409 c 0
 293 524 429 521 429 618 c 0
 429 660 395 678 352 678 c 0
 280 678 232 631 219 536 c 2
 148 29 l 2
 127 -120 68 -163 -49 -213 c 1
 -75 -144 l 1
 -3 -112 41 -84 57 29 c 2
 129 542 l 2
 147 675 228 750 353 750 c 0
 457 750 516 694 516 621 c 0xf8
 516 499 380 492 380 422 c 0xf4
EndSplineSet
Substitution2: "'smcp' Lowercase to Small Capitals lookup 28 subtable" germandbls.sc
Substitution2: "'aalt' Access All Alternates lookup 0 subtable" germandbls.sc
EndChar

StartChar: agrave
Encoding: 224 224 139
Width: 569
GlyphClass: 2
Flags: MW
HStem: -12 73<210.5 249> 466 73<266 351.5>
VStem: 50 98<145 248 145 262> 375 85
AnchorPoint: "Anchor-11" 0 0 basechar 0
AnchorPoint: "Anchor-10" 0 0 basechar 0
AnchorPoint: "Anchor-9" 333 527 basechar 0
AnchorPoint: "Anchor-8" 476 -12 basechar 0
LayerCount: 2
Fore
SplineSet
484 687 m 1
 451 638 l 1
 252 724 l 1
 303 801 l 1
 484 687 l 1
331 539 m 0
 394 539 449 528 519 494 c 1
 462 120 l 2
 461 112 460 105 460 99 c 0
 460 70 473 59 494 51 c 1
 468 -12 l 1
 415 -5 382 19 375 76 c 1
 334 23 280 -12 218 -12 c 0
 108 -12 50 69 50 190 c 0
 50 334 126 539 331 539 c 0
333 466 m 0
 199 466 148 307 148 189 c 0
 148 101 181 61 240 61 c 0
 296 61 337 103 378 158 c 1
 422 449 l 1
 392 462 370 466 333 466 c 0
EndSplineSet
Substitution2: "'smcp' Lowercase to Small Capitals lookup 24 subtable" agrave.sc
Substitution2: "'aalt' Access All Alternates lookup 0 subtable" agrave.sc
EndChar
StartChar: atilde
Encoding: 227 227 366
Width: 569
GlyphClass: 2
Flags: MW
HStem: -12 73<210.5 249> 466 73<266 351.5> 656 70<403 430 403 440.5> 704 70<297.5 325.5> 720 20G<534 534>
VStem: 50 98<145 248 145 262> 375 85
AnchorPoint: "Anchor-14" 0 0 basechar 0
AnchorPoint: "Anchor-13" 0 0 basechar 0
AnchorPoint: "Anchor-12" 367 774 basechar 0
AnchorPoint: "Anchor-11" 476 -12 basechar 0
AnchorPoint: "Anchor-10" 276 0 basechar 0
LayerCount: 2
Back
Fore
SplineSet
421 656 m 0xe4
 362 656 341 704 310 704 c 0
 285 704 267 686 247 656 c 1
 195 688 l 1
 225 737 264 774 312 774 c 0xd4
 369 774 387 726 419 726 c 0
 441 726 459 742 480 772 c 1xe4
 534 740 l 1xcc
 500 683 460 656 421 656 c 0xe4
331 539 m 0xce
 394 539 449 528 519 494 c 1
 462 120 l 2
 461 112 460 105 460 99 c 0
 460 70 473 59 494 51 c 1
 468 -12 l 1
 415 -5 382 19 375 76 c 1
 334 23 280 -12 218 -12 c 0
 108 -12 50 69 50 190 c 0
 50 334 126 539 331 539 c 0xce
333 466 m 0
 199 466 148 307 148 189 c 0
 148 101 181 61 240 61 c 0
 296 61 337 103 378 158 c 1
 422 449 l 1
 392 462 370 466 333 466 c 0
EndSplineSet
Substitution2: "'smcp' Lowercase to Small Capitals lookup 28 subtable" atilde.sc
Substitution2: "'aalt' Access All Alternates lookup 0 subtable" atilde.sc
EndChar

StartChar: aring
Encoding: 229 229 142
Width: 569
GlyphClass: 2
Flags: MW
HStem: -12 73<210.5 249> 466 73<266 351.5> 624 50<337.5 370 337.5 383> 786 50<352.5 385.5>
VStem: 50 98<145 248 145 262> 249 60 375 85 414 60
AnchorPoint: "Anchor-11" 0 0 basechar 0
AnchorPoint: "Anchor-10" 0 0 basechar 0
AnchorPoint: "Anchor-9" 333 527 basechar 0
AnchorPoint: "Anchor-8" 476 -12 basechar 0
LayerCount: 2
Fore
SplineSet
372 836 m 0xfd
 440 836 482 786 474 725 c 0
 466 668 415 624 351 624 c 0
 283 624 241 674 249 735 c 0
 257 792 308 836 372 836 c 0xfd
370 786 m 0
 335 786 314 765 309 725 c 0
 305 694 322 674 353 674 c 0
 387 674 408 697 414 735 c 0
 419 766 401 786 370 786 c 0
331 539 m 0
 394 539 449 528 519 494 c 1
 462 120 l 2
 461 112 460 105 460 99 c 0
 460 70 473 59 494 51 c 1
 468 -12 l 1
 415 -5 382 19 375 76 c 1xfe
 334 23 280 -12 218 -12 c 0
 108 -12 50 69 50 190 c 0
 50 334 126 539 331 539 c 0
333 466 m 0
 199 466 148 307 148 189 c 0
 148 101 181 61 240 61 c 0
 296 61 337 103 378 158 c 1
 422 449 l 1
 392 462 370 466 333 466 c 0
EndSplineSet
Substitution2: "'smcp' Lowercase to Small Capitals lookup 24 subtable" aring.sc
Substitution2: "'aalt' Access All Alternates lookup 0 subtable" aring.sc
EndChar

StartChar: ae
Encoding: 230 230 144
Width: 856
GlyphClass: 2
Flags: MW
HStem: -12 69<188 228.5> -12 77<538 596.5 538 598> 245 63<294 302 302 366> 466 73<592 660.5>
VStem: 38 100<102.5 169.5 102.5 173.5> 367 86 704 96<356.5 414.5>
AnchorPoint: "Anchor-11" 0 0 basechar 0
AnchorPoint: "Anchor-10" 0 0 basechar 0
AnchorPoint: "Anchor-9" 465 527 basechar 0
AnchorPoint: "Anchor-8" 0 0 basechar 0
LayerCount: 2
Fore
SplineSet
304 539 m 0xbe
 387 539 432 506 453 456 c 1
 490 502 551 539 633 539 c 0
 745 539 800 475 800 405 c 0
 800 255 639 219 453 200 c 1
 454 101 504 65 572 65 c 0
 621 65 665 80 713 114 c 1x7e
 752 52 l 1
 695 11 633 -12 563 -12 c 0
 480 -12 420 22 389 81 c 1
 331 12 267 -12 190 -12 c 0
 93 -12 38 44 38 127 c 0
 38 220 101 308 294 308 c 2
 375 308 l 1
 384 352 391 372 395 384 c 1
 392 431 342 464 281 464 c 0
 240 464 198 455 142 437 c 1
 124 509 l 1
 192 533 251 539 304 539 c 0xbe
632 466 m 0
 523 466 474 364 459 270 c 1
 612 287 704 311 704 402 c 0
 704 427 689 466 632 466 c 0
302 245 m 2
 197 245 138 213 138 126 c 0
 138 79 163 57 213 57 c 0
 271 57 319 87 367 151 c 1
 364 167 364 230 366 245 c 1
 302 245 l 2
EndSplineSet
Substitution2: "'smcp' Lowercase to Small Capitals lookup 24 subtable" ae.sc
Substitution2: "'aalt' Access All Alternates lookup 0 subtable" ae.sc
EndChar

StartChar: ccedilla
Encoding: 231 231 150
Width: 472
GlyphClass: 2
Flags: MW
HStem: -241 60<193 220 193 253.5> -214 21G<118 118> -99 43 -12 78<265 265> -8 21G<205 205> 463 76<253.5 340.5>
VStem: 52 96<150 250.5 150 272> 265 75
AnchorPoint: "Anchor-11" 244 0 basechar 0
AnchorPoint: "Anchor-10" 0 0 basechar 0
AnchorPoint: "Anchor-9" 323 527 basechar 0
AnchorPoint: "Anchor-8" 0 0 basechar 0
LayerCount: 2
Fore
SplineSet
320 463 m 0x6f
 187 463 148 305 148 196 c 0
 148 104 188 66 255 66 c 0
 301 66 335 81 377 107 c 1
 414 43 l 1
 367 10 317 -8 265 -12 c 1
 258 -56 l 1
 317 -61 340 -95 340 -132 c 0
 340 -185 300 -241 207 -241 c 0xb7
 168 -241 137 -229 118 -214 c 1x6f
 149 -165 l 1
 164 -175 181 -181 205 -181 c 0xaf
 235 -181 264 -166 265 -138 c 0
 266 -109 247 -99 183 -99 c 1
 205 -8 l 1
 107 9 52 85 52 203 c 0
 52 341 124 539 319 539 c 0
 378 539 429 522 472 481 c 1
 423 424 l 1
 391 452 361 463 320 463 c 0x6f
EndSplineSet
Substitution2: "'smcp' Lowercase to Small Capitals lookup 24 subtable" ccedilla.sc
Substitution2: "'aalt' Access All Alternates lookup 0 subtable" ccedilla.sc
EndChar

StartChar: eacute
Encoding: 233 233 158
Width: 523
GlyphClass: 2
Flags: MW
HStem: -12 77<228.5 286.5 228.5 288> 466 73<267 350.5>
VStem: 52 96 394 96<357 414.5>
AnchorPoint: "Anchor-11" 254 0 basechar 0
AnchorPoint: "Anchor-10" 0 0 basechar 0
AnchorPoint: "Anchor-9" 314 527 basechar 0
AnchorPoint: "Anchor-8" 360 6 basechar 0
LayerCount: 2
Fore
SplineSet
230 638 m 1
 209 687 l 1
 420 801 l 1
 450 724 l 1
 230 638 l 1
490 405 m 0
 490 257 332 216 148 196 c 1
 150 100 195 65 262 65 c 0
 311 65 355 80 403 114 c 1
 442 52 l 1
 385 11 323 -12 253 -12 c 0
 124 -12 52 69 52 202 c 0
 52 346 123 539 323 539 c 0
 435 539 490 475 490 405 c 0
153 266 m 1
 304 283 394 312 394 402 c 0
 394 427 379 466 322 466 c 0
 212 466 166 362 153 266 c 1
EndSplineSet
Substitution2: "'smcp' Lowercase to Small Capitals lookup 24 subtable" eacute.sc
Substitution2: "'aalt' Access All Alternates lookup 0 subtable" eacute.sc
EndChar

StartChar: igrave
Encoding: 236 236 183
Width: 280
GlyphClass: 2
Flags: MW
HStem: 0 21G<57 149 57 57> 507 20G<131 223 223 223>
VStem: 57 271
AnchorPoint: "Anchor-11" 0 0 basechar 0
AnchorPoint: "Anchor-10" 0 0 basechar 0
AnchorPoint: "Anchor-9" 177 527 basechar 0
AnchorPoint: "Anchor-8" 158 0 basechar 0
LayerCount: 2
Fore
SplineSet
328 687 m 1
 295 638 l 1
 96 724 l 1
 147 801 l 1
 328 687 l 1
149 0 m 1
 57 0 l 1
 131 527 l 1
 223 527 l 1
 149 0 l 1
EndSplineSet
Substitution2: "'smcp' Lowercase to Small Capitals lookup 24 subtable" igrave.sc
Substitution2: "'aalt' Access All Alternates lookup 0 subtable" igrave.sc
EndChar
StartChar: iacute
Encoding: 237 237 479
Width: 279
GlyphClass: 2
Flags: MW
HStem: 0 21G<57 148 57 57> 507 20G<131 222 222 222>
VStem: 57 267
AnchorPoint: "Anchor-14" 0 0 basechar 0
AnchorPoint: "Anchor-13" 0 0 basechar 0
AnchorPoint: "Anchor-12" 206 801 basechar 0
AnchorPoint: "Anchor-11" 127 0 basechar 0
AnchorPoint: "Anchor-10" 102 0 basechar 0
LayerCount: 2
Back
Fore
SplineSet
294 801 m 1
 324 724 l 1
 104 638 l 1
 83 687 l 1
 294 801 l 1
222 527 m 1
 148 0 l 1
 57 0 l 1
 131 527 l 1
 222 527 l 1
EndSplineSet
Substitution2: "'smcp' Lowercase to Small Capitals lookup 28 subtable" iacute.sc
Substitution2: "'aalt' Access All Alternates lookup 0 subtable" iacute.sc
EndChar
StartChar: icircumflex
Encoding: 238 238 482
Width: 279
GlyphClass: 2
Flags: MW
HStem: 0 21G<57 148 57 57> 507 20G<131 222 222 222>
VStem: 31 328<679 679>
AnchorPoint: "Anchor-14" 0 0 basechar 0
AnchorPoint: "Anchor-13" 0 0 basechar 0
AnchorPoint: "Anchor-12" 209 792 basechar 0
AnchorPoint: "Anchor-11" 127 0 basechar 0
AnchorPoint: "Anchor-10" 102 0 basechar 0
LayerCount: 2
Back
Fore
SplineSet
68 634 m 1
 31 679 l 1
 180 792 l 1
 240 792 l 1
 359 679 l 1
 315 634 l 1
 202 718 l 1
 68 634 l 1
222 527 m 1
 148 0 l 1
 57 0 l 1
 131 527 l 1
 222 527 l 1
EndSplineSet
Substitution2: "'smcp' Lowercase to Small Capitals lookup 28 subtable" icircumflex.sc
Substitution2: "'aalt' Access All Alternates lookup 0 subtable" icircumflex.sc
EndChar

StartChar: idieresis
Encoding: 239 239 181
Width: 280
GlyphClass: 2
Flags: MW
HStem: 0 21G<57 149 57 57> 507 20G<131 223 223 223> 654 114<82.5 105 290 312.5>
VStem: 38 111 246 111
AnchorPoint: "Anchor-11" 0 0 basechar 0
AnchorPoint: "Anchor-10" 0 0 basechar 0
AnchorPoint: "Anchor-9" 195 687 basechar 0
AnchorPoint: "Anchor-8" 158 0 basechar 0
LayerCount: 2
Fore
SplineSet
98 768 m 0
 132 768 154 740 149 706 c 0
 145 676 120 654 90 654 c 0
 55 654 33 682 38 716 c 0
 42 746 67 768 98 768 c 0
305 768 m 0
 340 768 362 740 357 706 c 0
 353 676 328 654 297 654 c 0
 263 654 241 682 246 716 c 0
 250 746 275 768 305 768 c 0
149 0 m 1
 57 0 l 1
 131 527 l 1
 223 527 l 1
 149 0 l 1
EndSplineSet
Substitution2: "'smcp' Lowercase to Small Capitals lookup 24 subtable" idieresis.sc
Substitution2: "'aalt' Access All Alternates lookup 0 subtable" idieresis.sc
EndChar
StartChar: eth
Encoding: 240 240 391
Width: 564
GlyphClass: 2
Flags: MW
HStem: -12 73<211 283 211 309.5> 403 72<230 313 195 322.5> 551 20G<192 192> 679 20G<336 336> 729 20G
VStem: 49 93<145.5 233.5 145.5 250.5> 421 91
AnchorPoint: "Anchor-14" 0 0 basechar 0
AnchorPoint: "Anchor-13" 0 0 basechar 0
AnchorPoint: "Anchor-12" 336 739 basechar 0
AnchorPoint: "Anchor-11" 0 0 basechar 0
AnchorPoint: "Anchor-10" 244 0 basechar 0
LayerCount: 2
Back
Fore
SplineSet
392 660 m 1
 477 589 512 498 512 377 c 0
 512 341 509 302 503 260 c 0
 479 94 379 -12 240 -12 c 0
 130 -12 49 61 49 190 c 0
 49 311 109 475 281 475 c 0
 345 475 391 452 421 413 c 1
 417 494 392 556 335 610 c 1
 252 539 l 1
 192 571 l 1
 277 647 l 1
 241 663 210 672 171 680 c 1
 196 749 l 1
 250 738 295 724 336 699 c 1
 418 776 l 1
 466 729 l 1
 392 660 l 1
242 61 m 0
 324 61 393 134 412 271 c 0
 415 291 417 310 418 328 c 1
 392 378 352 403 293 403 c 0
 167 403 142 279 142 188 c 0
 142 103 180 61 242 61 c 0
EndSplineSet
Substitution2: "'smcp' Lowercase to Small Capitals lookup 28 subtable" eth.sc
Substitution2: "'aalt' Access All Alternates lookup 0 subtable" eth.sc
EndChar

StartChar: ntilde
Encoding: 241 241 207
Width: 580
GlyphClass: 2
Flags: MW
HStem: 0 21G<57 148 57 57 363 454 363 363> 462 77<349 373.5> 507 20G<131 209 209 209> 656 70<397 424 397 434.5> 668 20G<189 189> 704 70<291.5 319.5> 720 20G<528 528>
VStem: 417.28 92.1
AnchorPoint: "Anchor-11" 253 0 basechar 0
AnchorPoint: "Anchor-10" 121 527 basechar 0
AnchorPoint: "Anchor-9" 332 527 basechar 0
AnchorPoint: "Anchor-8" 0 0 basechar 0
LayerCount: 2
Fore
SplineSet
415 656 m 0xd1
 356 656 335 704 304 704 c 0
 279 704 261 686 241 656 c 1xcd
 189 688 l 1xcb
 219 737 258 774 306 774 c 0xcd
 363 774 381 726 413 726 c 0
 435 726 453 742 474 772 c 1xd1
 528 740 l 1xcb
 494 683 454 656 415 656 c 0xd1
384 539 m 0xcb
 473 539 521 475 507 375 c 2
 454 0 l 1
 363 0 l 1
 415 368 l 2
 426 447 397 462 350 462 c 0xcb
 292 462 233 391 191 316 c 1
 148 0 l 1
 57 0 l 1
 131 527 l 1
 209 527 l 1xab
 201 424 l 1
 250 493 314 539 384 539 c 0xcb
EndSplineSet
Substitution2: "'smcp' Lowercase to Small Capitals lookup 24 subtable" ntilde.sc
Substitution2: "'aalt' Access All Alternates lookup 0 subtable" ntilde.sc
EndChar
StartChar: otilde
Encoding: 245 245 588
Width: 578
GlyphClass: 2
Flags: MW
HStem: -12 74<221.5 325.5 221.5 357.5> 465 74<253.5 357> 656 70<391 418 391 428.5> 704 70<285.5 313.5> 720 20G<522 522>
VStem: 52 96<150 246.5 150 271> 430 96<280.5 377>
AnchorPoint: "Anchor-14" 0 0 basechar 0
AnchorPoint: "Anchor-13" 512 527 basechar 0
AnchorPoint: "Anchor-12" 355 774 basechar 0
AnchorPoint: "Anchor-11" 0 0 basechar 0
AnchorPoint: "Anchor-10" 254 0 basechar 0
LayerCount: 2
Back
Fore
SplineSet
409 656 m 0xe6
 350 656 329 704 298 704 c 0
 273 704 255 686 235 656 c 1
 183 688 l 1
 213 737 252 774 300 774 c 0xd6
 357 774 375 726 407 726 c 0
 429 726 447 742 468 772 c 1xe6
 522 740 l 1xce
 488 683 448 656 409 656 c 0xe6
325 539 m 0xce
 456 539 526 455 526 321 c 0
 526 194 461 -12 254 -12 c 0
 123 -12 52 72 52 206 c 0
 52 336 119 539 325 539 c 0xce
322 465 m 0
 185 465 148 297 148 196 c 0
 148 104 186 62 257 62 c 0
 394 62 430 230 430 331 c 0
 430 423 392 465 322 465 c 0
EndSplineSet
Substitution2: "'smcp' Lowercase to Small Capitals lookup 28 subtable" otilde.sc
Substitution2: "'aalt' Access All Alternates lookup 0 subtable" otilde.sc
EndChar

StartChar: divide
Encoding: 247 247 1091
Width: 494
Flags: MW
HStem: 35 139<213.5 243> 294 77<76 437 65 448> 492 139<277.5 307>
VStem: 160 137<90 119> 224 137<547 576>
LayerCount: 2
Fore
SplineSet
298 631 m 0x68
 336 631 361 603 361 568 c 0
 361 526 328 492 286 492 c 0
 249 492 224 520 224 555 c 0
 224 597 257 631 298 631 c 0x68
76 371 m 1
 448 371 l 1
 437 294 l 1
 65 294 l 1
 76 371 l 1
234 174 m 0xd0
 272 174 297 146 297 111 c 0
 297 69 264 35 222 35 c 0
 185 35 160 63 160 98 c 0
 160 140 193 174 234 174 c 0xd0
EndSplineSet
Substitution2: "'onum' Oldstyle Figures lookup 22 subtable" divide.osf
Substitution2: "'tnum' Tabular Numbers lookup 21 subtable" divide.tf
AlternateSubs2: "'aalt' Access All Alternates lookup 1 subtable" divide.tf divide.osf
EndChar
StartChar: ugrave
Encoding: 249 249 670
Width: 576
GlyphClass: 2
Flags: MW
HStem: -12 72<196.5 236.5> 0 21G<367 445 367 367> 507 20G<126 217 217 217 428 519 519 519>
VStem: 70.57 91.98
AnchorPoint: "Anchor-14" 0 0 basechar 0
AnchorPoint: "Anchor-13" 529 527 basechar 0
AnchorPoint: "Anchor-12" 362 801 basechar 0
AnchorPoint: "Anchor-11" 454 0 basechar 0
AnchorPoint: "Anchor-10" 251 0 basechar 0
LayerCount: 2
Back
Fore
SplineSet
295 801 m 1xb0
 476 687 l 1
 443 638 l 1
 244 724 l 1
 295 801 l 1xb0
519 527 m 1
 445 0 l 1
 367 0 l 1x70
 374 97 l 1
 325 30 273 -12 200 -12 c 0
 106 -12 59 49 73 152 c 2
 126 527 l 1
 217 527 l 1
 165 156 l 2
 155 84 173 60 220 60 c 0
 286 60 339 123 380 184 c 1
 428 527 l 1
 519 527 l 1
EndSplineSet
Substitution2: "'smcp' Lowercase to Small Capitals lookup 28 subtable" ugrave.sc
Substitution2: "'aalt' Access All Alternates lookup 0 subtable" ugrave.sc
EndChar
StartChar: ucircumflex
Encoding: 251 251 662
Width: 576
GlyphClass: 2
Flags: MW
HStem: -12 72<196.5 236.5> 0 21G<367 445 367 367> 507 20G<126 217 217 217 428 519 519 519>
VStem: 70.57 91.98
AnchorPoint: "Anchor-14" 0 0 basechar 0
AnchorPoint: "Anchor-13" 529 527 basechar 0
AnchorPoint: "Anchor-12" 356 792 basechar 0
AnchorPoint: "Anchor-11" 454 0 basechar 0
AnchorPoint: "Anchor-10" 251 0 basechar 0
LayerCount: 2
Back
Fore
SplineSet
215 634 m 1xb0
 178 679 l 1
 327 792 l 1
 387 792 l 1
 506 679 l 1
 462 634 l 1
 349 718 l 1
 215 634 l 1xb0
519 527 m 1
 445 0 l 1
 367 0 l 1x70
 374 97 l 1
 325 30 273 -12 200 -12 c 0
 106 -12 59 49 73 152 c 2
 126 527 l 1
 217 527 l 1
 165 156 l 2
 155 84 173 60 220 60 c 0
 286 60 339 123 380 184 c 1
 428 527 l 1
 519 527 l 1
EndSplineSet
Substitution2: "'smcp' Lowercase to Small Capitals lookup 28 subtable" ucircumflex.sc
Substitution2: "'aalt' Access All Alternates lookup 0 subtable" ucircumflex.sc
EndChar

StartChar: udieresis
Encoding: 252 252 243
Width: 576
GlyphClass: 2
Flags: MW
HStem: -12 72<196.5 236.5> 0 21G<367 445 367 367> 507 20G<126 217 217 217 428 519 519 519> 654 114<230.5 253 438 460.5>
VStem: 70.57 91.98 186 111 394 111
AnchorPoint: "Anchor-11" 0 0 basechar 0
AnchorPoint: "Anchor-10" 0 0 basechar 0
AnchorPoint: "Anchor-9" 343 687 basechar 0
AnchorPoint: "Anchor-8" 454 0 basechar 0
LayerCount: 2
Fore
SplineSet
246 768 m 0x7e
 280 768 302 740 297 706 c 0
 293 676 268 654 238 654 c 0
 203 654 181 682 186 716 c 0
 190 746 215 768 246 768 c 0x7e
453 768 m 0
 488 768 510 740 505 706 c 0
 501 676 476 654 445 654 c 0
 411 654 389 682 394 716 c 0
 398 746 423 768 453 768 c 0
445 0 m 1
 367 0 l 1x78
 374 97 l 1
 325 30 273 -12 200 -12 c 0
 106 -12 59 49 73 152 c 2
 126 527 l 1
 217 527 l 1
 165 156 l 2
 155 84 173 60 220 60 c 0xb8
 286 60 339 123 380 184 c 1
 428 527 l 1
 519 527 l 1
 445 0 l 1
EndSplineSet
Substitution2: "'smcp' Lowercase to Small Capitals lookup 24 subtable" udieresis.sc
Substitution2: "'aalt' Access All Alternates lookup 0 subtable" udieresis.sc
EndChar

StartChar: ydieresis
Encoding: 255 255 260
Width: 486
GlyphClass: 2
Flags: MW
HStem: -213 21G<-5 -5> 0 21G<148 148> 507 20G<47 143 143 143 419 514 514 514> 654 114<185.5 208 393 415.5>
VStem: 141 111 349 111
AnchorPoint: "Anchor-11" 0 0 basechar 0
AnchorPoint: "Anchor-10" 0 0 basechar 0
AnchorPoint: "Anchor-9" 298 687 basechar 0
AnchorPoint: "Anchor-8" 0 0 basechar 0
LayerCount: 2
Fore
SplineSet
201 768 m 0
 235 768 257 740 252 706 c 0
 248 676 223 654 193 654 c 0
 158 654 136 682 141 716 c 0
 145 746 170 768 201 768 c 0
408 768 m 0
 443 768 465 740 460 706 c 0
 456 676 431 654 400 654 c 0
 366 654 344 682 349 716 c 0
 353 746 378 768 408 768 c 0
270 -5 m 2
 219 -117 141 -197 -5 -213 c 1
 -9 -141 l 1
 100 -123 137 -80 178 2 c 1
 148 0 l 1
 47 527 l 1
 143 527 l 1
 217 70 l 1
 419 527 l 1
 514 527 l 1
 270 -5 l 2
EndSplineSet
Substitution2: "'smcp' Lowercase to Small Capitals lookup 24 subtable" ydieresis.sc
Substitution2: "'aalt' Access All Alternates lookup 0 subtable" ydieresis.sc
EndChar
StartChar: Amacron
Encoding: 256 256 27
Width: 567
GlyphClass: 2
Flags: MW
HStem: 0 21G<-32 65 -32 -32 427 524 427 427> 173 77<174 388 174 400 141 388> 610 79<332 332> 669 20G<284 403 403 403> 793 69<232 494 223 503>
VStem: -32 556<0 0>
AnchorPoint: "Anchor-14" 0 0 basechar 0
AnchorPoint: "Anchor-13" 0 0 basechar 0
AnchorPoint: "Anchor-12" 365 862 basechar 0
AnchorPoint: "Anchor-11" 495 0 basechar 0
AnchorPoint: "Anchor-10" 246 0 basechar 0
LayerCount: 2
Back
Fore
SplineSet
503 862 m 1xdc
 494 793 l 1
 223 793 l 1
 232 862 l 1
 503 862 l 1xdc
427 0 m 1
 400 173 l 1
 141 173 l 1
 65 0 l 1
 -32 0 l 1
 284 689 l 1
 403 689 l 1
 524 0 l 1
 427 0 l 1
174 250 m 1
 388 250 l 1
 332 610 l 1xec
 174 250 l 1
EndSplineSet
Substitution2: "'c2sc' Capitals to Small Capitals lookup 27 subtable" amacron.sc
Substitution2: "'aalt' Access All Alternates lookup 0 subtable" amacron.sc
Position2: "'cpsp' Capital Spacing lookup 0 subtable" dx=5 dy=0 dh=10 dv=0
EndChar

StartChar: Abreve
Encoding: 258 258 3
Width: 567
GlyphClass: 2
Flags: MW
HStem: 0 21G<-32 65 -32 -32 427 427 427 524> 173 77<174 388 174 400 141 388> 610 79<332 332> 669 20G<284 403 403 403> 758 70<327.5 374 327.5 387>
VStem: -32 556<0 0>
AnchorPoint: "Anchor-11" 0 0 basechar 0
AnchorPoint: "Anchor-10" 144 527 basechar 0
AnchorPoint: "Anchor-9" 344 689 basechar 0
AnchorPoint: "Anchor-8" 495 0 basechar 0
LayerCount: 2
Fore
SplineSet
348 758 m 0xdc
 267 758 212 810 214 884 c 1
 273 892 l 1
 282 852 305 828 350 828 c 0
 398 828 434 856 453 896 c 1
 513 878 l 1
 495 804 426 758 348 758 c 0xdc
400 173 m 1
 141 173 l 1
 65 0 l 1
 -32 0 l 1
 284 689 l 1
 403 689 l 1
 524 0 l 1
 427 0 l 1
 400 173 l 1
388 250 m 1
 332 610 l 1xec
 174 250 l 1
 388 250 l 1
EndSplineSet
Substitution2: "'c2sc' Capitals to Small Capitals lookup 23 subtable" abreve.sc
Substitution2: "'aalt' Access All Alternates lookup 0 subtable" abreve.sc
Position2: "'cpsp' Capital Spacing lookup 0 subtable" dx=5 dy=0 dh=10 dv=0
EndChar

StartChar: abreve
Encoding: 259 259 136
Width: 569
GlyphClass: 2
Flags: MW
HStem: -12 73<210.5 249> 466 73<266 351.5> 643 70<330.5 377 330.5 390>
VStem: 50 98<145 248 145 262> 218 62<779 787> 375 85
AnchorPoint: "Anchor-11" 0 0 basechar 0
AnchorPoint: "Anchor-10" 0 0 basechar 0
AnchorPoint: "Anchor-9" 333 527 basechar 0
AnchorPoint: "Anchor-8" 476 -12 basechar 0
LayerCount: 2
Fore
SplineSet
351 643 m 0
 270 643 215 695 218 779 c 1
 280 787 l 1
 287 737 308 713 353 713 c 0
 401 713 438 741 458 791 c 1
 518 773 l 1
 498 689 429 643 351 643 c 0
331 539 m 0
 394 539 449 528 519 494 c 1
 462 120 l 2
 461 112 460 105 460 99 c 0
 460 70 473 59 494 51 c 1
 468 -12 l 1
 415 -5 382 19 375 76 c 1
 334 23 280 -12 218 -12 c 0
 108 -12 50 69 50 190 c 0
 50 334 126 539 331 539 c 0
333 466 m 0
 199 466 148 307 148 189 c 0
 148 101 181 61 240 61 c 0
 296 61 337 103 378 158 c 1
 422 449 l 1
 392 462 370 466 333 466 c 0
EndSplineSet
Substitution2: "'smcp' Lowercase to Small Capitals lookup 24 subtable" abreve.sc
Substitution2: "'aalt' Access All Alternates lookup 0 subtable" abreve.sc
EndChar
StartChar: Aogonek
Encoding: 260 260 28
Width: 567
GlyphClass: 2
Flags: MW
HStem: -231 70<377 391> 0 20 173 77<174 388 174 400 141 388> 610 79<332 332> 669 20G<284 403 403 403>
VStem: 265 80<-137 -110.5 -137 -110.5>
AnchorPoint: "Anchor-14" 0 0 basechar 0
AnchorPoint: "Anchor-13" 0 0 basechar 0
AnchorPoint: "Anchor-12" 344 689 basechar 0
AnchorPoint: "Anchor-11" 495 0 basechar 0
AnchorPoint: "Anchor-10" 246 0 basechar 0
LayerCount: 2
Back
Fore
SplineSet
487 0 m 1xec
 361 -52 345 -95 345 -126 c 0
 345 -148 362 -161 392 -161 c 0
 414 -161 431 -158 455 -153 c 1
 440 -225 l 1
 420 -229 403 -231 379 -231 c 0
 307 -231 265 -190 265 -137 c 0
 265 -84 295 -25 424 20 c 1
 400 173 l 1
 141 173 l 1
 65 0 l 1
 -32 0 l 1
 284 689 l 1
 403 689 l 1
 524 0 l 1
 487 0 l 1xec
174 250 m 1
 388 250 l 1
 332 610 l 1xf4
 174 250 l 1
EndSplineSet
Substitution2: "'c2sc' Capitals to Small Capitals lookup 27 subtable" aogonek.sc
Substitution2: "'aalt' Access All Alternates lookup 0 subtable" aogonek.sc
Position2: "'cpsp' Capital Spacing lookup 0 subtable" dx=5 dy=0 dh=10 dv=0
EndChar
StartChar: aogonek
Encoding: 261 261 362
Width: 569
GlyphClass: 2
Flags: MW
HStem: -243 70<358 372> -12 21G<163 249 468 468> -12 73<210.5 249> 466 73<266 351.5>
VStem: 50 98<145 248 145 262> 246 80<-149 -122.5 -149 -122.5> 375 85
AnchorPoint: "Anchor-14" 0 0 basechar 0
AnchorPoint: "Anchor-13" 0 0 basechar 0
AnchorPoint: "Anchor-12" 338 527 basechar 0
AnchorPoint: "Anchor-11" 476 -12 basechar 0
AnchorPoint: "Anchor-10" 276 0 basechar 0
LayerCount: 2
Back
Fore
SplineSet
460 99 m 0xbe
 460 70 473 59 494 51 c 1
 468 -12 l 1
 342 -64 326 -107 326 -138 c 0
 326 -160 343 -173 373 -173 c 0
 395 -173 412 -170 436 -165 c 1
 421 -237 l 1
 401 -241 384 -243 360 -243 c 0
 288 -243 246 -202 246 -149 c 0
 246 -96 277 -36 409 9 c 1xde
 391 23 379 45 375 76 c 1
 334 23 280 -12 218 -12 c 0
 108 -12 50 69 50 190 c 0
 50 334 126 539 331 539 c 0
 394 539 449 528 519 494 c 1
 462 120 l 2
 461 112 460 105 460 99 c 0xbe
378 158 m 1
 422 449 l 1
 392 462 370 466 333 466 c 0
 199 466 148 307 148 189 c 0
 148 101 181 61 240 61 c 0
 296 61 337 103 378 158 c 1
EndSplineSet
Substitution2: "'smcp' Lowercase to Small Capitals lookup 28 subtable" aogonek.sc
Substitution2: "'aalt' Access All Alternates lookup 0 subtable" aogonek.sc
EndChar

StartChar: Cacute
Encoding: 262 262 15
Width: 555
GlyphClass: 2
Flags: MW
HStem: -12 80<268 345.5 268 351> 623 78<309.5 422.5>
VStem: 61 99<191 337.5 191 360>
AnchorPoint: "Anchor-11" 307 0 basechar 0
AnchorPoint: "Anchor-10" 0 0 basechar 0
AnchorPoint: "Anchor-9" 405 689 basechar 0
AnchorPoint: "Anchor-8" 0 0 basechar 0
LayerCount: 2
Fore
SplineSet
545 834 m 1
 322 755 l 1
 305 804 l 1
 516 911 l 1
 545 834 l 1
394 701 m 0
 474 701 531 675 579 630 c 1
 522 574 l 1
 484 609 445 623 400 623 c 0
 219 623 160 415 160 260 c 0
 160 122 224 68 312 68 c 0
 379 68 425 99 467 128 c 1
 509 63 l 1
 464 25 396 -12 306 -12 c 0
 159 -12 61 86 61 268 c 0
 61 452 155 701 394 701 c 0
EndSplineSet
Substitution2: "'c2sc' Capitals to Small Capitals lookup 23 subtable" cacute.sc
Substitution2: "'locl' Localized Forms in Latin lookup 7 subtable" Cacute.loclPLK
AlternateSubs2: "'aalt' Access All Alternates lookup 1 subtable" Cacute.loclPLK cacute.sc
Position2: "'cpsp' Capital Spacing lookup 0 subtable" dx=5 dy=0 dh=10 dv=0
EndChar
StartChar: cacute
Encoding: 263 263 381
Width: 472
GlyphClass: 2
Flags: MW
HStem: -12 78<221.5 278 221.5 278> 463 76<253.5 340.5>
VStem: 52 96<150 250.5 150 272>
AnchorPoint: "Anchor-14" 0 0 basechar 0
AnchorPoint: "Anchor-13" 0 0 basechar 0
AnchorPoint: "Anchor-12" 353 801 basechar 0
AnchorPoint: "Anchor-11" 0 0 basechar 0
AnchorPoint: "Anchor-10" 244 0 basechar 0
LayerCount: 2
Back
Fore
SplineSet
441 801 m 1
 471 724 l 1
 251 638 l 1
 230 687 l 1
 441 801 l 1
319 539 m 0
 378 539 429 522 472 481 c 1
 423 424 l 1
 391 452 361 463 320 463 c 0
 187 463 148 305 148 196 c 0
 148 104 188 66 255 66 c 0
 301 66 335 81 377 107 c 1
 414 43 l 1
 362 6 307 -12 249 -12 c 0
 124 -12 52 68 52 203 c 0
 52 341 124 539 319 539 c 0
EndSplineSet
Substitution2: "'smcp' Lowercase to Small Capitals lookup 28 subtable" cacute.sc
Substitution2: "'locl' Localized Forms in Latin lookup 7 subtable" cacute.loclPLK
AlternateSubs2: "'aalt' Access All Alternates lookup 1 subtable" cacute.loclPLK cacute.sc
EndChar

StartChar: ccircumflex
Encoding: 265 265 151
Width: 472
GlyphClass: 2
Flags: MW
HStem: -12 78<221.5 278 221.5 278> 463 76<253.5 340.5> 718 74<351 351>
VStem: 52 96<150 250.5 150 272>
AnchorPoint: "Anchor-11" 244 0 basechar 0
AnchorPoint: "Anchor-10" 0 0 basechar 0
AnchorPoint: "Anchor-9" 323 527 basechar 0
AnchorPoint: "Anchor-8" 0 0 basechar 0
LayerCount: 2
Fore
SplineSet
180 679 m 1
 329 792 l 1
 389 792 l 1
 508 679 l 1
 464 634 l 1
 351 718 l 1
 217 634 l 1
 180 679 l 1
319 539 m 0
 378 539 429 522 472 481 c 1
 423 424 l 1
 391 452 361 463 320 463 c 0
 187 463 148 305 148 196 c 0
 148 104 188 66 255 66 c 0
 301 66 335 81 377 107 c 1
 414 43 l 1
 362 6 307 -12 249 -12 c 0
 124 -12 52 68 52 203 c 0
 52 341 124 539 319 539 c 0
EndSplineSet
Substitution2: "'smcp' Lowercase to Small Capitals lookup 24 subtable" ccircumflex.sc
Substitution2: "'aalt' Access All Alternates lookup 0 subtable" ccircumflex.sc
EndChar
StartChar: cdotaccent
Encoding: 267 267 386
Width: 472
GlyphClass: 2
Flags: MW
HStem: -12 78<221.5 278 221.5 278> 463 76<253.5 340.5> 655 125<337 363.5>
VStem: 52 96<150 250.5 150 272> 287 126
AnchorPoint: "Anchor-14" 0 0 basechar 0
AnchorPoint: "Anchor-13" 0 0 basechar 0
AnchorPoint: "Anchor-12" 359 780 basechar 0
AnchorPoint: "Anchor-11" 0 0 basechar 0
AnchorPoint: "Anchor-10" 244 0 basechar 0
LayerCount: 2
Back
Fore
SplineSet
355 780 m 0
 396 780 418 750 413 712 c 0
 408 679 382 655 345 655 c 0
 305 655 282 685 287 722 c 0
 292 756 319 780 355 780 c 0
319 539 m 0
 378 539 429 522 472 481 c 1
 423 424 l 1
 391 452 361 463 320 463 c 0
 187 463 148 305 148 196 c 0
 148 104 188 66 255 66 c 0
 301 66 335 81 377 107 c 1
 414 43 l 1
 362 6 307 -12 249 -12 c 0
 124 -12 52 68 52 203 c 0
 52 341 124 539 319 539 c 0
EndSplineSet
Substitution2: "'smcp' Lowercase to Small Capitals lookup 28 subtable" cdotaccent.sc
Substitution2: "'aalt' Access All Alternates lookup 0 subtable" cdotaccent.sc
EndChar
StartChar: ccaron
Encoding: 269 269 382
Width: 472
GlyphClass: 2
Flags: MW
HStem: -12 78<221.5 278 221.5 278> 463 76<253.5 340.5> 627 74<338 338 338 363 303 338> 681 20G<338 338> 720 20G<184 184 512 512>
VStem: 52 96<150 250.5 150 272>
AnchorPoint: "Anchor-14" 0 0 basechar 0
AnchorPoint: "Anchor-13" 0 0 basechar 0
AnchorPoint: "Anchor-12" 350 785 basechar 0
AnchorPoint: "Anchor-11" 0 0 basechar 0
AnchorPoint: "Anchor-10" 244 0 basechar 0
LayerCount: 2
Back
Fore
SplineSet
478 785 m 1xdc
 512 740 l 1
 363 627 l 1
 303 627 l 1xec
 184 740 l 1
 225 785 l 1
 338 701 l 1
 478 785 l 1xdc
319 539 m 0
 378 539 429 522 472 481 c 1
 423 424 l 1
 391 452 361 463 320 463 c 0
 187 463 148 305 148 196 c 0
 148 104 188 66 255 66 c 0
 301 66 335 81 377 107 c 1
 414 43 l 1
 362 6 307 -12 249 -12 c 0
 124 -12 52 68 52 203 c 0
 52 341 124 539 319 539 c 0
EndSplineSet
Substitution2: "'smcp' Lowercase to Small Capitals lookup 28 subtable" ccaron.sc
Substitution2: "'aalt' Access All Alternates lookup 0 subtable" ccaron.sc
EndChar

StartChar: Dcaron
Encoding: 270 270 22
Width: 639
GlyphClass: 2
Flags: MW
HStem: 0 75<167 228> 613 76<242 242 242 300 300 314> 754 74<372 372 372 396 336 372>
VStem: 505 96<347.5 510.5>
AnchorPoint: "Anchor-11" 0 0 basechar 0
AnchorPoint: "Anchor-10" 0 0 basechar 0
AnchorPoint: "Anchor-9" 360 689 basechar 0
AnchorPoint: "Anchor-8" 0 0 basechar 0
LayerCount: 2
Fore
SplineSet
544 864 m 1
 396 754 l 1
 336 754 l 1
 216 864 l 1
 259 909 l 1
 372 828 l 1
 509 909 l 1
 544 864 l 1
300 689 m 2
 456 689 601 643 601 428 c 0
 601 207 500 0 228 0 c 2
 62 0 l 1
 159 689 l 1
 300 689 l 2
242 613 m 1
 167 75 l 1
 242 75 l 2
 442 75 505 265 505 430 c 0
 505 591 410 613 314 613 c 2
 242 613 l 1
EndSplineSet
Substitution2: "'c2sc' Capitals to Small Capitals lookup 23 subtable" dcaron.sc
Substitution2: "'aalt' Access All Alternates lookup 0 subtable" dcaron.sc
Position2: "'cpsp' Capital Spacing lookup 0 subtable" dx=5 dy=0 dh=10 dv=0
EndChar

StartChar: dcaron
Encoding: 271 271 155
Width: 646
GlyphClass: 2
Flags: MW
HStem: -12 73<209.5 253> 0 21G<377 457 377 377> 466 73<250 328 207 338.5> 543 20G<587 587> 719 20G<561 561 711 711> 729 20G<629 629> 730 20G<471 471>
VStem: 52 97<145.5 242.5 145.5 265>
LayerCount: 2
Fore
SplineSet
561 739 m 1xa9
 457 0 l 1
 377 0 l 1x69
 378 87 l 1
 341 26 287 -12 219 -12 c 0
 110 -12 52 70 52 197 c 0
 52 333 117 539 297 539 c 0
 359 539 403 510 432 473 c 1
 471 750 l 1xa3
 561 739 l 1xa9
711 739 m 1
 639 555 l 1
 587 563 l 1
 629 749 l 1x95
 711 739 l 1
314 466 m 0xa3
 186 466 149 295 149 190 c 0
 149 101 182 61 237 61 c 0
 302 61 345 109 391 183 c 1
 422 402 l 1
 396 443 363 466 314 466 c 0xa3
EndSplineSet
Substitution2: "'smcp' Lowercase to Small Capitals lookup 24 subtable" dcaron.sc
Substitution2: "'aalt' Access All Alternates lookup 0 subtable" dcaron.sc
EndChar

StartChar: dcroat
Encoding: 273 273 156
Width: 602
GlyphClass: 2
Flags: MW
HStem: -12 73<214.5 258> 0 21G<382 462 382 382> 466 73<255 333 212 343.5> 606 70<306 456 306 466 557 626> 719 20G<566 566> 730 20G<476 476>
VStem: 57 97<145.5 242.5 145.5 265> 471 90.5
LayerCount: 2
Fore
SplineSet
636 676 m 1xb7
 626 606 l 1
 547 606 l 1
 462 0 l 1
 382 0 l 1x77
 383 87 l 1
 346 26 292 -12 224 -12 c 0
 115 -12 57 70 57 197 c 0
 57 333 122 539 302 539 c 0
 364 539 408 510 437 473 c 1
 456 606 l 1
 306 606 l 1
 306 676 l 1
 466 676 l 1
 476 750 l 1xb7
 566 739 l 1xbb
 557 676 l 1
 636 676 l 1xb7
427 402 m 1
 401 443 368 466 319 466 c 0
 191 466 154 295 154 190 c 0
 154 101 187 61 242 61 c 0xb7
 307 61 350 109 396 183 c 1
 427 402 l 1
EndSplineSet
Substitution2: "'smcp' Lowercase to Small Capitals lookup 24 subtable" dcroat.sc
Substitution2: "'aalt' Access All Alternates lookup 0 subtable" dcroat.sc
EndChar
StartChar: Emacron
Encoding: 274 274 83
Width: 529
GlyphClass: 2
Flags: MW
HStem: 0 76<167 439> 312 76<210 430 200 440> 613 76<242 507 242 242> 793 69<235 497 226 506>
VStem: 62 466
AnchorPoint: "Anchor-14" 0 0 basechar 0
AnchorPoint: "Anchor-13" 0 0 basechar 0
AnchorPoint: "Anchor-12" 368 862 basechar 0
AnchorPoint: "Anchor-11" 409 0 basechar 0
AnchorPoint: "Anchor-10" 251 0 basechar 0
LayerCount: 2
Back
Fore
SplineSet
497 793 m 1
 226 793 l 1
 235 862 l 1
 506 862 l 1
 497 793 l 1
528 689 m 1
 507 613 l 1
 242 613 l 1
 210 388 l 1
 440 388 l 1
 430 312 l 1
 200 312 l 1
 167 76 l 1
 450 76 l 1
 439 0 l 1
 62 0 l 1
 159 689 l 1
 528 689 l 1
EndSplineSet
Substitution2: "'c2sc' Capitals to Small Capitals lookup 27 subtable" emacron.sc
Substitution2: "'aalt' Access All Alternates lookup 0 subtable" emacron.sc
Position2: "'cpsp' Capital Spacing lookup 0 subtable" dx=5 dy=0 dh=10 dv=0
EndChar

StartChar: emacron
Encoding: 275 275 165
Width: 523
GlyphClass: 2
Flags: MW
HStem: -12 77<228.5 286.5 228.5 288> 466 73<267 350.5> 667 69<207 469 198 478>
VStem: 52 96 394 96<357 414.5>
AnchorPoint: "Anchor-11" 254 0 basechar 0
AnchorPoint: "Anchor-10" 0 0 basechar 0
AnchorPoint: "Anchor-9" 314 527 basechar 0
AnchorPoint: "Anchor-8" 360 6 basechar 0
LayerCount: 2
Fore
SplineSet
469 667 m 1
 198 667 l 1
 207 736 l 1
 478 736 l 1
 469 667 l 1
490 405 m 0
 490 257 332 216 148 196 c 1
 150 100 195 65 262 65 c 0
 311 65 355 80 403 114 c 1
 442 52 l 1
 385 11 323 -12 253 -12 c 0
 124 -12 52 69 52 202 c 0
 52 346 123 539 323 539 c 0
 435 539 490 475 490 405 c 0
153 266 m 1
 304 283 394 312 394 402 c 0
 394 427 379 466 322 466 c 0
 212 466 166 362 153 266 c 1
EndSplineSet
Substitution2: "'smcp' Lowercase to Small Capitals lookup 24 subtable" emacron.sc
Substitution2: "'aalt' Access All Alternates lookup 0 subtable" emacron.sc
EndChar

StartChar: Ebreve
Encoding: 276 276 26
Width: 529
GlyphClass: 2
Flags: MW
HStem: 0 76<167 439> 312 76<210 430 200 440> 613 76<242 507 242 242> 758 70<330.5 377 330.5 390>
VStem: 62 466
AnchorPoint: "Anchor-11" 251 0 basechar 0
AnchorPoint: "Anchor-10" 48 534 basechar 0
AnchorPoint: "Anchor-9" 347 689 basechar 0
AnchorPoint: "Anchor-8" 409 0 basechar 0
LayerCount: 2
Fore
SplineSet
351 758 m 0
 270 758 215 810 217 884 c 1
 276 892 l 1
 285 852 308 828 353 828 c 0
 401 828 437 856 456 896 c 1
 516 878 l 1
 498 804 429 758 351 758 c 0
507 613 m 1
 242 613 l 1
 210 388 l 1
 440 388 l 1
 430 312 l 1
 200 312 l 1
 167 76 l 1
 450 76 l 1
 439 0 l 1
 62 0 l 1
 159 689 l 1
 528 689 l 1
 507 613 l 1
EndSplineSet
Substitution2: "'c2sc' Capitals to Small Capitals lookup 23 subtable" ebreve.sc
Substitution2: "'aalt' Access All Alternates lookup 0 subtable" ebreve.sc
Position2: "'cpsp' Capital Spacing lookup 0 subtable" dx=5 dy=0 dh=10 dv=0
EndChar
StartChar: ebreve
Encoding: 277 277 411
Width: 522
GlyphClass: 2
Flags: MW
HStem: -12 77<228.5 286.5 228.5 288> 466 73<267 350.5> 643 70<306.5 353 306.5 366>
VStem: 52 96 194 62<779 787> 394 96<357 414.5>
AnchorPoint: "Anchor-14" 0 0 basechar 0
AnchorPoint: "Anchor-13" 0 0 basechar 0
AnchorPoint: "Anchor-12" 346 791 basechar 0
AnchorPoint: "Anchor-11" 360 6 basechar 0
AnchorPoint: "Anchor-10" 254 0 basechar 0
LayerCount: 2
Back
Fore
SplineSet
327 643 m 0
 246 643 191 695 194 779 c 1
 256 787 l 1
 263 737 284 713 329 713 c 0
 377 713 414 741 434 791 c 1
 494 773 l 1
 474 689 405 643 327 643 c 0
323 539 m 0
 435 539 490 475 490 405 c 0
 490 257 332 216 148 196 c 1
 150 100 195 65 262 65 c 0
 311 65 355 80 403 114 c 1
 442 52 l 1
 385 11 323 -12 253 -12 c 0
 124 -12 52 69 52 202 c 0
 52 346 123 539 323 539 c 0
153 266 m 1
 304 283 394 312 394 402 c 0
 394 427 379 466 322 466 c 0
 212 466 166 362 153 266 c 1
EndSplineSet
Substitution2: "'smcp' Lowercase to Small Capitals lookup 28 subtable" ebreve.sc
Substitution2: "'aalt' Access All Alternates lookup 0 subtable" ebreve.sc
EndChar
StartChar: Edotaccent
Encoding: 278 278 78
Width: 529
GlyphClass: 2
Flags: MW
HStem: 0 76<167 439> 312 76<210 430 200 440> 613 76<242 507 242 242> 781 125<356 382.5>
VStem: 306 126
AnchorPoint: "Anchor-14" 0 0 basechar 0
AnchorPoint: "Anchor-13" 0 0 basechar 0
AnchorPoint: "Anchor-12" 374 906 basechar 0
AnchorPoint: "Anchor-11" 409 0 basechar 0
AnchorPoint: "Anchor-10" 251 0 basechar 0
LayerCount: 2
Back
Fore
SplineSet
374 906 m 0
 415 906 437 876 432 838 c 0
 427 805 401 781 364 781 c 0
 324 781 301 811 306 848 c 0
 311 882 338 906 374 906 c 0
528 689 m 1
 507 613 l 1
 242 613 l 1
 210 388 l 1
 440 388 l 1
 430 312 l 1
 200 312 l 1
 167 76 l 1
 450 76 l 1
 439 0 l 1
 62 0 l 1
 159 689 l 1
 528 689 l 1
EndSplineSet
Substitution2: "'c2sc' Capitals to Small Capitals lookup 27 subtable" edotaccent.sc
Substitution2: "'aalt' Access All Alternates lookup 0 subtable" edotaccent.sc
Position2: "'cpsp' Capital Spacing lookup 0 subtable" dx=5 dy=0 dh=10 dv=0
EndChar

StartChar: edotaccent
Encoding: 279 279 163
Width: 523
GlyphClass: 2
Flags: MW
HStem: -12 77<228.5 286.5 228.5 288> 466 73<267 350.5> 655 125<327 353.5>
VStem: 52 96 277 126 394 96<357 414.5>
AnchorPoint: "Anchor-11" 254 0 basechar 0
AnchorPoint: "Anchor-10" 0 0 basechar 0
AnchorPoint: "Anchor-9" 314 527 basechar 0
AnchorPoint: "Anchor-8" 360 6 basechar 0
LayerCount: 2
Fore
SplineSet
335 655 m 0xf8
 295 655 272 685 277 722 c 0
 282 756 309 780 345 780 c 0
 386 780 408 750 403 712 c 0
 398 679 372 655 335 655 c 0xf8
490 405 m 0xd4
 490 257 332 216 148 196 c 1
 150 100 195 65 262 65 c 0
 311 65 355 80 403 114 c 1
 442 52 l 1
 385 11 323 -12 253 -12 c 0
 124 -12 52 69 52 202 c 0
 52 346 123 539 323 539 c 0
 435 539 490 475 490 405 c 0xd4
153 266 m 1
 304 283 394 312 394 402 c 0
 394 427 379 466 322 466 c 0
 212 466 166 362 153 266 c 1
EndSplineSet
Substitution2: "'smcp' Lowercase to Small Capitals lookup 24 subtable" edotaccent.sc
Substitution2: "'aalt' Access All Alternates lookup 0 subtable" edotaccent.sc
EndChar
StartChar: Eogonek
Encoding: 280 280 84
Width: 529
GlyphClass: 2
Flags: MW
HStem: -231 70<291 305> 0 76<167 289 401 439 401 401> 312 76<210 430 200 440> 613 76<242 507 242 242>
VStem: 179 80<-137 -114.5>
AnchorPoint: "Anchor-14" 0 0 basechar 0
AnchorPoint: "Anchor-13" 0 0 basechar 0
AnchorPoint: "Anchor-12" 347 689 basechar 0
AnchorPoint: "Anchor-11" 409 0 basechar 0
AnchorPoint: "Anchor-10" 251 0 basechar 0
LayerCount: 2
Back
Fore
SplineSet
507 613 m 1
 242 613 l 1
 210 388 l 1
 440 388 l 1
 430 312 l 1
 200 312 l 1
 167 76 l 1
 450 76 l 1
 439 0 l 1
 401 0 l 1
 275 -52 259 -95 259 -126 c 0
 259 -148 276 -161 306 -161 c 0
 328 -161 345 -158 369 -153 c 1
 354 -225 l 1
 334 -229 317 -231 293 -231 c 0
 221 -231 179 -190 179 -137 c 0
 179 -92 201 -42 289 0 c 1
 62 0 l 1
 159 689 l 1
 528 689 l 1
 507 613 l 1
EndSplineSet
Substitution2: "'c2sc' Capitals to Small Capitals lookup 27 subtable" eogonek.sc
Substitution2: "'aalt' Access All Alternates lookup 0 subtable" eogonek.sc
Position2: "'cpsp' Capital Spacing lookup 0 subtable" dx=5 dy=0 dh=10 dv=0
EndChar
StartChar: eogonek
Encoding: 281 281 428
Width: 522
GlyphClass: 2
Flags: MW
HStem: -226 70<262.5 285> -11 76 466 73<267 350.5>
VStem: 52 96 147 80<-123 -101.5> 394 96<357 414.5>
AnchorPoint: "Anchor-14" 0 0 basechar 0
AnchorPoint: "Anchor-13" 0 0 basechar 0
AnchorPoint: "Anchor-12" 314 527 basechar 0
AnchorPoint: "Anchor-11" 360 6 basechar 0
AnchorPoint: "Anchor-10" 254 0 basechar 0
LayerCount: 2
Back
Fore
SplineSet
490 405 m 0xf4
 490 257 332 216 148 196 c 1xf4
 150 100 195 65 262 65 c 0
 311 65 355 80 403 114 c 1
 442 52 l 1
 408 28 372 10 334 -1 c 1
 246 -42 227 -74 227 -108 c 0
 227 -138 242 -156 283 -156 c 0
 304 -156 320 -154 344 -149 c 1
 335 -219 l 1
 315 -223 298 -226 272 -226 c 0
 195 -226 147 -183 147 -125 c 0xec
 147 -78 176 -39 230 -11 c 1
 116 -2 52 77 52 202 c 0
 52 346 123 539 323 539 c 0
 435 539 490 475 490 405 c 0xf4
153 266 m 1
 304 283 394 312 394 402 c 0
 394 427 379 466 322 466 c 0
 212 466 166 362 153 266 c 1
EndSplineSet
Substitution2: "'smcp' Lowercase to Small Capitals lookup 28 subtable" eogonek.sc
Substitution2: "'aalt' Access All Alternates lookup 0 subtable" eogonek.sc
EndChar

StartChar: Ecaron
Encoding: 282 282 27
Width: 529
GlyphClass: 2
Flags: MW
HStem: 0 76<167 439> 312 76<210 430 200 440> 613 76<242 507 242 242> 754 74<359 359 359 383 323 359>
VStem: 62 469
AnchorPoint: "Anchor-11" 251 0 basechar 0
AnchorPoint: "Anchor-10" 48 534 basechar 0
AnchorPoint: "Anchor-9" 347 689 basechar 0
AnchorPoint: "Anchor-8" 409 0 basechar 0
LayerCount: 2
Fore
SplineSet
531 864 m 1
 383 754 l 1
 323 754 l 1
 203 864 l 1
 246 909 l 1
 359 828 l 1
 496 909 l 1
 531 864 l 1
507 613 m 1
 242 613 l 1
 210 388 l 1
 440 388 l 1
 430 312 l 1
 200 312 l 1
 167 76 l 1
 450 76 l 1
 439 0 l 1
 62 0 l 1
 159 689 l 1
 528 689 l 1
 507 613 l 1
EndSplineSet
Substitution2: "'c2sc' Capitals to Small Capitals lookup 23 subtable" ecaron.sc
Substitution2: "'aalt' Access All Alternates lookup 0 subtable" ecaron.sc
Position2: "'cpsp' Capital Spacing lookup 0 subtable" dx=5 dy=0 dh=10 dv=0
EndChar

StartChar: Gcircumflex
Encoding: 284 284 37
Width: 625
GlyphClass: 2
Flags: MW
HStem: -12 78<264 337 264 349> 305 77<356 476 356 580> 623 78<316.5 435.5> 840 74<441 441>
VStem: 60 99<183 330 183 358>
AnchorPoint: "Anchor-11" 303 0 basechar 0
AnchorPoint: "Anchor-10" 0 0 basechar 0
AnchorPoint: "Anchor-9" 412 689 basechar 0
AnchorPoint: "Anchor-8" 0 0 basechar 0
LayerCount: 2
Fore
SplineSet
441 840 m 1
 306 759 l 1
 269 804 l 1
 418 914 l 1
 478 914 l 1
 597 804 l 1
 556 759 l 1
 441 840 l 1
405 701 m 0
 494 701 555 672 607 622 c 1
 545 569 l 1
 502 608 465 623 406 623 c 0
 227 623 159 413 159 247 c 0
 159 119 213 66 315 66 c 0
 359 66 404 76 446 101 c 1
 476 305 l 1
 356 305 l 1
 356 382 l 1
 580 382 l 1
 535 54 l 1
 468 11 396 -12 302 -12 c 0
 154 -12 60 79 60 259 c 0
 60 457 163 701 405 701 c 0
EndSplineSet
Substitution2: "'c2sc' Capitals to Small Capitals lookup 23 subtable" gcircumflex.sc
Substitution2: "'aalt' Access All Alternates lookup 0 subtable" gcircumflex.sc
Position2: "'cpsp' Capital Spacing lookup 0 subtable" dx=5 dy=0 dh=10 dv=0
EndChar
StartChar: Gbreve
Encoding: 286 286 99
Width: 625
GlyphClass: 2
Flags: MW
HStem: -12 78<264 337 264 349> 305 77<356 476 356 580> 623 78<316.5 435.5> 758 70<401.5 448 401.5 461>
VStem: 60 99<183 330 183 358>
AnchorPoint: "Anchor-14" 0 0 basechar 0
AnchorPoint: "Anchor-13" 0 0 basechar 0
AnchorPoint: "Anchor-12" 439 896 basechar 0
AnchorPoint: "Anchor-11" 0 0 basechar 0
AnchorPoint: "Anchor-10" 303 0 basechar 0
LayerCount: 2
Back
Fore
SplineSet
422 758 m 0
 341 758 286 810 288 884 c 1
 347 892 l 1
 356 852 379 828 424 828 c 0
 472 828 508 856 527 896 c 1
 587 878 l 1
 569 804 500 758 422 758 c 0
405 701 m 0
 494 701 555 672 607 622 c 1
 545 569 l 1
 502 608 465 623 406 623 c 0
 227 623 159 413 159 247 c 0
 159 119 213 66 315 66 c 0
 359 66 404 76 446 101 c 1
 476 305 l 1
 356 305 l 1
 356 382 l 1
 580 382 l 1
 535 54 l 1
 468 11 396 -12 302 -12 c 0
 154 -12 60 79 60 259 c 0
 60 457 163 701 405 701 c 0
EndSplineSet
Substitution2: "'c2sc' Capitals to Small Capitals lookup 27 subtable" gbreve.sc
Substitution2: "'aalt' Access All Alternates lookup 0 subtable" gbreve.sc
Position2: "'cpsp' Capital Spacing lookup 0 subtable" dx=5 dy=0 dh=10 dv=0
EndChar

StartChar: gbreve
Encoding: 287 287 169
Width: 576
GlyphClass: 2
Flags: MW
HStem: -216 79<174.5 236 173.5 268> 0 73<209 247> 466 73<267 352.5> 643 70<324.5 371 324.5 384>
VStem: 48 98<153.5 261 153.5 276.5> 212 62<779 787>
AnchorPoint: "Anchor-11" 0 0 basechar 0
AnchorPoint: "Anchor-10" 0 0 basechar 0
AnchorPoint: "Anchor-9" 327 527 basechar 0
AnchorPoint: "Anchor-8" 0 0 basechar 0
LayerCount: 2
Fore
SplineSet
345 643 m 0
 264 643 209 695 212 779 c 1
 274 787 l 1
 281 737 302 713 347 713 c 0
 395 713 432 741 452 791 c 1
 512 773 l 1
 492 689 423 643 345 643 c 0
332 539 m 0
 395 539 450 528 520 494 c 1
 447 12 l 2
 422 -158 330 -216 206 -216 c 0
 143 -216 74 -196 24 -165 c 1
 59 -95 l 1
 91 -114 146 -137 201 -137 c 0
 271 -137 340 -116 358 13 c 2
 367 80 l 1
 328 33 275 0 219 0 c 0
 109 0 48 78 48 198 c 0
 48 355 127 539 332 539 c 0
334 466 m 0
 200 466 146 325 146 197 c 0
 146 110 182 73 236 73 c 0
 294 73 339 117 380 172 c 1
 423 449 l 1
 393 462 371 466 334 466 c 0
EndSplineSet
Substitution2: "'smcp' Lowercase to Small Capitals lookup 24 subtable" gbreve.sc
Substitution2: "'aalt' Access All Alternates lookup 0 subtable" gbreve.sc
EndChar
StartChar: Gdotaccent
Encoding: 288 288 103
Width: 625
GlyphClass: 2
Flags: MW
HStem: -12 78<264 337 264 349> 305 77<356 476 356 580> 623 78<316.5 435.5> 781 125<421 447.5>
VStem: 60 99<183 330 183 358> 371 126
AnchorPoint: "Anchor-14" 0 0 basechar 0
AnchorPoint: "Anchor-13" 0 0 basechar 0
AnchorPoint: "Anchor-12" 439 906 basechar 0
AnchorPoint: "Anchor-11" 0 0 basechar 0
AnchorPoint: "Anchor-10" 303 0 basechar 0
LayerCount: 2
Back
Fore
SplineSet
439 906 m 0
 480 906 502 876 497 838 c 0
 492 805 466 781 429 781 c 0
 389 781 366 811 371 848 c 0
 376 882 403 906 439 906 c 0
405 701 m 0
 494 701 555 672 607 622 c 1
 545 569 l 1
 502 608 465 623 406 623 c 0
 227 623 159 413 159 247 c 0
 159 119 213 66 315 66 c 0
 359 66 404 76 446 101 c 1
 476 305 l 1
 356 305 l 1
 356 382 l 1
 580 382 l 1
 535 54 l 1
 468 11 396 -12 302 -12 c 0
 154 -12 60 79 60 259 c 0
 60 457 163 701 405 701 c 0
EndSplineSet
Substitution2: "'c2sc' Capitals to Small Capitals lookup 27 subtable" gdotaccent.sc
Substitution2: "'aalt' Access All Alternates lookup 0 subtable" gdotaccent.sc
Position2: "'cpsp' Capital Spacing lookup 0 subtable" dx=5 dy=0 dh=10 dv=0
EndChar
StartChar: gdotaccent
Encoding: 289 289 457
Width: 580
GlyphClass: 2
Flags: MW
HStem: -216 79<177.5 239 176.5 271> 0 73<212 250> 466 73<270 355.5> 655 125<344 370.5>
VStem: 51 98<153.5 261 153.5 276.5> 294 126
AnchorPoint: "Anchor-14" 0 0 basechar 0
AnchorPoint: "Anchor-13" 0 0 basechar 0
AnchorPoint: "Anchor-12" 366 780 basechar 0
AnchorPoint: "Anchor-11" 0 0 basechar 0
AnchorPoint: "Anchor-10" 209 -202 basechar 0
LayerCount: 2
Back
Fore
SplineSet
362 780 m 0
 403 780 425 750 420 712 c 0
 415 679 389 655 352 655 c 0
 312 655 289 685 294 722 c 0
 299 756 326 780 362 780 c 0
335 539 m 0
 398 539 453 528 523 494 c 1
 450 12 l 2
 425 -158 333 -216 209 -216 c 0
 146 -216 77 -196 27 -165 c 1
 62 -95 l 1
 94 -114 149 -137 204 -137 c 0
 274 -137 343 -116 361 13 c 2
 370 80 l 1
 331 33 278 0 222 0 c 0
 112 0 51 78 51 198 c 0
 51 355 130 539 335 539 c 0
337 466 m 0
 203 466 149 325 149 197 c 0
 149 110 185 73 239 73 c 0
 297 73 342 117 383 172 c 1
 426 449 l 1
 396 462 374 466 337 466 c 0
EndSplineSet
Substitution2: "'smcp' Lowercase to Small Capitals lookup 28 subtable" gdotaccent.sc
Substitution2: "'aalt' Access All Alternates lookup 0 subtable" gdotaccent.sc
EndChar
StartChar: Gcommaaccent
Encoding: 290 290 102
Width: 625
GlyphClass: 2
Flags: MW
HStem: -12 78<264 337 264 349> 305 77<356 476 356 580> 623 78<316.5 435.5>
VStem: 60 99<183 330 183 358> 228 113<-141 -119>
AnchorPoint: "Anchor-14" 0 0 basechar 0
AnchorPoint: "Anchor-13" 0 0 basechar 0
AnchorPoint: "Anchor-12" 412 689 basechar 0
AnchorPoint: "Anchor-11" 0 0 basechar 0
AnchorPoint: "Anchor-10" 303 0 basechar 0
LayerCount: 2
Back
Fore
SplineSet
405 701 m 0
 494 701 555 672 607 622 c 1
 545 569 l 1
 502 608 465 623 406 623 c 0
 227 623 159 413 159 247 c 0
 159 119 213 66 315 66 c 0
 359 66 404 76 446 101 c 1
 476 305 l 1
 356 305 l 1
 356 382 l 1
 580 382 l 1
 535 54 l 1
 468 11 396 -12 302 -12 c 0
 154 -12 60 79 60 259 c 0
 60 457 163 701 405 701 c 0
289 -77 m 0
 323 -77 341 -104 341 -129 c 0
 341 -153 332 -171 305 -214 c 2
 253 -296 l 1
 199 -296 l 1
 247 -178 l 1
 237 -168 228 -153 228 -136 c 0
 228 -102 256 -77 289 -77 c 0
EndSplineSet
Substitution2: "'c2sc' Capitals to Small Capitals lookup 27 subtable" gcommaaccent.sc
Substitution2: "'aalt' Access All Alternates lookup 0 subtable" gcommaaccent.sc
Position2: "'cpsp' Capital Spacing lookup 0 subtable" dx=5 dy=0 dh=10 dv=0
EndChar
StartChar: gcommaaccent
Encoding: 291 291 456
Width: 580
GlyphClass: 2
Flags: MW
HStem: -216 79<177.5 239 176.5 271> 0 73<212 250> 466 73<270 355.5>
VStem: 51 98<153.5 261 153.5 276.5> 293 113<625 647>
AnchorPoint: "Anchor-14" 0 0 basechar 0
AnchorPoint: "Anchor-13" 0 0 basechar 0
AnchorPoint: "Anchor-12" 330 527 basechar 0
AnchorPoint: "Anchor-11" 0 0 basechar 0
AnchorPoint: "Anchor-10" 209 -202 basechar 0
LayerCount: 2
Back
Fore
SplineSet
345 583 m 0
 311 583 293 610 293 635 c 0
 293 659 302 677 329 720 c 2
 381 802 l 1
 435 802 l 1
 387 684 l 1
 397 674 406 659 406 642 c 0
 406 608 378 583 345 583 c 0
335 539 m 0
 398 539 453 528 523 494 c 1
 450 12 l 2
 425 -158 333 -216 209 -216 c 0
 146 -216 77 -196 27 -165 c 1
 62 -95 l 1
 94 -114 149 -137 204 -137 c 0
 274 -137 343 -116 361 13 c 2
 370 80 l 1
 331 33 278 0 222 0 c 0
 112 0 51 78 51 198 c 0
 51 355 130 539 335 539 c 0
337 466 m 0
 203 466 149 325 149 197 c 0
 149 110 185 73 239 73 c 0
 297 73 342 117 383 172 c 1
 426 449 l 1
 396 462 374 466 337 466 c 0
EndSplineSet
Substitution2: "'smcp' Lowercase to Small Capitals lookup 28 subtable" gcommaaccent.sc
Substitution2: "'aalt' Access All Alternates lookup 0 subtable" gcommaaccent.sc
EndChar

StartChar: Hcircumflex
Encoding: 292 292 42
Width: 674
GlyphClass: 2
Flags: MW
HStem: 0 21G<62 156 62 62 444 444 444 538> 323 78<212 489 201 500> 669 20G<159 253 253 253 541 635 635 635> 840 74<426 426>
VStem: 62 573
AnchorPoint: "Anchor-11" 0 0 basechar 0
AnchorPoint: "Anchor-10" 48 534 basechar 0
AnchorPoint: "Anchor-9" 397 689 basechar 0
AnchorPoint: "Anchor-8" 0 0 basechar 0
LayerCount: 2
Fore
SplineSet
426 840 m 1
 291 759 l 1
 254 804 l 1
 403 914 l 1
 463 914 l 1
 582 804 l 1
 541 759 l 1
 426 840 l 1
489 323 m 1
 201 323 l 1
 156 0 l 1
 62 0 l 1
 159 689 l 1
 253 689 l 1
 212 401 l 1
 500 401 l 1
 541 689 l 1
 635 689 l 1
 538 0 l 1
 444 0 l 1
 489 323 l 1
EndSplineSet
Substitution2: "'c2sc' Capitals to Small Capitals lookup 23 subtable" hcircumflex.sc
Substitution2: "'aalt' Access All Alternates lookup 0 subtable" hcircumflex.sc
Position2: "'cpsp' Capital Spacing lookup 0 subtable" dx=5 dy=0 dh=10 dv=0
EndChar
StartChar: Hbar
Encoding: 294 294 108
Width: 682
GlyphClass: 2
Flags: MW
HStem: 0 21G<65 159 65 65 447 541 447 447> 323 78<215 492 204 503> 508 69<79 137 69 146 240 518 622 681> 508 181<69 256 69 256 230 230 230 256 162 518 613 638 613 613>
VStem: 65 626<0 577>
AnchorPoint: "Anchor-14" 351 345 basechar 0
AnchorPoint: "Anchor-13" 0 0 basechar 0
AnchorPoint: "Anchor-12" 400 689 basechar 0
AnchorPoint: "Anchor-11" 0 0 basechar 0
AnchorPoint: "Anchor-10" 311 0 basechar 0
LayerCount: 2
Back
Fore
SplineSet
691 577 m 1xe8
 681 508 l 1
 613 508 l 1
 541 0 l 1
 447 0 l 1
 492 323 l 1
 204 323 l 1
 159 0 l 1
 65 0 l 1
 137 508 l 1
 69 508 l 1
 79 577 l 1
 146 577 l 1xe8
 162 689 l 1
 256 689 l 1xd8
 240 577 l 1
 528 577 l 1xe8
 544 689 l 1
 638 689 l 1xd8
 622 577 l 1
 691 577 l 1xe8
503 401 m 1
 518 508 l 1
 230 508 l 1
 215 401 l 1
 503 401 l 1
EndSplineSet
Substitution2: "'c2sc' Capitals to Small Capitals lookup 27 subtable" hbar.sc
Substitution2: "'aalt' Access All Alternates lookup 0 subtable" hbar.sc
Position2: "'cpsp' Capital Spacing lookup 0 subtable" dx=5 dy=0 dh=10 dv=0
EndChar
StartChar: Itilde
Encoding: 296 296 133
Width: 292
GlyphClass: 2
Flags: MW
HStem: 0 21G<62 156 62 62> 669 20G<159 253 253 253> 782 70<266 293 266 303.5> 830 70<160.5 188.5>
VStem: 58 339<814 866>
AnchorPoint: "Anchor-14" 0 0 basechar 0
AnchorPoint: "Anchor-13" 0 0 basechar 0
AnchorPoint: "Anchor-12" 230 900 basechar 0
AnchorPoint: "Anchor-11" 144 0 basechar 0
AnchorPoint: "Anchor-10" 108 0 basechar 0
LayerCount: 2
Back
Fore
SplineSet
284 782 m 0xe8
 225 782 204 830 173 830 c 0
 148 830 130 812 110 782 c 1
 58 814 l 1
 88 863 127 900 175 900 c 0xd8
 232 900 250 852 282 852 c 0
 304 852 322 868 343 898 c 1
 397 866 l 1
 363 809 323 782 284 782 c 0xe8
253 689 m 1xd8
 156 0 l 1
 62 0 l 1
 159 689 l 1
 253 689 l 1xd8
EndSplineSet
Substitution2: "'c2sc' Capitals to Small Capitals lookup 27 subtable" itilde.sc
Substitution2: "'aalt' Access All Alternates lookup 0 subtable" itilde.sc
Position2: "'cpsp' Capital Spacing lookup 0 subtable" dx=5 dy=0 dh=10 dv=0
EndChar
StartChar: itilde
Encoding: 297 297 496
Width: 279
GlyphClass: 2
Flags: MW
HStem: 0 21G<57 148 57 57> 507 20G<131 222 222 222> 656 70<241 268 241 278.5> 704 70<135.5 163.5> 720 20G<372 372>
VStem: 33 339<688 740>
AnchorPoint: "Anchor-14" 0 0 basechar 0
AnchorPoint: "Anchor-13" 0 0 basechar 0
AnchorPoint: "Anchor-12" 205 774 basechar 0
AnchorPoint: "Anchor-11" 127 0 basechar 0
AnchorPoint: "Anchor-10" 102 0 basechar 0
LayerCount: 2
Back
Fore
SplineSet
259 656 m 0xe4
 200 656 179 704 148 704 c 0
 123 704 105 686 85 656 c 1
 33 688 l 1
 63 737 102 774 150 774 c 0xd4
 207 774 225 726 257 726 c 0
 279 726 297 742 318 772 c 1xe4
 372 740 l 1xcc
 338 683 298 656 259 656 c 0xe4
222 527 m 1xcc
 148 0 l 1
 57 0 l 1
 131 527 l 1
 222 527 l 1xcc
EndSplineSet
Substitution2: "'smcp' Lowercase to Small Capitals lookup 28 subtable" itilde.sc
Substitution2: "'aalt' Access All Alternates lookup 0 subtable" itilde.sc
EndChar
StartChar: Imacron
Encoding: 298 298 129
Width: 292
GlyphClass: 2
Flags: MW
HStem: 0 21G<62 156 62 62> 669 20G<159 253 253 253> 793 69<94 356 85 365>
VStem: 62 303
AnchorPoint: "Anchor-14" 0 0 basechar 0
AnchorPoint: "Anchor-13" 0 0 basechar 0
AnchorPoint: "Anchor-12" 227 862 basechar 0
AnchorPoint: "Anchor-11" 144 0 basechar 0
AnchorPoint: "Anchor-10" 108 0 basechar 0
LayerCount: 2
Back
Fore
SplineSet
356 793 m 1
 85 793 l 1
 94 862 l 1
 365 862 l 1
 356 793 l 1
253 689 m 1
 156 0 l 1
 62 0 l 1
 159 689 l 1
 253 689 l 1
EndSplineSet
Substitution2: "'c2sc' Capitals to Small Capitals lookup 27 subtable" imacron.sc
Substitution2: "'aalt' Access All Alternates lookup 0 subtable" imacron.sc
Position2: "'cpsp' Capital Spacing lookup 0 subtable" dx=5 dy=0 dh=10 dv=0
EndChar
StartChar: imacron
Encoding: 299 299 492
Width: 279
GlyphClass: 2
Flags: MW
HStem: 0 21G<57 148 57 57> 507 20G<131 222 222 222> 667 69<70 332 61 341>
VStem: 57 284
AnchorPoint: "Anchor-14" 0 0 basechar 0
AnchorPoint: "Anchor-13" 0 0 basechar 0
AnchorPoint: "Anchor-12" 203 736 basechar 0
AnchorPoint: "Anchor-11" 127 0 basechar 0
AnchorPoint: "Anchor-10" 102 0 basechar 0
LayerCount: 2
Back
Fore
SplineSet
332 667 m 1
 61 667 l 1
 70 736 l 1
 341 736 l 1
 332 667 l 1
222 527 m 1
 148 0 l 1
 57 0 l 1
 131 527 l 1
 222 527 l 1
EndSplineSet
Substitution2: "'smcp' Lowercase to Small Capitals lookup 28 subtable" imacron.sc
Substitution2: "'aalt' Access All Alternates lookup 0 subtable" imacron.sc
EndChar

StartChar: Ibreve
Encoding: 300 300 46
Width: 294
GlyphClass: 2
Flags: MW
HStem: 0 21G<62 158 62 62> 669 20G<159 255 255 255> 758 70<190.5 237 190.5 250>
VStem: 62 314
AnchorPoint: "Anchor-11" 0 0 basechar 0
AnchorPoint: "Anchor-10" 50 534 basechar 0
AnchorPoint: "Anchor-9" 207 689 basechar 0
AnchorPoint: "Anchor-8" 167 0 basechar 0
LayerCount: 2
Fore
SplineSet
211 758 m 0
 130 758 75 810 77 884 c 1
 136 892 l 1
 145 852 168 828 213 828 c 0
 261 828 297 856 316 896 c 1
 376 878 l 1
 358 804 289 758 211 758 c 0
158 0 m 1
 62 0 l 1
 159 689 l 1
 255 689 l 1
 158 0 l 1
EndSplineSet
Substitution2: "'c2sc' Capitals to Small Capitals lookup 23 subtable" ibreve.sc
Substitution2: "'aalt' Access All Alternates lookup 0 subtable" ibreve.sc
Position2: "'cpsp' Capital Spacing lookup 0 subtable" dx=5 dy=0 dh=10 dv=0
EndChar

StartChar: ibreve
Encoding: 301 301 179
Width: 280
GlyphClass: 2
Flags: MW
HStem: 0 21G<57 149 57 57> 507 20G<131 223 223 223> 643 70<174.5 221 174.5 234>
VStem: 62 62<779 787>
AnchorPoint: "Anchor-11" 0 0 basechar 0
AnchorPoint: "Anchor-10" 0 0 basechar 0
AnchorPoint: "Anchor-9" 177 527 basechar 0
AnchorPoint: "Anchor-8" 158 0 basechar 0
LayerCount: 2
Fore
SplineSet
195 643 m 0
 114 643 59 695 62 779 c 1
 124 787 l 1
 131 737 152 713 197 713 c 0
 245 713 282 741 302 791 c 1
 362 773 l 1
 342 689 273 643 195 643 c 0
149 0 m 1
 57 0 l 1
 131 527 l 1
 223 527 l 1
 149 0 l 1
EndSplineSet
Substitution2: "'smcp' Lowercase to Small Capitals lookup 24 subtable" ibreve.sc
Substitution2: "'aalt' Access All Alternates lookup 0 subtable" ibreve.sc
EndChar
StartChar: Iogonek
Encoding: 302 302 130
Width: 292
GlyphClass: 2
Flags: MW
HStem: -231 70<26 40> 0 21G<136 156 136 136> 669 20G<159 253 253 253>
VStem: -86 80<-137 -111>
AnchorPoint: "Anchor-14" 0 0 basechar 0
AnchorPoint: "Anchor-13" 0 0 basechar 0
AnchorPoint: "Anchor-12" 206 689 basechar 0
AnchorPoint: "Anchor-11" 144 0 basechar 0
AnchorPoint: "Anchor-10" 108 0 basechar 0
LayerCount: 2
Back
Fore
SplineSet
159 689 m 1
 253 689 l 1
 156 0 l 1
 136 0 l 1
 10 -52 -6 -95 -6 -126 c 0
 -6 -148 11 -161 41 -161 c 0
 63 -161 80 -158 104 -153 c 1
 89 -225 l 1
 69 -229 52 -231 28 -231 c 0
 -44 -231 -86 -190 -86 -137 c 0
 -86 -85 -57 -28 64 17 c 1
 159 689 l 1
EndSplineSet
Substitution2: "'c2sc' Capitals to Small Capitals lookup 27 subtable" iogonek.sc
Substitution2: "'aalt' Access All Alternates lookup 0 subtable" iogonek.sc
Position2: "'cpsp' Capital Spacing lookup 0 subtable" dx=5 dy=0 dh=10 dv=0
EndChar
StartChar: iogonek
Encoding: 303 303 493
Width: 279
GlyphClass: 2
Flags: MW
HStem: -231 70<9 23> 0 21G 507 20G<131 222 222 222> 655 125<190 216.5>
VStem: -103 80<-137 -110.5 -137 -110.5> 140 126
AnchorPoint: "Anchor-14" 0 0 basechar 0
AnchorPoint: "Anchor-13" 0 0 basechar 0
AnchorPoint: "Anchor-12" 212 780 basechar 0
AnchorPoint: "Anchor-11" 127 0 basechar 0
AnchorPoint: "Anchor-10" 102 0 basechar 0
LayerCount: 2
Back
Fore
SplineSet
208 780 m 0
 249 780 271 750 266 712 c 0
 261 679 235 655 198 655 c 0
 158 655 135 685 140 722 c 0
 145 756 172 780 208 780 c 0
60 21 m 1
 131 527 l 1
 222 527 l 1
 148 0 l 1
 119 0 l 1
 -7 -52 -23 -95 -23 -126 c 0
 -23 -148 -6 -161 24 -161 c 0
 46 -161 63 -158 87 -153 c 1
 72 -225 l 1
 52 -229 35 -231 11 -231 c 0
 -61 -231 -103 -190 -103 -137 c 0
 -103 -84 -72 -24 60 21 c 1
EndSplineSet
Substitution2: "'smcp' Lowercase to Small Capitals lookup 28 subtable" iogonek.sc
Substitution2: "'aalt' Access All Alternates lookup 0 subtable" iogonek.sc
EndChar

StartChar: Idotaccent
Encoding: 304 304 49
Width: 294
GlyphClass: 2
Flags: MW
HStem: 0 21G<62 158 62 62> 669 20G<159 255 255 255> 781 125<216 242.5>
VStem: 166 126
AnchorPoint: "Anchor-11" 0 0 basechar 0
AnchorPoint: "Anchor-10" 50 534 basechar 0
AnchorPoint: "Anchor-9" 207 689 basechar 0
AnchorPoint: "Anchor-8" 167 0 basechar 0
LayerCount: 2
Fore
SplineSet
234 906 m 0
 275 906 297 876 292 838 c 0
 287 805 261 781 224 781 c 0
 184 781 161 811 166 848 c 0
 171 882 198 906 234 906 c 0
158 0 m 1
 62 0 l 1
 159 689 l 1
 255 689 l 1
 158 0 l 1
EndSplineSet
Substitution2: "'c2sc' Capitals to Small Capitals lookup 23 subtable" i.sc.loclTRK
Substitution2: "'aalt' Access All Alternates lookup 0 subtable" i.sc.loclTRK
Position2: "'cpsp' Capital Spacing lookup 0 subtable" dx=5 dy=0 dh=10 dv=0
EndChar
StartChar: dotlessi
Encoding: 305 305 478
Width: 279
GlyphClass: 2
Flags: MW
HStem: 0 21G<57 148 57 57> 507 20G<131 222 222 222>
VStem: 57 165
AnchorPoint: "Anchor-14" 0 0 basechar 0
AnchorPoint: "Anchor-13" 0 0 basechar 0
AnchorPoint: "Anchor-12" 176 527 basechar 0
AnchorPoint: "Anchor-11" 127 0 basechar 0
AnchorPoint: "Anchor-10" 102 0 basechar 0
LayerCount: 2
Back
Fore
SplineSet
222 527 m 1
 148 0 l 1
 57 0 l 1
 131 527 l 1
 222 527 l 1
EndSplineSet
Substitution2: "'smcp' Lowercase to Small Capitals lookup 28 subtable" dotlessi.sc
Substitution2: "'aalt' Access All Alternates lookup 0 subtable" dotlessi.sc
EndChar

StartChar: IJ
Encoding: 306 306 44
Width: 594
GlyphClass: 2
Flags: MW
HStem: 0 21G<62 158 62 62> 669 20G<159 255 255 255 466 560 560 560>
VStem: 62 498
AnchorPoint: "Anchor-11" 0 0 basechar 0
AnchorPoint: "Anchor-10" 50 534 basechar 0
AnchorPoint: "Anchor-9" 513 689 basechar 0
AnchorPoint: "Anchor-8" 167 0 basechar 0
LayerCount: 2
Fore
SplineSet
158 0 m 1
 62 0 l 1
 159 689 l 1
 255 689 l 1
 158 0 l 1
476 93 m 2
 456 -51 382 -103 268 -138 c 1
 249 -67 l 1
 344 -31 371 11 383 103 c 1
 466 689 l 1
 560 689 l 1
 476 93 l 2
EndSplineSet
Substitution2: "'c2sc' Capitals to Small Capitals lookup 23 subtable" ij.sc
Substitution2: "'aalt' Access All Alternates lookup 0 subtable" ij.sc
Position2: "'cpsp' Capital Spacing lookup 0 subtable" dx=5 dy=0 dh=10 dv=0
EndChar

StartChar: ij
Encoding: 307 307 184
Width: 555
GlyphClass: 2
Flags: MW
HStem: -213 21G<231 231> 0 21G<57 149 57 57> 507 20G<131 223 223 223 407 498 498 498> 655 125<190 216.5 466 492.5>
VStem: 140 126 416 126
AnchorPoint: "Anchor-11" 0 0 basechar 0
AnchorPoint: "Anchor-10" 0 0 basechar 0
AnchorPoint: "Anchor-9" 453 527 basechar 0
AnchorPoint: "Anchor-8" 158 0 basechar 0
LayerCount: 2
Fore
SplineSet
208 780 m 0
 249 780 271 750 266 712 c 0
 261 679 235 655 198 655 c 0
 158 655 135 685 140 722 c 0
 145 756 172 780 208 780 c 0
484 780 m 0
 525 780 547 750 542 712 c 0
 537 679 511 655 474 655 c 0
 434 655 411 685 416 722 c 0
 421 756 448 780 484 780 c 0
149 0 m 1
 57 0 l 1
 131 527 l 1
 223 527 l 1
 149 0 l 1
428 29 m 2
 407 -120 348 -163 231 -213 c 1
 205 -144 l 1
 277 -112 321 -84 337 29 c 2
 407 527 l 1
 498 527 l 1
 428 29 l 2
EndSplineSet
Substitution2: "'smcp' Lowercase to Small Capitals lookup 24 subtable" ij.sc
Substitution2: "'aalt' Access All Alternates lookup 0 subtable" ij.sc
EndChar
StartChar: Jcircumflex
Encoding: 308 308 135
Width: 300
GlyphClass: 2
Flags: MW
HStem: 669 20G<172 266 266 266>
VStem: -45 440
AnchorPoint: "Anchor-14" 0 0 basechar 0
AnchorPoint: "Anchor-13" 346 786 basechar 0
AnchorPoint: "Anchor-12" 246 914 basechar 0
AnchorPoint: "Anchor-11" 0 0 basechar 0
AnchorPoint: "Anchor-10" 0 0 basechar 0
LayerCount: 2
Back
Fore
SplineSet
354 759 m 1
 239 840 l 1
 104 759 l 1
 67 804 l 1
 216 914 l 1
 276 914 l 1
 395 804 l 1
 354 759 l 1
266 689 m 1
 182 93 l 2
 162 -51 88 -103 -26 -138 c 1
 -45 -67 l 1
 50 -31 77 11 89 103 c 2
 172 689 l 1
 266 689 l 1
EndSplineSet
Substitution2: "'c2sc' Capitals to Small Capitals lookup 27 subtable" jcircumflex.sc
Substitution2: "'aalt' Access All Alternates lookup 0 subtable" jcircumflex.sc
Position2: "'cpsp' Capital Spacing lookup 0 subtable" dx=5 dy=0 dh=10 dv=0
EndChar

StartChar: jcircumflex
Encoding: 309 309 190
Width: 275
GlyphClass: 2
Flags: MW
HStem: -213 21G<-49 -49> 507 20G<127 218 218 218> 718 74<201 201>
VStem: -75 433
AnchorPoint: "Anchor-11" 0 0 basechar 0
AnchorPoint: "Anchor-10" 0 0 basechar 0
AnchorPoint: "Anchor-9" 173 527 basechar 0
AnchorPoint: "Anchor-8" 0 0 basechar 0
LayerCount: 2
Fore
SplineSet
30 679 m 1
 179 792 l 1
 239 792 l 1
 358 679 l 1
 314 634 l 1
 201 718 l 1
 67 634 l 1
 30 679 l 1
148 29 m 2
 127 -120 68 -163 -49 -213 c 1
 -75 -144 l 1
 -3 -112 41 -84 57 29 c 2
 127 527 l 1
 218 527 l 1
 148 29 l 2
EndSplineSet
Substitution2: "'smcp' Lowercase to Small Capitals lookup 24 subtable" jcircumflex.sc
Substitution2: "'aalt' Access All Alternates lookup 0 subtable" jcircumflex.sc
EndChar

StartChar: Kcommaaccent
Encoding: 310 310 57
Width: 583
GlyphClass: 2
Flags: MW
HStem: 0 21G<62 156 62 62 434 434 434 546> 669 20G<159 253 253 253 515 626 626 626>
VStem: 62 564 200 113<-141 -119>
AnchorPoint: "Anchor-11" 275 0 basechar 0
AnchorPoint: "Anchor-10" 0 0 basechar 0
AnchorPoint: "Anchor-9" 385 689 basechar 0
AnchorPoint: "Anchor-8" 0 0 basechar 0
LayerCount: 2
Fore
SplineSet
156 0 m 1xe0
 62 0 l 1
 159 689 l 1
 253 689 l 1
 156 0 l 1xe0
319 365 m 1
 546 0 l 1
 434 0 l 1
 213 368 l 1
 515 689 l 1
 626 689 l 1
 319 365 l 1
261 -77 m 0xd0
 295 -77 313 -104 313 -129 c 0
 313 -153 304 -171 277 -214 c 2
 225 -296 l 1
 171 -296 l 1
 219 -178 l 1
 209 -168 200 -153 200 -136 c 0
 200 -102 228 -77 261 -77 c 0xd0
EndSplineSet
Substitution2: "'c2sc' Capitals to Small Capitals lookup 23 subtable" kcommaaccent.sc
Substitution2: "'aalt' Access All Alternates lookup 0 subtable" kcommaaccent.sc
Position2: "'cpsp' Capital Spacing lookup 0 subtable" dx=5 dy=0 dh=10 dv=0
EndChar
StartChar: kcommaaccent
Encoding: 311 311 507
Width: 545
GlyphClass: 2
Flags: MW
HStem: 0 21G<57 148 57 57 371 473 371 371> 466 73<356 381> 730 20G<253 253>
VStem: 179 113<-141 -119> 420 97<377.5 427.5>
AnchorPoint: "Anchor-14" 0 0 basechar 0
AnchorPoint: "Anchor-13" 0 0 basechar 0
AnchorPoint: "Anchor-12" 354 739 basechar 0
AnchorPoint: "Anchor-11" 0 0 basechar 0
AnchorPoint: "Anchor-10" 252 0 basechar 0
LayerCount: 2
Back
Fore
SplineSet
253 750 m 1
 209 435 l 1
 259 506 323 539 389 539 c 0
 464 539 517 489 517 419 c 0
 517 336 464 268 354 233 c 1
 473 0 l 1
 371 0 l 1
 245 257 l 1
 369 292 420 336 420 409 c 0
 420 446 399 466 363 466 c 0
 307 466 237 419 192 316 c 1
 148 0 l 1
 57 0 l 1
 161 739 l 1
 253 750 l 1
240 -77 m 0
 274 -77 292 -104 292 -129 c 0
 292 -153 283 -171 256 -214 c 2
 204 -296 l 1
 150 -296 l 1
 198 -178 l 1
 188 -168 179 -153 179 -136 c 0
 179 -102 207 -77 240 -77 c 0
EndSplineSet
Substitution2: "'smcp' Lowercase to Small Capitals lookup 28 subtable" kcommaaccent.sc
Substitution2: "'aalt' Access All Alternates lookup 0 subtable" kcommaaccent.sc
EndChar
StartChar: kgreenlandic
Encoding: 312 312 508
Width: 508
GlyphClass: 2
Flags: MW
HStem: 0 21G<57 148 57 57 362 362 362 466> 507 20G<131 222 222 222 411 520 520 520>
VStem: 57 463
LayerCount: 2
Back
Fore
SplineSet
222 527 m 1
 148 0 l 1
 57 0 l 1
 131 527 l 1
 222 527 l 1
520 527 m 1
 293 278 l 1
 466 0 l 1
 362 0 l 1
 190 278 l 1
 411 527 l 1
 520 527 l 1
EndSplineSet
Substitution2: "'smcp' Lowercase to Small Capitals lookup 28 subtable" kgreenlandic.sc
Substitution2: "'aalt' Access All Alternates lookup 0 subtable" kgreenlandic.sc
EndChar
StartChar: Lacute
Encoding: 313 313 143
Width: 492
GlyphClass: 2
Flags: MW
HStem: 0 83<168 426> 669 20G<159 253 253 253>
VStem: 62 386<0 83>
AnchorPoint: "Anchor-14" 404 390 basechar 0
AnchorPoint: "Anchor-13" 278 689 basechar 0
AnchorPoint: "Anchor-12" 228 911 basechar 0
AnchorPoint: "Anchor-11" 0 0 basechar 0
AnchorPoint: "Anchor-10" 244 0 basechar 0
LayerCount: 2
Back
Fore
SplineSet
317 911 m 1
 346 834 l 1
 123 755 l 1
 106 804 l 1
 317 911 l 1
253 689 m 1
 168 83 l 1
 448 83 l 1
 426 0 l 1
 62 0 l 1
 159 689 l 1
 253 689 l 1
EndSplineSet
Substitution2: "'c2sc' Capitals to Small Capitals lookup 27 subtable" lacute.sc
Substitution2: "'aalt' Access All Alternates lookup 0 subtable" lacute.sc
Position2: "'cpsp' Capital Spacing lookup 0 subtable" dx=5 dy=0 dh=10 dv=0
EndChar
StartChar: lacute
Encoding: 314 314 512
Width: 288
GlyphClass: 2
Flags: MW
HStem: -12 76<171 175.5> 730 20G<249 249>
VStem: 66.76 91.24
AnchorPoint: "Anchor-14" 311 380 basechar 0
AnchorPoint: "Anchor-13" 257 739 basechar 0
AnchorPoint: "Anchor-12" 224 961 basechar 0
AnchorPoint: "Anchor-11" 0 0 basechar 0
AnchorPoint: "Anchor-10" 159 0 basechar 0
LayerCount: 2
Back
Fore
SplineSet
313 961 m 1
 342 884 l 1
 119 805 l 1
 102 854 l 1
 313 961 l 1
249 750 m 1
 158 103 l 2
 155 75 160 64 182 64 c 0
 194 64 206 67 218 72 c 1
 237 5 l 1
 210 -7 187 -12 164 -12 c 0
 94 -12 57 31 69 118 c 2
 157 739 l 1
 249 750 l 1
EndSplineSet
Substitution2: "'smcp' Lowercase to Small Capitals lookup 28 subtable" lacute.sc
Substitution2: "'aalt' Access All Alternates lookup 0 subtable" lacute.sc
EndChar
StartChar: Lcommaaccent
Encoding: 315 315 147
Width: 492
GlyphClass: 2
Flags: MW
HStem: 0 83<168 426> 669 20G<159 253 253 253>
VStem: 62 386<0 83> 169 113<-141 -119>
AnchorPoint: "Anchor-14" 404 390 basechar 0
AnchorPoint: "Anchor-13" 278 689 basechar 0
AnchorPoint: "Anchor-12" 206 689 basechar 0
AnchorPoint: "Anchor-11" 0 0 basechar 0
AnchorPoint: "Anchor-10" 244 0 basechar 0
LayerCount: 2
Back
Fore
SplineSet
253 689 m 1xe0
 168 83 l 1
 448 83 l 1
 426 0 l 1
 62 0 l 1
 159 689 l 1
 253 689 l 1xe0
230 -77 m 0xd0
 264 -77 282 -104 282 -129 c 0
 282 -153 273 -171 246 -214 c 2
 194 -296 l 1
 140 -296 l 1
 188 -178 l 1
 178 -168 169 -153 169 -136 c 0
 169 -102 197 -77 230 -77 c 0xd0
EndSplineSet
Substitution2: "'c2sc' Capitals to Small Capitals lookup 27 subtable" lcommaaccent.sc
Substitution2: "'aalt' Access All Alternates lookup 0 subtable" lcommaaccent.sc
Position2: "'cpsp' Capital Spacing lookup 0 subtable" dx=5 dy=0 dh=10 dv=0
EndChar
StartChar: lcommaaccent
Encoding: 316 316 518
Width: 288
GlyphClass: 2
Flags: MW
HStem: -12 76<171 175.5> 730 20G<249 249>
VStem: 66.76 91.24 86 113<-141 -119>
AnchorPoint: "Anchor-14" 311 380 basechar 0
AnchorPoint: "Anchor-13" 257 739 basechar 0
AnchorPoint: "Anchor-12" 202 739 basechar 0
AnchorPoint: "Anchor-11" 0 0 basechar 0
AnchorPoint: "Anchor-10" 159 0 basechar 0
LayerCount: 2
Back
Fore
SplineSet
249 750 m 1xe0
 158 103 l 2
 155 75 160 64 182 64 c 0
 194 64 206 67 218 72 c 1
 237 5 l 1
 210 -7 187 -12 164 -12 c 0
 94 -12 57 31 69 118 c 2
 157 739 l 1
 249 750 l 1xe0
147 -77 m 0xd0
 181 -77 199 -104 199 -129 c 0
 199 -153 190 -171 163 -214 c 2
 111 -296 l 1
 57 -296 l 1
 105 -178 l 1
 95 -168 86 -153 86 -136 c 0
 86 -102 114 -77 147 -77 c 0xd0
EndSplineSet
Substitution2: "'smcp' Lowercase to Small Capitals lookup 28 subtable" lcommaaccent.sc
Substitution2: "'aalt' Access All Alternates lookup 0 subtable" lcommaaccent.sc
EndChar
StartChar: Lcaron
Encoding: 317 317 145
Width: 492
GlyphClass: 2
Flags: MW
HStem: 0 83<168 426> 669 20G<159 253 253 253 408 408> 679 20G<326 326>
VStem: 62 386<0 83>
AnchorPoint: "Anchor-14" 404 390 basechar 0
AnchorPoint: "Anchor-13" 278 689 basechar 0
AnchorPoint: "Anchor-12" 206 689 basechar 0
AnchorPoint: "Anchor-11" 0 0 basechar 0
AnchorPoint: "Anchor-10" 244 0 basechar 0
LayerCount: 2
Back
Fore
SplineSet
326 699 m 1xb0
 408 689 l 1xd0
 336 505 l 1
 284 513 l 1
 326 699 l 1xb0
253 689 m 1
 168 83 l 1
 448 83 l 1
 426 0 l 1
 62 0 l 1
 159 689 l 1
 253 689 l 1
EndSplineSet
Substitution2: "'c2sc' Capitals to Small Capitals lookup 27 subtable" lcaron.sc
Substitution2: "'aalt' Access All Alternates lookup 0 subtable" lcaron.sc
Position2: "'cpsp' Capital Spacing lookup 0 subtable" dx=5 dy=0 dh=10 dv=0
EndChar
StartChar: lcaron
Encoding: 318 318 516
Width: 288
GlyphClass: 2
Flags: MW
HStem: -12 76<171 175.5> 719 20G<157 157 387 387> 729 20G<305 305> 730 20G<249 249>
VStem: 66.76 91.24
AnchorPoint: "Anchor-14" 311 380 basechar 0
AnchorPoint: "Anchor-13" 257 739 basechar 0
AnchorPoint: "Anchor-12" 202 739 basechar 0
AnchorPoint: "Anchor-11" 0 0 basechar 0
AnchorPoint: "Anchor-10" 159 0 basechar 0
LayerCount: 2
Back
Fore
SplineSet
249 750 m 1x98
 158 103 l 2
 155 75 160 64 182 64 c 0
 194 64 206 67 218 72 c 1
 237 5 l 1
 210 -7 187 -12 164 -12 c 0
 94 -12 57 31 69 118 c 2
 157 739 l 1
 249 750 l 1x98
305 749 m 1xa8
 387 739 l 1xc8
 315 555 l 1
 263 563 l 1
 305 749 l 1xa8
EndSplineSet
Substitution2: "'smcp' Lowercase to Small Capitals lookup 28 subtable" lcaron.sc
Substitution2: "'aalt' Access All Alternates lookup 0 subtable" lcaron.sc
EndChar
StartChar: Ldot
Encoding: 319 319 148
Width: 492
GlyphClass: 2
Flags: MW
HStem: 0 83<168 426> 325 125<388 414.5> 669 20G<159 253 253 253>
VStem: 62 402.62 338 126
AnchorPoint: "Anchor-14" 404 390 basechar 0
AnchorPoint: "Anchor-13" 278 689 basechar 0
AnchorPoint: "Anchor-12" 410 450 basechar 0
AnchorPoint: "Anchor-11" 0 0 basechar 0
AnchorPoint: "Anchor-10" 244 0 basechar 0
LayerCount: 2
Back
Fore
SplineSet
253 689 m 1xf0
 168 83 l 1
 448 83 l 1
 426 0 l 1
 62 0 l 1
 159 689 l 1
 253 689 l 1xf0
406 450 m 0xe8
 447 450 469 420 464 382 c 0
 459 349 433 325 396 325 c 0
 356 325 333 355 338 392 c 0
 343 426 370 450 406 450 c 0xe8
EndSplineSet
Ligature2: "Ligature Substitution lookup 40 subtable" L periodcentered
Substitution2: "'c2sc' Capitals to Small Capitals lookup 27 subtable" ldot.sc
Substitution2: "'aalt' Access All Alternates lookup 0 subtable" ldot.sc
Position2: "'cpsp' Capital Spacing lookup 0 subtable" dx=5 dy=0 dh=10 dv=0
EndChar

StartChar: ldot
Encoding: 320 320 198
Width: 331
GlyphClass: 2
Flags: MW
HStem: -12 76<130 134.5> 315 125<257 283.5> 730 20G<208 208>
VStem: 25.76 91.24 207 126
AnchorPoint: "Anchor-11" 78 0 basechar 0
AnchorPoint: "Anchor-10" 0 0 basechar 0
AnchorPoint: "Anchor-9" 161 739 basechar 0
AnchorPoint: "Anchor-8" 0 0 basechar 0
LayerCount: 2
Fore
SplineSet
117 103 m 2
 114 75 119 64 141 64 c 0
 153 64 165 67 177 72 c 1
 196 5 l 1
 169 -7 146 -12 123 -12 c 0
 53 -12 16 31 28 118 c 2
 116 739 l 1
 208 750 l 1
 117 103 l 2
275 440 m 0
 316 440 338 410 333 372 c 0
 328 339 302 315 265 315 c 0
 225 315 202 345 207 382 c 0
 212 416 239 440 275 440 c 0
EndSplineSet
Ligature2: "Ligature Substitution lookup 29 subtable" l periodcentered
Substitution2: "'smcp' Lowercase to Small Capitals lookup 24 subtable" ldot.sc
Substitution2: "'aalt' Access All Alternates lookup 0 subtable" ldot.sc
EndChar
StartChar: Lslash
Encoding: 321 321 151
Width: 502
GlyphClass: 2
Flags: MW
HStem: 0 83<178 436> 669 20G<169 263 263 263>
VStem: 23 435<83 282>
LayerCount: 2
Back
Fore
SplineSet
458 83 m 1
 436 0 l 1
 72 0 l 1
 108 254 l 1
 52 222 l 1
 23 282 l 1
 120 339 l 1
 169 689 l 1
 263 689 l 1
 222 398 l 1
 397 498 l 1
 427 438 l 1
 210 313 l 1
 178 83 l 1
 458 83 l 1
EndSplineSet
Substitution2: "'c2sc' Capitals to Small Capitals lookup 27 subtable" lslash.sc
Substitution2: "'aalt' Access All Alternates lookup 0 subtable" lslash.sc
Position2: "'cpsp' Capital Spacing lookup 0 subtable" dx=5 dy=0 dh=10 dv=0
EndChar
StartChar: lslash
Encoding: 322 322 527
Width: 296
GlyphClass: 2
Flags: MW
HStem: -12 76<171 175.5> 730 20G<249 249>
VStem: 66.76 91.24
AnchorPoint: "Anchor-14" 311 380 basechar 0
AnchorPoint: "Anchor-13" 257 739 basechar 0
AnchorPoint: "Anchor-12" 202 739 basechar 0
AnchorPoint: "Anchor-11" 0 0 basechar 0
AnchorPoint: "Anchor-10" 159 0 basechar 0
LayerCount: 2
Back
Fore
SplineSet
182 64 m 0
 194 64 206 67 218 72 c 1
 237 5 l 1
 210 -7 187 -12 164 -12 c 0
 94 -12 57 31 69 118 c 2
 95 303 l 1
 46 275 l 1
 24 341 l 1
 107 389 l 1
 157 739 l 1
 249 750 l 1
 206 445 l 1
 286 491 l 1
 308 425 l 1
 194 360 l 1
 158 103 l 2
 155 75 160 64 182 64 c 0
EndSplineSet
Substitution2: "'smcp' Lowercase to Small Capitals lookup 28 subtable" lslash.sc
Substitution2: "'aalt' Access All Alternates lookup 0 subtable" lslash.sc
EndChar
StartChar: Nacute
Encoding: 323 323 158
Width: 677
GlyphClass: 2
Flags: MW
HStem: 0 21G<62 151 62 62 418 541 418 418> 0 81<481 481 481 541 418 481> 607 82<221 221> 669 20G<159 283 283 283 549 638 638 638>
VStem: 62 576
AnchorPoint: "Anchor-14" 0 0 basechar 0
AnchorPoint: "Anchor-13" 0 0 basechar 0
AnchorPoint: "Anchor-12" 432 911 basechar 0
AnchorPoint: "Anchor-11" 0 0 basechar 0
AnchorPoint: "Anchor-10" 303 0 basechar 0
LayerCount: 2
Back
Fore
SplineSet
521 911 m 1x98
 550 834 l 1
 327 755 l 1
 310 804 l 1
 521 911 l 1x98
638 689 m 1
 541 0 l 1
 418 0 l 1
 221 607 l 1xa8
 220 523 213 441 195 313 c 2
 151 0 l 1
 62 0 l 1
 159 689 l 1
 283 689 l 1
 481 81 l 1x58
 481 172 485 232 496 316 c 2
 549 689 l 1
 638 689 l 1
EndSplineSet
Substitution2: "'c2sc' Capitals to Small Capitals lookup 27 subtable" nacute.sc
Substitution2: "'locl' Localized Forms in Latin lookup 7 subtable" Nacute.loclPLK
AlternateSubs2: "'aalt' Access All Alternates lookup 1 subtable" Nacute.loclPLK nacute.sc
Position2: "'cpsp' Capital Spacing lookup 0 subtable" dx=5 dy=0 dh=10 dv=0
EndChar

StartChar: nacute
Encoding: 324 324 202
Width: 580
GlyphClass: 2
Flags: MW
HStem: 0 21G<57 148 57 57 363 454 363 363> 462 77<349 373.5> 507 20G<131 209 209 209>
VStem: 417.28 92.1
AnchorPoint: "Anchor-11" 253 0 basechar 0
AnchorPoint: "Anchor-10" 121 527 basechar 0
AnchorPoint: "Anchor-9" 332 527 basechar 0
AnchorPoint: "Anchor-8" 0 0 basechar 0
LayerCount: 2
Fore
SplineSet
468 724 m 1xd0
 248 638 l 1
 227 687 l 1
 438 801 l 1
 468 724 l 1xd0
384 539 m 0
 473 539 521 475 507 375 c 2
 454 0 l 1
 363 0 l 1
 415 368 l 2
 426 447 397 462 350 462 c 0xd0
 292 462 233 391 191 316 c 1
 148 0 l 1
 57 0 l 1
 131 527 l 1
 209 527 l 1xb0
 201 424 l 1
 250 493 314 539 384 539 c 0
EndSplineSet
Substitution2: "'smcp' Lowercase to Small Capitals lookup 24 subtable" nacute.sc
Substitution2: "'locl' Localized Forms in Latin lookup 7 subtable" nacute.loclPLK
AlternateSubs2: "'aalt' Access All Alternates lookup 1 subtable" nacute.loclPLK nacute.sc
EndChar

StartChar: ncommaaccent
Encoding: 326 326 205
Width: 580
GlyphClass: 2
Flags: MW
HStem: 0 21G<57 148 57 57 363 454 363 363> 462 77<349 373.5> 507 20G<131 209 209 209>
VStem: 180 113<-141 -119> 417.28 92.1
AnchorPoint: "Anchor-11" 253 0 basechar 0
AnchorPoint: "Anchor-10" 121 527 basechar 0
AnchorPoint: "Anchor-9" 332 527 basechar 0
AnchorPoint: "Anchor-8" 0 0 basechar 0
LayerCount: 2
Fore
SplineSet
384 539 m 0xc8
 473 539 521 475 507 375 c 2
 454 0 l 1
 363 0 l 1
 415 368 l 2
 426 447 397 462 350 462 c 0xc8
 292 462 233 391 191 316 c 1
 148 0 l 1
 57 0 l 1
 131 527 l 1
 209 527 l 1xa8
 201 424 l 1
 250 493 314 539 384 539 c 0xc8
241 -77 m 0xd8
 275 -77 293 -104 293 -129 c 0
 293 -153 284 -171 257 -214 c 2
 205 -296 l 1
 151 -296 l 1
 199 -178 l 1
 189 -168 180 -153 180 -136 c 0
 180 -102 208 -77 241 -77 c 0xd8
EndSplineSet
Substitution2: "'smcp' Lowercase to Small Capitals lookup 24 subtable" ncommaaccent.sc
Substitution2: "'aalt' Access All Alternates lookup 0 subtable" ncommaaccent.sc
EndChar
StartChar: Ncaron
Encoding: 327 327 159
Width: 677
GlyphClass: 2
Flags: MW
HStem: 0 21G<62 151 62 62 418 541 418 418> 0 81<481 481 481 541 418 481> 607 82<221 221> 669 20G<159 283 283 283 549 638 638 638>
VStem: 62 576
AnchorPoint: "Anchor-14" 0 0 basechar 0
AnchorPoint: "Anchor-13" 0 0 basechar 0
AnchorPoint: "Anchor-12" 432 909 basechar 0
AnchorPoint: "Anchor-11" 0 0 basechar 0
AnchorPoint: "Anchor-10" 303 0 basechar 0
LayerCount: 2
Back
Fore
SplineSet
559 909 m 1x98
 594 864 l 1
 446 754 l 1
 386 754 l 1
 266 864 l 1
 309 909 l 1
 422 828 l 1
 559 909 l 1x98
638 689 m 1
 541 0 l 1
 418 0 l 1
 221 607 l 1xa8
 220 523 213 441 195 313 c 2
 151 0 l 1
 62 0 l 1
 159 689 l 1
 283 689 l 1
 481 81 l 1x58
 481 172 485 232 496 316 c 2
 549 689 l 1
 638 689 l 1
EndSplineSet
Substitution2: "'c2sc' Capitals to Small Capitals lookup 27 subtable" ncaron.sc
Substitution2: "'aalt' Access All Alternates lookup 0 subtable" ncaron.sc
Position2: "'cpsp' Capital Spacing lookup 0 subtable" dx=5 dy=0 dh=10 dv=0
EndChar
StartChar: ncaron
Encoding: 328 328 538
Width: 580
GlyphClass: 2
Flags: MW
HStem: 0 21G<57 148 57 57 363 454 363 363> 462 77<346 379> 507 20G<131 209 209 209> 627 74<342 342 342 367 307 342> 681 20G<342 342> 720 20G<188 188 516 516>
VStem: 417.1 91.56
AnchorPoint: "Anchor-14" 0 0 basechar 0
AnchorPoint: "Anchor-13" 0 0 basechar 0
AnchorPoint: "Anchor-12" 354 785 basechar 0
AnchorPoint: "Anchor-11" 0 0 basechar 0
AnchorPoint: "Anchor-10" 256 0 basechar 0
LayerCount: 2
Back
Fore
SplineSet
482 785 m 1xce
 516 740 l 1
 367 627 l 1
 307 627 l 1xd6
 188 740 l 1
 229 785 l 1
 342 701 l 1
 482 785 l 1xce
384 539 m 0
 472 539 521 475 506 370 c 2
 454 0 l 1
 363 0 l 1
 415 368 l 2
 425 442 399 462 359 462 c 0xce
 292 462 233 391 191 316 c 1
 148 0 l 1
 57 0 l 1
 131 527 l 1
 209 527 l 1xae
 201 424 l 1
 250 493 308 539 384 539 c 0
EndSplineSet
Substitution2: "'smcp' Lowercase to Small Capitals lookup 28 subtable" ncaron.sc
Substitution2: "'aalt' Access All Alternates lookup 0 subtable" ncaron.sc
EndChar

StartChar: napostrophe
Encoding: 329 329 203
Width: 667
GlyphClass: 2
Flags: MW
HStem: 0 21G<57 148 57 57 363 454 363 363> 462 77<349 373.5> 507 20G<131 209 209 209> 731 20G<206 238>
VStem: 161 112 417.28 92.1
AnchorPoint: "Anchor-11" 253 0 basechar 0
AnchorPoint: "Anchor-10" 121 527 basechar 0
AnchorPoint: "Anchor-9" 332 527 basechar 0
AnchorPoint: "Anchor-8" 0 0 basechar 0
LayerCount: 2
Fore
SplineSet
221 751 m 0xdc
 255 751 278 724 273 690 c 0
 271 675 265 660 238 616 c 2
 186 532 l 1
 132 532 l 1
 179 650 l 1
 167 662 158 679 161 700 c 0
 165 730 191 751 221 751 c 0xdc
384 539 m 0
 473 539 521 475 507 375 c 2
 454 0 l 1
 363 0 l 1
 415 368 l 2
 426 447 397 462 350 462 c 0xdc
 292 462 233 391 191 316 c 1
 148 0 l 1
 57 0 l 1
 131 527 l 1
 209 527 l 1xbc
 201 424 l 1
 250 493 314 539 384 539 c 0
EndSplineSet
Substitution2: "'smcp' Lowercase to Small Capitals lookup 24 subtable" napostrophe.sc
Substitution2: "'aalt' Access All Alternates lookup 0 subtable" napostrophe.sc
EndChar
StartChar: Eng
Encoding: 330 330 165
Width: 677
GlyphClass: 2
Flags: MW
HStem: -213 76<347.5 383.5 347.5 409.5> 0 21G<62 151 62 62 418 447 418 418 541 541> 607 82<221 221> 669 20G<159 283 283 283 549 638 638 638>
VStem: 62 576 443 94
AnchorPoint: "Anchor-14" 0 0 basechar 0
AnchorPoint: "Anchor-13" 0 0 basechar 0
AnchorPoint: "Anchor-12" 410 689 basechar 0
AnchorPoint: "Anchor-11" 0 0 basechar 0
AnchorPoint: "Anchor-10" 303 0 basechar 0
LayerCount: 2
Back
Fore
SplineSet
549 689 m 1xd8
 638 689 l 1
 541 0 l 1
 533 -60 l 2
 518 -165 454 -213 365 -213 c 0
 311 -213 277 -192 254 -173 c 1
 295 -115 l 1
 316 -129 332 -137 363 -137 c 0
 404 -137 431 -112 439 -60 c 2
 447 0 l 1
 418 0 l 1xd4
 221 607 l 1xe8
 220 523 213 441 195 313 c 2
 151 0 l 1
 62 0 l 1
 159 689 l 1
 283 689 l 1
 481 81 l 1
 481 172 485 232 496 316 c 2
 549 689 l 1xd8
EndSplineSet
Substitution2: "'ss01' Style Set 1 lookup 34 subtable" Eng.ss01
Substitution2: "'salt' Stylistic Alternatives lookup 33 subtable" Eng.ss01
Substitution2: "'c2sc' Capitals to Small Capitals lookup 27 subtable" eng.sc
AlternateSubs2: "'aalt' Access All Alternates lookup 1 subtable" eng.sc Eng.ss01
Position2: "'cpsp' Capital Spacing lookup 0 subtable" dx=5 dy=0 dh=10 dv=0
EndChar
StartChar: eng
Encoding: 331 331 545
Width: 580
GlyphClass: 2
Flags: MW
HStem: -213 74<259.5 295 259.5 322> 0 21G<57 148 57 57 363 363 454 454> 462 77<346 379> 507 20G<131 209 209 209>
VStem: 358.5 91.5 417.1 91.56
AnchorPoint: "Anchor-14" 0 0 basechar 0
AnchorPoint: "Anchor-13" 0 0 basechar 0
AnchorPoint: "Anchor-12" 327 527 basechar 0
AnchorPoint: "Anchor-11" 0 0 basechar 0
AnchorPoint: "Anchor-10" 238 -202 basechar 0
LayerCount: 2
Back
Fore
SplineSet
384 539 m 0xe4
 472 539 521 475 506 370 c 2
 454 0 l 1
 446 -60 l 2
 431 -164 366 -213 278 -213 c 0
 224 -213 190 -192 167 -173 c 1
 208 -117 l 1
 229 -131 245 -139 274 -139 c 0
 316 -139 347 -116 354 -62 c 2
 363 0 l 1xe8
 415 368 l 2
 425 442 399 462 359 462 c 0xe4
 292 462 233 391 191 316 c 1
 148 0 l 1
 57 0 l 1
 131 527 l 1
 209 527 l 1xd4
 201 424 l 1
 250 493 308 539 384 539 c 0xe4
EndSplineSet
Substitution2: "'smcp' Lowercase to Small Capitals lookup 28 subtable" eng.sc
Substitution2: "'aalt' Access All Alternates lookup 0 subtable" eng.sc
EndChar
StartChar: omacron
Encoding: 333 333 579
Width: 578
GlyphClass: 2
Flags: MW
HStem: -12 74<221.5 325.5 221.5 357.5> 465 74<253.5 357> 667 69<220 482 211 491>
VStem: 52 96<150 246.5 150 271> 430 96<280.5 377>
AnchorPoint: "Anchor-14" 0 0 basechar 0
AnchorPoint: "Anchor-13" 512 527 basechar 0
AnchorPoint: "Anchor-12" 353 736 basechar 0
AnchorPoint: "Anchor-11" 0 0 basechar 0
AnchorPoint: "Anchor-10" 254 0 basechar 0
LayerCount: 2
Back
Fore
SplineSet
482 667 m 1
 211 667 l 1
 220 736 l 1
 491 736 l 1
 482 667 l 1
325 539 m 0
 456 539 526 455 526 321 c 0
 526 194 461 -12 254 -12 c 0
 123 -12 52 72 52 206 c 0
 52 336 119 539 325 539 c 0
322 465 m 0
 185 465 148 297 148 196 c 0
 148 104 186 62 257 62 c 0
 394 62 430 230 430 331 c 0
 430 423 392 465 322 465 c 0
EndSplineSet
Substitution2: "'smcp' Lowercase to Small Capitals lookup 28 subtable" omacron.sc
Substitution2: "'aalt' Access All Alternates lookup 0 subtable" omacron.sc
EndChar
StartChar: Obreve
Encoding: 334 334 173
Width: 686
GlyphClass: 2
Flags: MW
HStem: -12 78<265 405.5 265 435> 623 78<304.5 446> 758 70<396.5 443 396.5 456>
VStem: 61 98<191 332.5 191 353> 550 98<358 497>
AnchorPoint: "Anchor-14" 0 0 basechar 0
AnchorPoint: "Anchor-13" 603 689 basechar 0
AnchorPoint: "Anchor-12" 434 896 basechar 0
AnchorPoint: "Anchor-11" 0 0 basechar 0
AnchorPoint: "Anchor-10" 303 0 basechar 0
LayerCount: 2
Back
Fore
SplineSet
417 758 m 0
 336 758 281 810 283 884 c 1
 342 892 l 1
 351 852 374 828 419 828 c 0
 467 828 503 856 522 896 c 1
 582 878 l 1
 564 804 495 758 417 758 c 0
402 701 m 0
 552 701 648 603 648 421 c 0
 648 239 562 -12 308 -12 c 0
 158 -12 61 85 61 265 c 0
 61 441 147 701 402 701 c 0
398 623 m 0
 211 623 159 403 159 262 c 0
 159 120 219 66 311 66 c 0
 500 66 550 288 550 428 c 0
 550 566 494 623 398 623 c 0
EndSplineSet
Substitution2: "'c2sc' Capitals to Small Capitals lookup 27 subtable" obreve.sc
Substitution2: "'aalt' Access All Alternates lookup 0 subtable" obreve.sc
Position2: "'cpsp' Capital Spacing lookup 0 subtable" dx=5 dy=0 dh=10 dv=0
EndChar

StartChar: obreve
Encoding: 335 335 210
Width: 578
GlyphClass: 2
Flags: MW
HStem: -12 74<221.5 325.5 221.5 357.5> 465 74<253.5 357> 643 70<323.5 370 323.5 383>
VStem: 52 96<150 246.5 150 271> 211 62<779 787> 430 96<280.5 377>
AnchorPoint: "Anchor-11" 0 0 basechar 0
AnchorPoint: "Anchor-10" 0 0 basechar 0
AnchorPoint: "Anchor-9" 326 527 basechar 0
AnchorPoint: "Anchor-8" 0 0 basechar 0
LayerCount: 2
Fore
SplineSet
344 643 m 0
 263 643 208 695 211 779 c 1
 273 787 l 1
 280 737 301 713 346 713 c 0
 394 713 431 741 451 791 c 1
 511 773 l 1
 491 689 422 643 344 643 c 0
325 539 m 0
 456 539 526 455 526 321 c 0
 526 194 461 -12 254 -12 c 0
 123 -12 52 72 52 206 c 0
 52 336 119 539 325 539 c 0
322 465 m 0
 185 465 148 297 148 196 c 0
 148 104 186 62 257 62 c 0
 394 62 430 230 430 331 c 0
 430 423 392 465 322 465 c 0
EndSplineSet
Substitution2: "'smcp' Lowercase to Small Capitals lookup 24 subtable" obreve.sc
Substitution2: "'aalt' Access All Alternates lookup 0 subtable" obreve.sc
EndChar

StartChar: Ohungarumlaut
Encoding: 336 336 77
Width: 686
GlyphClass: 2
Flags: MW
HStem: -12 78<265 405.5 265 435> 623 78<304.5 446>
VStem: 61 98<187.5 329 187.5 353> 550 98<363 502>
AnchorPoint: "Anchor-11" 0 0 basechar 0
AnchorPoint: "Anchor-10" 68 534 basechar 0
AnchorPoint: "Anchor-9" 407 689 basechar 0
AnchorPoint: "Anchor-8" 0 0 basechar 0
LayerCount: 2
Fore
SplineSet
441 917 m 1
 326 765 l 1
 270 790 l 1
 369 958 l 1
 441 917 l 1
592 917 m 1
 466 760 l 1
 411 785 l 1
 519 958 l 1
 592 917 l 1
402 701 m 0
 552 701 648 603 648 421 c 0
 648 239 562 -12 308 -12 c 0
 158 -12 61 85 61 265 c 0
 61 441 147 701 402 701 c 0
398 623 m 0
 211 623 159 403 159 255 c 0
 159 120 219 66 311 66 c 0
 500 66 550 288 550 438 c 0
 550 566 494 623 398 623 c 0
EndSplineSet
Substitution2: "'c2sc' Capitals to Small Capitals lookup 23 subtable" ohungarumlaut.sc
Substitution2: "'aalt' Access All Alternates lookup 0 subtable" ohungarumlaut.sc
Position2: "'cpsp' Capital Spacing lookup 0 subtable" dx=5 dy=0 dh=10 dv=0
EndChar

StartChar: OE
Encoding: 338 338 82
Width: 901
GlyphClass: 2
Flags: MW
HStem: -12 78<259 307.5> 0 66<371 390 259 798 371 371> 0 76<493 798> 312 76<626 789 617 799> 613 76<565 866 565 565> 623 66<300 887> 623 78<300 401 269 431.5>
VStem: 61 98<187 324.5 187 351.5> 530 97<416 458 416 504>
AnchorPoint: "Anchor-11" 0 0 basechar 0
AnchorPoint: "Anchor-10" 0 0 basechar 0
AnchorPoint: "Anchor-9" 504 689 basechar 0
AnchorPoint: "Anchor-8" 0 0 basechar 0
LayerCount: 2
Fore
SplineSet
866 613 m 1x3980
 565 613 l 1
 606 568 627 500 627 416 c 1
 626 388 l 1
 799 388 l 1
 789 312 l 1
 617 312 l 1
 601 227 564 139 493 76 c 1
 809 76 l 1
 798 0 l 1
 371 0 l 1x3980
 346 -8 320 -12 295 -12 c 0
 156 -12 61 85 61 264 c 0
 61 439 151 701 387 701 c 0x9380
 415 701 441 697 465 688 c 1
 463 689 l 1
 887 689 l 1
 866 613 l 1x3980
301 66 m 0x5580
 479 66 530 291 530 439 c 0
 530 569 475 623 388 623 c 0
 212 623 159 394 159 255 c 0
 159 119 217 66 301 66 c 0x5580
EndSplineSet
Substitution2: "'c2sc' Capitals to Small Capitals lookup 23 subtable" oe.sc
Substitution2: "'aalt' Access All Alternates lookup 0 subtable" oe.sc
Position2: "'cpsp' Capital Spacing lookup 0 subtable" dx=5 dy=0 dh=10 dv=0
EndChar
StartChar: oe
Encoding: 339 339 592
Width: 890
GlyphClass: 2
Flags: MW
HStem: -12 74<221.5 303> -12 77<596.5 654.5 596.5 656> 465 74<253.5 357>
VStem: 52 96<150 246.5 150 271> 430 86 762 96<357 414.5>
AnchorPoint: "Anchor-14" 0 0 basechar 0
AnchorPoint: "Anchor-13" 0 0 basechar 0
AnchorPoint: "Anchor-12" 482 527 basechar 0
AnchorPoint: "Anchor-11" 0 0 basechar 0
AnchorPoint: "Anchor-10" 434 0 basechar 0
LayerCount: 2
Back
Fore
SplineSet
858 405 m 0xb4
 858 257 700 216 516 196 c 1
 518 100 563 65 630 65 c 0
 679 65 723 80 771 114 c 1x7c
 810 52 l 1
 753 11 691 -12 621 -12 c 0
 536 -12 480 30 449 92 c 1
 411 32 352 -12 254 -12 c 0
 123 -12 52 72 52 206 c 0
 52 336 119 539 325 539 c 0
 408 539 463 493 492 433 c 1
 533 495 596 539 691 539 c 0
 803 539 858 475 858 405 c 0xb4
521 266 m 1
 672 283 762 312 762 402 c 0
 762 427 747 466 690 466 c 0
 580 466 534 362 521 266 c 1
257 62 m 0xbc
 394 62 430 230 430 331 c 0
 430 423 392 465 322 465 c 0
 185 465 148 297 148 196 c 0
 148 104 186 62 257 62 c 0xbc
EndSplineSet
Substitution2: "'smcp' Lowercase to Small Capitals lookup 28 subtable" oe.sc
Substitution2: "'aalt' Access All Alternates lookup 0 subtable" oe.sc
EndChar

StartChar: racute
Encoding: 341 341 224
Width: 381
GlyphClass: 2
Flags: MW
HStem: 0 21G<57 148 57 57> 448 91<327 347.5> 507 20G<131 209 209 209> 532 7
VStem: 57 352
AnchorPoint: "Anchor-11" 103 0 basechar 0
AnchorPoint: "Anchor-10" 0 0 basechar 0
AnchorPoint: "Anchor-9" 273 527 basechar 0
AnchorPoint: "Anchor-8" 0 0 basechar 0
LayerCount: 2
Fore
SplineSet
409 724 m 1xc8
 189 638 l 1
 168 687 l 1
 379 801 l 1
 409 724 l 1xc8
356 539 m 0
 375 539 393 536 409 532 c 1x98
 382 443 l 1
 367 447 356 448 339 448 c 0xc8
 271 448 225 386 188 279 c 1
 148 0 l 1
 57 0 l 1
 131 527 l 1
 209 527 l 1xa8
 203 419 l 1
 243 501 298 539 356 539 c 0
EndSplineSet
Substitution2: "'smcp' Lowercase to Small Capitals lookup 24 subtable" racute.sc
Substitution2: "'aalt' Access All Alternates lookup 0 subtable" racute.sc
EndChar
StartChar: Rcommaaccent
Encoding: 342 342 221
Width: 599
GlyphClass: 2
Flags: MW
HStem: 0 21G<62 156 62 62 433 537 433 433> 292 73<207 306 197 308> 615 74<242 242 242 331>
VStem: 194 113<-141 -119> 473 99<483.5 553>
AnchorPoint: "Anchor-14" 0 0 basechar 0
AnchorPoint: "Anchor-13" 0 0 basechar 0
AnchorPoint: "Anchor-12" 356 689 basechar 0
AnchorPoint: "Anchor-11" 0 0 basechar 0
AnchorPoint: "Anchor-10" 269 0 basechar 0
LayerCount: 2
Back
Fore
SplineSet
572 518 m 0
 572 434 528 343 398 306 c 1
 537 0 l 1
 433 0 l 1
 306 292 l 1
 197 292 l 1
 156 0 l 1
 62 0 l 1
 159 689 l 1
 336 689 l 2
 494 689 572 632 572 518 c 0
242 615 m 1
 207 365 l 1
 308 365 l 2
 438 365 473 449 473 518 c 0
 473 588 429 615 331 615 c 2
 242 615 l 1
255 -77 m 0
 289 -77 307 -104 307 -129 c 0
 307 -153 298 -171 271 -214 c 2
 219 -296 l 1
 165 -296 l 1
 213 -178 l 1
 203 -168 194 -153 194 -136 c 0
 194 -102 222 -77 255 -77 c 0
EndSplineSet
Substitution2: "'c2sc' Capitals to Small Capitals lookup 27 subtable" rcommaaccent.sc
Substitution2: "'aalt' Access All Alternates lookup 0 subtable" rcommaaccent.sc
Position2: "'cpsp' Capital Spacing lookup 0 subtable" dx=5 dy=0 dh=10 dv=0
EndChar

StartChar: Rcaron
Encoding: 344 344 88
Width: 599
GlyphClass: 2
Flags: MW
HStem: 0 21G<62 156 62 62 433 537 433 433> 292 73<207 306 197 308> 615 74<242 331 242 242> 754 74<332 368 368 368 368 392>
VStem: 473 99<487 557.5>
AnchorPoint: "Anchor-11" 269 0 basechar 0
AnchorPoint: "Anchor-10" 0 0 basechar 0
AnchorPoint: "Anchor-9" 356 689 basechar 0
AnchorPoint: "Anchor-8" 0 0 basechar 0
LayerCount: 2
Fore
SplineSet
332 754 m 1
 212 864 l 1
 255 909 l 1
 368 828 l 1
 505 909 l 1
 540 864 l 1
 392 754 l 1
 332 754 l 1
572 523 m 0
 572 435 528 343 398 306 c 1
 537 0 l 1
 433 0 l 1
 306 292 l 1
 197 292 l 1
 156 0 l 1
 62 0 l 1
 159 689 l 1
 336 689 l 2
 494 689 572 632 572 523 c 0
207 365 m 1
 308 365 l 2
 438 365 473 449 473 525 c 0
 473 590 429 615 331 615 c 2
 242 615 l 1
 207 365 l 1
EndSplineSet
Substitution2: "'c2sc' Capitals to Small Capitals lookup 23 subtable" rcaron.sc
Substitution2: "'aalt' Access All Alternates lookup 0 subtable" rcaron.sc
Position2: "'cpsp' Capital Spacing lookup 0 subtable" dx=5 dy=0 dh=10 dv=0
EndChar
StartChar: rcaron
Encoding: 345 345 606
Width: 381
GlyphClass: 2
Flags: MW
HStem: 0 21G<57 148 57 57> 448 91<327 347.5> 507 20G<131 209 209 209> 532 7 627 74<288 288 288 313 253 288> 681 20G<288 288> 720 20G<134 134 462 462>
VStem: 57 405
AnchorPoint: "Anchor-14" 0 0 basechar 0
AnchorPoint: "Anchor-13" 0 0 basechar 0
AnchorPoint: "Anchor-12" 300 785 basechar 0
AnchorPoint: "Anchor-11" 0 0 basechar 0
AnchorPoint: "Anchor-10" 103 0 basechar 0
LayerCount: 2
Back
Fore
SplineSet
428 785 m 1xc7
 462 740 l 1
 313 627 l 1
 253 627 l 1xcb
 134 740 l 1
 175 785 l 1
 288 701 l 1
 428 785 l 1xc7
356 539 m 0
 375 539 393 536 409 532 c 1x97
 382 443 l 1
 367 447 356 448 339 448 c 0xc7
 271 448 225 386 188 279 c 1
 148 0 l 1
 57 0 l 1
 131 527 l 1
 209 527 l 1xa7
 203 419 l 1
 243 501 298 539 356 539 c 0
EndSplineSet
Substitution2: "'smcp' Lowercase to Small Capitals lookup 28 subtable" rcaron.sc
Substitution2: "'aalt' Access All Alternates lookup 0 subtable" rcaron.sc
EndChar

StartChar: scircumflex
Encoding: 349 349 231
Width: 461
GlyphClass: 2
Flags: MW
HStem: -12 74<169 244 169 248> 466 73<232 287> 718 74<303 303>
VStem: 64 93<374 417 374 424.5> 316 96<132 174.5>
AnchorPoint: "Anchor-11" 195 0 basechar 0
AnchorPoint: "Anchor-10" 0 0 basechar 0
AnchorPoint: "Anchor-9" 275 527 basechar 0
AnchorPoint: "Anchor-8" 0 0 basechar 0
LayerCount: 2
Fore
SplineSet
132 679 m 1
 281 792 l 1
 341 792 l 1
 460 679 l 1
 416 634 l 1
 303 718 l 1
 169 634 l 1
 132 679 l 1
266 539 m 0
 336 539 391 514 436 474 c 1
 391 416 l 1
 355 450 308 466 266 466 c 0
 198 466 157 439 157 395 c 0
 157 353 192 336 263 315 c 0
 362 285 412 242 412 155 c 0
 412 40 303 -12 193 -12 c 0
 101 -12 39 24 -2 64 c 1
 54 121 l 1
 89 84 141 62 197 62 c 0
 291 62 316 116 316 148 c 0
 316 201 288 217 205 245 c 0
 107 278 64 318 64 390 c 0
 64 459 126 539 266 539 c 0
EndSplineSet
Substitution2: "'smcp' Lowercase to Small Capitals lookup 24 subtable" scircumflex.sc
Substitution2: "'aalt' Access All Alternates lookup 0 subtable" scircumflex.sc
EndChar
StartChar: Scedilla
Encoding: 350 350 231
Width: 539
GlyphClass: 2
Flags: MW
HStem: -241 60<183 213.5 183 241> -214 21G<107 107> -99 43 -11 77<193 193 255 255> 623 78<287.5 352>
VStem: 87 96<485 546.5> 254 75 394 98<168.5 234>
AnchorPoint: "Anchor-14" 0 0 basechar 0
AnchorPoint: "Anchor-13" 0 0 basechar 0
AnchorPoint: "Anchor-12" 333 689 basechar 0
AnchorPoint: "Anchor-11" 0 0 basechar 0
AnchorPoint: "Anchor-10" 220 -241 basechar 0
LayerCount: 2
Back
Fore
SplineSet
312 398 m 0x7f
 408 368 492 327 492 209 c 0
 492 128 437 2 255 -11 c 1
 247 -56 l 1
 306 -61 329 -95 329 -136 c 0
 329 -187 286 -241 196 -241 c 0xbf
 157 -241 127 -229 107 -214 c 1x7f
 138 -165 l 1
 153 -175 170 -181 196 -181 c 0xbf
 231 -181 253 -166 254 -138 c 0
 255 -109 236 -99 172 -99 c 1
 193 -11 l 1
 107 -5 43 29 -1 80 c 1
 59 136 l 1
 100 91 151 66 224 66 c 0
 312 66 394 114 394 204 c 0
 394 264 362 291 267 324 c 0
 150 360 87 408 87 507 c 0
 87 586 156 701 323 701 c 0
 414 701 476 671 527 618 c 1
 468 563 l 1
 424 607 379 623 325 623 c 0
 250 623 183 583 183 511 c 0
 183 459 211 432 312 398 c 0x7f
EndSplineSet
Substitution2: "'c2sc' Capitals to Small Capitals lookup 27 subtable" scedilla.sc
Substitution2: "'locl' Localized Forms in Latin lookup 5 subtable" Scommaaccent
Substitution2: "'locl' Localized Forms in Latin lookup 4 subtable" Scommaaccent
AlternateSubs2: "'aalt' Access All Alternates lookup 1 subtable" Scommaaccent scedilla.sc
Position2: "'cpsp' Capital Spacing lookup 0 subtable" dx=5 dy=0 dh=10 dv=0
EndChar
StartChar: scedilla
Encoding: 351 351 623
Width: 461
GlyphClass: 2
Flags: MW
HStem: -241 60<145 175.5 145 203> -214 21G<69 69> -99 43 -11 21G<216 216> -10 21G<156 156> -10 72<156 243.5> 466 73<230 285>
VStem: 64 93<374 417 374 424> 216 75 316 96<130.5 174.5>
AnchorPoint: "Anchor-14" 0 0 basechar 0
AnchorPoint: "Anchor-13" 0 0 basechar 0
AnchorPoint: "Anchor-12" 275 527 basechar 0
AnchorPoint: "Anchor-11" 0 0 basechar 0
AnchorPoint: "Anchor-10" 182 -241 basechar 0
LayerCount: 2
Back
Fore
SplineSet
263 315 m 0x6b40
 362 284 412 240 412 157 c 0x7340
 412 48 318 -4 216 -11 c 1
 209 -56 l 1
 268 -61 291 -95 291 -136 c 0
 291 -187 248 -241 158 -241 c 0xb3c0
 119 -241 89 -229 69 -214 c 1x6b40
 100 -165 l 1
 115 -175 132 -181 158 -181 c 0
 193 -181 215 -166 216 -138 c 0
 217 -109 198 -99 134 -99 c 1
 156 -10 l 1xabc0
 84 -2 33 30 -2 64 c 1
 51 118 l 1
 89 84 138 62 197 62 c 0
 290 62 316 113 316 148 c 0x6740
 316 201 289 219 205 245 c 0
 104 276 64 317 64 389 c 0
 64 459 126 539 263 539 c 0
 336 539 391 514 436 474 c 1
 392 419 l 1
 352 450 308 466 262 466 c 0
 198 466 157 439 157 395 c 0
 157 353 192 337 263 315 c 0x6b40
EndSplineSet
Substitution2: "'smcp' Lowercase to Small Capitals lookup 28 subtable" scedilla.sc
Substitution2: "'locl' Localized Forms in Latin lookup 5 subtable" scommaaccent
Substitution2: "'locl' Localized Forms in Latin lookup 4 subtable" scommaaccent
AlternateSubs2: "'aalt' Access All Alternates lookup 1 subtable" scommaaccent scedilla.sc
EndChar

StartChar: Scaron
Encoding: 352 352 92
Width: 539
GlyphClass: 2
Flags: MW
HStem: -12 78<187.5 268 187.5 326> 623 78<287.5 352> 754 74<345 345 345 369 309 345>
VStem: 87 96<485 546.5> 394 98<166 234>
AnchorPoint: "Anchor-11" 227 0 basechar 0
AnchorPoint: "Anchor-10" 0 0 basechar 0
AnchorPoint: "Anchor-9" 333 689 basechar 0
AnchorPoint: "Anchor-8" 0 0 basechar 0
LayerCount: 2
Fore
SplineSet
517 864 m 1
 369 754 l 1
 309 754 l 1
 189 864 l 1
 232 909 l 1
 345 828 l 1
 482 909 l 1
 517 864 l 1
323 701 m 0
 414 701 476 671 527 618 c 1
 468 563 l 1
 424 607 379 623 325 623 c 0
 250 623 183 583 183 511 c 0
 183 459 211 432 312 398 c 1
 408 368 492 327 492 209 c 0
 492 123 430 -12 222 -12 c 0
 121 -12 48 24 -1 80 c 1
 59 136 l 1
 100 91 151 66 224 66 c 0
 312 66 394 114 394 204 c 0
 394 264 362 291 267 324 c 1
 150 360 87 408 87 507 c 0
 87 586 156 701 323 701 c 0
EndSplineSet
Substitution2: "'c2sc' Capitals to Small Capitals lookup 23 subtable" scaron.sc
Substitution2: "'aalt' Access All Alternates lookup 0 subtable" scaron.sc
Position2: "'cpsp' Capital Spacing lookup 0 subtable" dx=5 dy=0 dh=10 dv=0
EndChar

StartChar: Tcedilla
Encoding: 354 354 99
Width: 511
GlyphClass: 2
Flags: MW
HStem: -241 60<192 219 192 252.5> -214 21G<117 117> -99 43 0 21G<171 206 171 171 266 266> 608 81<74 256 62 562 351 540 351 351>
VStem: 264 75
AnchorPoint: "Anchor-11" 219 0 basechar 0
AnchorPoint: "Anchor-10" 0 0 basechar 0
AnchorPoint: "Anchor-9" 316 689 basechar 0
AnchorPoint: "Anchor-8" 0 0 basechar 0
LayerCount: 2
Fore
SplineSet
562 689 m 1x7c
 540 608 l 1
 351 608 l 1
 266 0 l 1
 257 -56 l 1
 316 -61 339 -95 339 -132 c 0
 339 -185 299 -241 206 -241 c 0xbc
 167 -241 136 -229 117 -214 c 1x7c
 148 -165 l 1
 163 -175 180 -181 204 -181 c 0xbc
 234 -181 263 -166 264 -138 c 0
 265 -109 246 -99 182 -99 c 1
 206 0 l 1
 171 0 l 1
 256 608 l 1
 62 608 l 1
 74 689 l 1
 562 689 l 1x7c
EndSplineSet
Substitution2: "'c2sc' Capitals to Small Capitals lookup 23 subtable" tcedilla.sc
Substitution2: "'locl' Localized Forms in Latin lookup 5 subtable" uni021A
Substitution2: "'locl' Localized Forms in Latin lookup 4 subtable" uni021A
AlternateSubs2: "'aalt' Access All Alternates lookup 1 subtable" uni021A tcedilla.sc
Position2: "'cpsp' Capital Spacing lookup 0 subtable" dx=5 dy=0 dh=10 dv=0
EndChar
StartChar: uni0162
Encoding: 354 354 241
Width: 511
GlyphClass: 2
Flags: MW
HStem: -241 60<192 219 192 252.5> -214 21G<117 117> -99 43 0 21G<171 206 171 171 265 266 266 266> 608 81<74 256 62 562 350 540 350 350>
VStem: 264 75
AnchorPoint: "Anchor-14" 267 345 basechar 0
AnchorPoint: "Anchor-13" 0 0 basechar 0
AnchorPoint: "Anchor-12" 314 689 basechar 0
AnchorPoint: "Anchor-11" 0 0 basechar 0
AnchorPoint: "Anchor-10" 219 0 basechar 0
LayerCount: 2
Back
Fore
SplineSet
74 689 m 1x7c
 562 689 l 1
 540 608 l 1
 350 608 l 1
 265 0 l 1
 266 0 l 1
 257 -56 l 1
 316 -61 339 -95 339 -132 c 0
 339 -185 299 -241 206 -241 c 0xbc
 167 -241 136 -229 117 -214 c 1x7c
 148 -165 l 1
 163 -175 180 -181 204 -181 c 0xbc
 234 -181 263 -166 264 -138 c 0
 265 -109 246 -99 182 -99 c 1
 206 0 l 1
 171 0 l 1
 256 608 l 1
 62 608 l 1
 74 689 l 1x7c
EndSplineSet
Substitution2: "'c2sc' Capitals to Small Capitals lookup 27 subtable" uni0163.sc
Substitution2: "'locl' Localized Forms in Latin lookup 5 subtable" uni021A
Substitution2: "'locl' Localized Forms in Latin lookup 4 subtable" uni021A
AlternateSubs2: "'aalt' Access All Alternates lookup 1 subtable" uni021A uni0163.sc
Position2: "'cpsp' Capital Spacing lookup 0 subtable" dx=5 dy=0 dh=10 dv=0
EndChar

StartChar: tcedilla
Encoding: 355 355 237
Width: 355
GlyphClass: 2
Flags: MW
HStem: -241 60<143 170 143 203.5> -214 21G<68 68> -99 43 -12 77<215 215> -5 21G<156 156> 456 71<45 126 35 140 227 331>
VStem: 79.63 91.29 215 75
AnchorPoint: "Anchor-11" 194 0 basechar 0
AnchorPoint: "Anchor-10" 0 0 basechar 0
AnchorPoint: "Anchor-9" 0 0 basechar 0
AnchorPoint: "Anchor-8" 0 0 basechar 0
LayerCount: 2
Fore
SplineSet
173 139 m 2x77
 165 86 177 65 220 65 c 0
 244 65 266 73 294 89 c 1
 324 23 l 1
 289 1 253 -10 215 -12 c 1
 208 -56 l 1
 267 -61 290 -95 290 -132 c 0
 290 -185 250 -241 157 -241 c 0xb7
 118 -241 87 -229 68 -214 c 1x6f
 99 -165 l 1
 114 -175 131 -181 155 -181 c 0
 185 -181 214 -166 215 -138 c 0
 216 -109 197 -99 133 -99 c 1
 156 -5 l 1xaf
 98 12 71 63 82 141 c 2
 126 456 l 1
 35 456 l 1
 45 527 l 1
 140 527 l 1
 173 649 l 1
 245 657 l 1
 227 527 l 1
 351 527 l 1
 331 456 l 1
 217 456 l 1
 173 139 l 2x77
EndSplineSet
Substitution2: "'smcp' Lowercase to Small Capitals lookup 24 subtable" tcedilla.sc
Substitution2: "'locl' Localized Forms in Latin lookup 5 subtable" uni021B
Substitution2: "'locl' Localized Forms in Latin lookup 4 subtable" uni021B
AlternateSubs2: "'aalt' Access All Alternates lookup 1 subtable" uni021B tcedilla.sc
EndChar
StartChar: uni0163
Encoding: 355 355 638
Width: 355
GlyphClass: 2
Flags: MW
HStem: -241 60<144 174.5 144 202> -214 21G<68 68> -99 43 -12 77<215 215> -5 21G<156 156> 456 71<45 126 35 140 227 331>
VStem: 79.63 91.29 215 75
AnchorPoint: "Anchor-14" 177 264 basechar 0
AnchorPoint: "Anchor-13" 277 745 basechar 0
AnchorPoint: "Anchor-12" 208 649 basechar 0
AnchorPoint: "Anchor-11" 0 0 basechar 0
AnchorPoint: "Anchor-10" 181 -241 basechar 0
LayerCount: 2
Back
Fore
SplineSet
217 456 m 1x6f
 173 139 l 2
 165 86 177 65 220 65 c 0
 244 65 266 73 294 89 c 1
 324 23 l 1
 289 1 253 -10 215 -12 c 1
 208 -56 l 1
 267 -61 290 -95 290 -136 c 0
 290 -187 247 -241 157 -241 c 0xb7
 118 -241 88 -229 68 -214 c 1x6f
 99 -165 l 1
 114 -175 131 -181 157 -181 c 0xaf
 192 -181 214 -166 215 -138 c 0
 216 -109 197 -99 133 -99 c 1
 156 -5 l 1
 98 12 71 63 82 141 c 2
 126 456 l 1
 35 456 l 1
 45 527 l 1
 140 527 l 1
 173 649 l 1
 245 657 l 1
 227 527 l 1
 351 527 l 1
 331 456 l 1
 217 456 l 1x6f
EndSplineSet
Substitution2: "'smcp' Lowercase to Small Capitals lookup 28 subtable" uni0163.sc
Substitution2: "'locl' Localized Forms in Latin lookup 5 subtable" uni021B
Substitution2: "'locl' Localized Forms in Latin lookup 4 subtable" uni021B
AlternateSubs2: "'aalt' Access All Alternates lookup 1 subtable" uni021B uni0163.sc
EndChar
StartChar: Tcaron
Encoding: 356 356 240
Width: 511
GlyphClass: 2
Flags: MW
HStem: 0 21G<171 265 171 171> 608 81<74 256 62 562 350 540 350 350>
VStem: 62 500<608 689>
AnchorPoint: "Anchor-14" 267 345 basechar 0
AnchorPoint: "Anchor-13" 0 0 basechar 0
AnchorPoint: "Anchor-12" 336 909 basechar 0
AnchorPoint: "Anchor-11" 0 0 basechar 0
AnchorPoint: "Anchor-10" 219 0 basechar 0
LayerCount: 2
Back
Fore
SplineSet
463 909 m 1
 498 864 l 1
 350 754 l 1
 290 754 l 1
 170 864 l 1
 213 909 l 1
 326 828 l 1
 463 909 l 1
562 689 m 1
 540 608 l 1
 350 608 l 1
 265 0 l 1
 171 0 l 1
 256 608 l 1
 62 608 l 1
 74 689 l 1
 562 689 l 1
EndSplineSet
Substitution2: "'c2sc' Capitals to Small Capitals lookup 27 subtable" tcaron.sc
Substitution2: "'aalt' Access All Alternates lookup 0 subtable" tcaron.sc
Position2: "'cpsp' Capital Spacing lookup 0 subtable" dx=5 dy=0 dh=10 dv=0
EndChar

StartChar: tcaron
Encoding: 357 357 236
Width: 355
GlyphClass: 2
Flags: MW
HStem: -12 77<198.5 226> 456 71<45 126 35 140 227 331> 549 20G<283 283> 725 20G<407 407>
VStem: 79.52 91.4
AnchorPoint: "Anchor-11" 194 0 basechar 0
AnchorPoint: "Anchor-10" 0 0 basechar 0
AnchorPoint: "Anchor-9" 0 0 basechar 0
AnchorPoint: "Anchor-8" 0 0 basechar 0
LayerCount: 2
Fore
SplineSet
335 561 m 1
 283 569 l 1
 325 755 l 1
 407 745 l 1
 335 561 l 1
227 527 m 1
 351 527 l 1
 331 456 l 1
 217 456 l 1
 173 139 l 2
 165 86 177 65 220 65 c 0
 244 65 266 73 294 89 c 1
 324 23 l 1
 286 -1 247 -12 205 -12 c 0
 114 -12 68 43 82 141 c 2
 126 456 l 1
 35 456 l 1
 45 527 l 1
 140 527 l 1
 173 649 l 1
 245 657 l 1
 227 527 l 1
EndSplineSet
Substitution2: "'smcp' Lowercase to Small Capitals lookup 24 subtable" tcaron.sc
Substitution2: "'aalt' Access All Alternates lookup 0 subtable" tcaron.sc
EndChar

StartChar: Tbar
Encoding: 358 358 97
Width: 513
GlyphClass: 2
Flags: MW
HStem: 0 21G<171 266 171 171> 319 70<104 216 95 225 320 434> 608 81<74 256 62 562 351 351 351 540>
VStem: 62 500<608 689>
LayerCount: 2
Fore
SplineSet
320 389 m 1
 443 389 l 1
 434 319 l 1
 311 319 l 1
 266 0 l 1
 171 0 l 1
 216 319 l 1
 95 319 l 1
 104 389 l 1
 225 389 l 1
 256 608 l 1
 62 608 l 1
 74 689 l 1
 562 689 l 1
 540 608 l 1
 351 608 l 1
 320 389 l 1
EndSplineSet
Substitution2: "'c2sc' Capitals to Small Capitals lookup 23 subtable" tbar.sc
Substitution2: "'aalt' Access All Alternates lookup 0 subtable" tbar.sc
Position2: "'cpsp' Capital Spacing lookup 0 subtable" dx=5 dy=0 dh=10 dv=0
EndChar
StartChar: Utilde
Encoding: 360 360 280
Width: 656
GlyphClass: 2
Flags: MW
HStem: -12 80<248.5 346 248.5 368> 669 20G<149 243 243 243 532 627 627 627> 782 70<448 475 448 485.5> 830 70<342.5 370.5>
VStem: 80.08 94.78
AnchorPoint: "Anchor-14" 0 0 basechar 0
AnchorPoint: "Anchor-13" 637 689 basechar 0
AnchorPoint: "Anchor-12" 412 900 basechar 0
AnchorPoint: "Anchor-11" 387 0 basechar 0
AnchorPoint: "Anchor-10" 291 0 basechar 0
LayerCount: 2
Back
Fore
SplineSet
466 782 m 0xe8
 407 782 386 830 355 830 c 0
 330 830 312 812 292 782 c 1
 240 814 l 1
 270 863 309 900 357 900 c 0xd8
 414 900 432 852 464 852 c 0
 486 852 504 868 525 898 c 1
 579 866 l 1
 545 809 505 782 466 782 c 0xe8
627 689 m 1xd8
 561 218 l 2
 541 81 444 -12 292 -12 c 0
 135 -12 64 87 83 224 c 2
 149 689 l 1
 243 689 l 1
 178 225 l 2
 163 118 201 68 296 68 c 0
 396 68 452 124 467 231 c 2
 532 689 l 1
 627 689 l 1xd8
EndSplineSet
Substitution2: "'c2sc' Capitals to Small Capitals lookup 27 subtable" utilde.sc
Substitution2: "'aalt' Access All Alternates lookup 0 subtable" utilde.sc
Position2: "'cpsp' Capital Spacing lookup 0 subtable" dx=5 dy=0 dh=10 dv=0
EndChar
